
<svg xmlns="http://www.w3.org/2000/svg" version="1.1" xmlns:xlink="http://www.w3.org/1999/xlink" preserveAspectRatio="none" x="0px" y="0px" width="1280px" height="686px" viewBox="0 0 1280 686">
<defs>
<filter id="Filter_1" x="-20%" y="-20%" width="140%" height="140%" color-interpolation-filters="sRGB">
<feColorMatrix in="SourceGraphic" type="matrix" values="0 0 0 0 0.2 0 0 0 0 0.2 0 0 0 0 0.2 0 0 0 1 0" result="result1"/>
</filter>

<filter id="Filter_2" x="-20%" y="-20%" width="140%" height="140%" color-interpolation-filters="sRGB">
<feColorMatrix in="SourceGraphic" type="matrix" values="1 0 0 0 0 0 1 0 0 0 0 0 1 0 0 0 0 0 0.51 0" result="result1"/>
</filter>

<g id="Layer13_0_FILL">
<path fill="#F4F8F9" stroke="none" d="
M 661.45 633.2
Q 791.65 661.05 857.2 670.95 965.5 687.25 1039.9 681.65 1129.85 675.05 1183.85 636.35 1314.65 542.4 1264.6 432.9 1204.75 301.65 888.05 162.5 715.95 87.05 599.25 57.3 480.5 27.1 390.85 37.25 305.5 46.85 225.7 95.9 157.65 137.8 66.6 226.7 -12.45 304.05 4.65 372.85 19.25 432 104.1 482.35 174.9 524.5 287.8 556.85 380.25 583.45 478.25 597.75 533.2 605.75 661.45 633.2 Z"/>
</g>

<g id="Layer12_0_FILL">
<path fill="#CBEBF3" fill-opacity="0.4" stroke="none" d="
M 740.3 571.5
Q 837.4 570.65 885.6 566.95 964.95 560.65 1016.3 543.05 1078.25 521.8 1155.15 443.9 1232 365.95 1158.15 283.2 1084.25 200.4 877.5 162.4 670.7 124.4 582.7 121.5 565.35 120.9 528.35 117.25 475.75 112.1 463.9 111.15 384 104.55 359.3 114.25 301.2 137.05 254.65 190.5 215.25 235.9 168.6 323.55 128.35 399.3 165.15 455.95 196.65 504.45 281.8 535.7 353.5 562.05 450.8 572.4 535.35 581.35 604.4 575.6 644.6 572.3 740.3 571.5 Z"/>
</g>

<g id="hgfdff_0_Layer0_0_FILL">
<path fill="#191815" stroke="none" d="
M 184.5 166.8
L 208.25 47.9 148.8 36.05 153.35 13.15 87.7 0 83.15 22.95 23.75 11.1 0 130.15 184.5 166.8
M 143.45 19.2
L 140.4 34.4 91.55 24.65 94.45 9.45 143.45 19.2 Z"/>
</g>

<g id="HeadOfficer_0_Layer1_0_FILL">
<path fill="#D38473" stroke="none" d="
M 66.5 135.65
L 66.35 128.85
Q 56.25 135.95 45.5 135.1 33.45 134.15 23.7 123.4
L 23.3 127.2 23.25 127.7 23.3 127.75
Q 27.4 133.6 33.7 137.05 40 140.5 47.15 140.6 57.7 140.6 66.5 135.65 Z"/>

<path fill="#F59F82" stroke="none" d="
M 93.5 75.1
Q 92.65 74.6 91.75 74.25 90.7 58.1 80.9 45.6 79.4 43.7 77.8 42 68.95 39.65 67.45 39.45 62.2 39.05 45.2 41.8 39.45 43 38.45 41.5 37.9 40.6 37.9 32.35 37.55 32.5 37.25 32.65 31.95 40.05 24.05 44.8 21.4 46.35 18.65 47.5 11.85 56.2 9.25 67.6 8.55 67.6 7.95 67.75 5.15 68.15 3.05 70.2 0.15 72.95 0 76.9 0.45 81.05 2.9 84.2 4.95 86.85 8.05 88.15 9.55 103.6 18.45 116.75 20.9 120.35 23.55 123.25
L 23.3 127.2 23.7 123.4
Q 33.45 134.15 45.5 135.1 56.25 135.95 66.35 128.85
L 66.5 135.65
Q 57.7 140.6 47.15 140.6 40 140.5 33.7 137.05 27.4 133.6 23.3 127.75
L 20.4 175.2 70.9 183.15
Q 70.75 177.95 68.55 151.6 67.25 136.8 66.65 128.65 70.85 125.55 75 121.1 86.2 109.25 89.95 93.9 92.15 93 94.05 91.3 96.9 88.6 97.9 84.6 98.45 80.6 96.1 77.45 94.95 76 93.5 75.1
M 81.25 91.35
Q 81.35 91.5 81.45 91.6 83.55 94.4 83.15 98.05 82.6 101.9 79.6 104.25 76.55 106.6 72.75 106.15 69 105.6 66.7 102.6 65.5 101.2 65.05 99.6 64.45 97.8 64.75 95.75 65.2 92.05 68.05 89.7 70.95 87.35 74.65 87.75
L 75.05 87.75
Q 78.9 88.3 81.25 91.35
M 39.8 58.4
Q 36.35 56.2 32.1 55.8 27.85 55.5 24 57.15 23.05 57.7 21.65 58 20 58 20 56.35
L 20.3 55.25
Q 21.65 53.3 24 52.2 31.7 49.05 38.15 53.6 40.6 54.95 41.7 58
L 41.55 57.7
Q 41.6970703125 58.0078125 41.55 58.4 41.3 58.8 41 58.8 40.2 58.8 39.8 58.4
M 27 69.95
Q 27.3 67.75 28.25 66.1 29.35 64.55 30.6 64.7 31.95 64.85 32.8 66.5 33.6 68.3 33.35 70.45 33.2 72.8 32.1 74.3 31.15 75.85 29.75 75.7 28.4 75.55 27.7 73.9 26.9 72.25 27 69.95
M 14.5 91.9
Q 14.85 89.15 16.5 87.15 17.05 86.45 17.8 85.85 20.7 83.4 24.4 83.8
L 24.95 83.8
Q 28.8 84.35 31.15 87.35 33.45 90.4 32.9 94.2 32.6 96.15 31.75 97.7 30.9 99.25 29.5 100.4 26.45 102.75 22.6 102.2 18.8 101.65 16.45 98.75 14.1 95.75 14.5 91.9
M 52.5 95.6
L 46.45 94.9 52.5 95.6 53.3 95.45
Q 53.6 95.2 53.6 94.5
L 52.2 65.4 53.6 94.5
Q 53.6 95.2 53.3 95.45
L 52.5 95.6
M 68.35 109.6
Q 67.7 110.5 66.85 111.2 65.6 113.35 63 115.8 59.55 118.95 57.1 119.35 50.1 120.6 45 117.95 39.5 115.35 35 107.95
L 34 106.7
Q 50.9 114 68.35 109.6 Z"/>

<path fill="#DD554B" stroke="none" d="
M 66.85 111.2
Q 64.75 112.95 61.6 113.45 45.55 116.45 35 107.95 39.5 115.35 45 117.95 50.1 120.6 57.1 119.35 59.55 118.95 63 115.8 65.6 113.35 66.85 111.2 Z"/>

<path fill="#FFFFFF" stroke="none" d="
M 66.85 111.2
Q 67.7 110.5 68.35 109.6 50.9 114 34 106.7
L 35 107.95
Q 45.55 116.45 61.6 113.45 64.75 112.95 66.85 111.2 Z"/>

<path fill="#E09176" stroke="none" d="
M 16.5 87.15
Q 14.85 89.15 14.5 91.9 14.1 95.75 16.45 98.75 18.8 101.65 22.6 102.2 26.45 102.75 29.5 100.4 30.9 99.25 31.75 97.7 32.6 96.15 32.9 94.2 33.45 90.4 31.15 87.35 28.8 84.35 24.95 83.8
L 24.4 83.8
Q 20.7 83.4 17.8 85.85 17.05 86.45 16.5 87.15
M 81.45 91.6
Q 81.35 91.5 81.25 91.35 78.9 88.3 75.05 87.75
L 74.65 87.75
Q 70.95 87.35 68.05 89.7 65.2 92.05 64.75 95.75 64.45 97.8 65.05 99.6 65.5 101.2 66.7 102.6 69 105.6 72.75 106.15 76.55 106.6 79.6 104.25 82.6 101.9 83.15 98.05 83.55 94.4 81.45 91.6 Z"/>

<path fill="#2A252E" stroke="none" d="
M 28.25 66.1
Q 27.3 67.75 27 69.95 26.9 72.25 27.7 73.9 28.4 75.55 29.75 75.7 31.15 75.85 32.1 74.3 33.2 72.8 33.35 70.45 33.6 68.3 32.8 66.5 31.95 64.85 30.6 64.7 29.35 64.55 28.25 66.1
M 100.65 20.9
Q 95.3 13.35 87.9 8.95 76.25 1.3 57.95 0.2 40.8 -0.9 26.4 4.15 14.45 8.45 8.7 26.7 4.1 41.1 5.7 50.1 6 59 7.95 67.75 8.55 67.6 9.25 67.6 11.85 56.2 18.65 47.5 21.4 46.35 24.05 44.8 31.95 40.05 37.25 32.65 37.55 32.5 37.9 32.35 37.9 40.6 38.45 41.5 39.45 43 45.2 41.8 62.2 39.05 67.45 39.45 68.95 39.65 77.8 42 79.4 43.7 80.9 45.6 90.7 58.1 91.75 74.25 92.65 74.6 93.5 75.1 95.75 69.85 97.35 63.6 98.7 58.25 99.85 50.25 101.6 51.75 102.85 53.6 105.05 56.6 105.45 58.8 107.1 58.25 107.4 54.95 109.2 33.7 100.65 20.9 Z"/>

<path fill="#333333" stroke="none" d="
M 32.1 55.8
Q 36.35 56.2 39.8 58.4 40.2 58.8 41 58.8 41.3 58.8 41.55 58.4 41.6970703125 58.0078125 41.55 57.7
L 41.7 58
Q 40.6 54.95 38.15 53.6 31.7 49.05 24 52.2 21.65 53.3 20.3 55.25
L 20 56.35
Q 20 58 21.65 58 23.05 57.7 24 57.15 27.85 55.5 32.1 55.8 Z"/>
</g>

<g id="occhiolino_0_Layer1_0_FILL">
<path fill="#503413" stroke="none" d="
M 1.25 1.7
Q 0.15 3.55 0 6.3 -0.15 8.9 0.95 10.9 1.85 12.75 3.4 12.9 4.9 12.9 6.15 11.05 7.2 9.2 7.35 6.6 7.55 3.85 6.45 2 5.55 0 4 0 2.45 -0.15 1.25 1.7 Z"/>
</g>

<g id="occhiolino_0_Layer0_0_FILL">
<path fill="#9D4C16" stroke="none" d="
M 11.95 -13.75
Q 8.15 -16.05 3.7 -16.2 -0.75 -16.2 -4.75 -14.25 -7.95 -12.85 -9.35 -9.8 -9.65 -9.65 -9.5 -9.15 -9.2 -8.7 -8.85 -8.55 -8.1 -8.25 -7.35 -8.85 -2.9 -11 2 -10.85 6.9 -10.55 11.2 -7.95 12.75 -7.05 13.95 -6.85 15.8 -6.55 16.1 -8.55
L 15.8 -9.8
Q 14.4 -12.25 11.95 -13.75 Z"/>
</g>

<g id="piantala_0_Layer0_0_FILL">
<path fill="#5D96D1" stroke="none" d="
M 132.8 193.05
L 118.9 193.05
Q 118.36484375 205.11328125 116.75 215.75 125.874609375 214.7244140625 133.45 213.45
L 132.8 193.05 Z"/>

<path fill="#AEC1D0" stroke="none" d="
M 146.9 163.8
L 147.2 164.75
Q 148.29765625 169.58984375 147.6 174.2
L 147.6 174.25 148.85 175.6
Q 151.6 170 152.7 162.85 150.65 164.1 148.45 164.1
L 146.9 163.8 146.9 163.8
M 152.95 159.7
Q 153.25 154.6 152 150.1 149.25 153.65 145.4 155.7
L 145.3 155.75
Q 144.53984375 156.1 143.65 156.1 143.6875 156.15859375 143.7 156.2 144.49765625 157.4728515625 145.55 160.05
L 145.55 160.1
Q 146.4970703125 158.550390625 148.15 158.3
L 148.6 158.3
Q 148.6671875 158.3 148.7 158.3 150.2 158.6 152.95 159.7
M 115.9 148
Q 116.065625 147.9009765625 116.2 147.8
L 114.55 147.65
Q 114.136328125 148.491015625 113.95 149.4
L 113.95 149.35 115.9 148
M 140.75 146.35
Q 139.9 147.05 137.3 148.3
L 140.35 151.2
Q 140.786328125 150.8 141.3 150.45 142.1365234375 150.0068359375 143.35 149.65
L 151.2 147.75 150.2 145.4
Q 148.45 142.1 146.35 139.65 144.6 144.05 140.75 146.35
M 129.6 136.55
L 127.55 139.1
Q 126.75 140.35 120.4 142.95 119.028515625 143.51328125 117.95 144.15 119.1798828125 144.85078125 119.85 145.95 121.890625 145.08359375 123.85 144.6 128.75 143.5111328125 133.25 145.75 133.3041015625 145.7767578125 133.35 145.8 133.2 143.9 136.2 142.25 138.2177734375 141.259375 141.7 139.2
L 142.35 138.85
Q 143.29375 138.2494140625 144.3 137.6 141.651953125 135.0220703125 139.15 134 134.0078125 131.8896484375 129.6 136.55
M 14.35 172.15
L 14.4 172.05 12.65 172.45
Q 9.75 172.45 7.4 171.1 8.8 179.45 12.1 186.35 12.75 185.25 13.45 184.7 12.75 178.8 14 173.4
L 14.35 172.15
M 18.15 163
Q 17.45 163 16.05 162.45 11.65 160.1 8.25 155.7 6.75 161.75 7.15 167.25 9.75 166.15 12.2 165.6 13.7708984375 165.7189453125 14.8 166.5 15.475390625 166.9666015625 15.95 167.65
L 18.15 163 18.15 163
M 25.8 153.65
Q 22.65 152.15 21.7 151.3 17.15 148.7 14.95 143.35 12.5 146.25 10.45 150.1
L 9.2 152.95 13.3 154.05
Q 18.25 155.15 18.55 155.3 19.9783203125 155.72421875 20.95 156.25 21.64140625 156.65078125 22.1 157.05 22.18046875 157.1419921875 22.25 157.2
L 25.8 153.65
M 27.05 146.35
L 28.6 147.35
Q 30.6 148.8875 30.6 150.65 36.1 147.75 41.9 149.25 46.95 150.5 51.35 153.25
L 53.55 154.8 53.65 154.85
Q 53.6623046875 154.82578125 53.65 154.75 53.0359375 151.6974609375 50.1 149.45 48.443359375 148.1955078125 46 147.2 38.568359375 144.0994140625 37.5 142.7
L 37.5 142.65
Q 28.7 130.05 17.3 140.9 22.95 144.3 27.05 146.35
M 72.25 134.85
L 71 134.45 71 134.65
Q 71.15 135.3345703125 71.15 136.2 71.15 138.7 69.5 141.3 69.6328125 141.2890625 69.75 141.25 69.9052734375 141.263671875 70 141.25
L 81.5 139
Q 83.3806640625 138.417578125 85.15 137.7 84.15 137.15 83.5 136.2
L 83.45 136.2
Q 77.5783203125 136.493359375 72.25 134.85
M 54.1 139.5
Q 54.5134765625 139.640234375 54.9 139.75 60.2671875 141.45 65.65 141.45 65.3853515625 140.8359375 65.15 140.25 64.3681640625 138.05234375 64.25 136.2 64.466015625 133.7529296875 66.3 132.7 66.4384765625 132.5984375 66.6 132.5 64.130859375 131.56171875 62.1 130.05 62.0751953125 130.0685546875 62.05 130.05
L 61.4 132.1
Q 58.35 136.75 54.1 139.5
M 53.05 121.6
L 53 121.5
Q 52.5263671875 122.7177734375 51.55 124.15 51.346484375 124.530859375 51.1 124.9
L 50.55 125.65
Q 47.35 130.15 42 131.8
L 48.45 136.9 51.2 138.3 51.35 138.4
Q 51.65 137.05 52.75 134.3 53.033984375 133.0224609375 53.3 132 53.665625 130.6171875 54 129.65
L 54.2 129.1
Q 54.2345703125 129.0865234375 54.25 129.05 54.430078125 128.5150390625 54.6 128.05 55.24453125 126.70546875 56.45 125.5
L 56.35 125.4 53.05 121.6
M 54.5 95.85
L 56.2 93.75 56.3 93.65
Q 51.2 94.35 47.9 100.8 47.7916015625 101.03046875 47.65 101.25 44.304296875 108.3744140625 42.85 109.15
L 40.85 110.45
Q 39.8212890625 111.2126953125 38.95 112 38.185546875 112.9087890625 37.35 113.75 37.072265625 114.13203125 36.8 114.5
L 36.7 114.7
Q 35.1248046875 117.2091796875 35.25 120 35.330859375 122.1427734375 36.4 124.4
L 39.4 129.2
Q 39.4837890625 129.26953125 39.55 129.35 43.25 124.25 45.85 119.85 47.438671875 117.384765625 49.05 116.8 49.718359375 116.5564453125 50.4 116.6 48.05 110.95 49.7 105.05 51.2 100.35 54.5 95.85
M 118.9 69.1
Q 118.978515625 68.961328125 119.05 68.8 110.95 67.3 101.6 66.6
L 97.95 65.85
Q 94.9693359375 64.865625 94.05 62.6 87.9 69.9 78.55 71.4 71 72.65 62.5 71.25
L 58.35 70.35 58.2 70.3
Q 59.0296875 71.503515625 60.05 72.5 64.77421875 76.9 73.85 76.9 82.681640625 76.7984375 86.5 77.4 88.207421875 77.67890625 88.9 78.1
L 89 78.15
Q 92.1353515625 80.1830078125 95.05 81.3 95.2333984375 81.403125 95.4 81.45 102.46875 84.1203125 108.2 81.55 108.289453125 81.507421875 108.35 81.45
L 109.4 80.9
Q 109.71796875 80.7244140625 110 80.5 110.4576171875 80.2447265625 110.85 79.9
L 114.3 76.65 117.6 71.75
Q 117.8736328125 71.2513671875 118.15 70.7
L 118.9 69.1
M 108.6 48.75
Q 105.2 49.15 102.15 48.2
L 101.2 50.8
Q 100.5 52.75 99 55.45 99.4228515625 55.437890625 99.95 55.45 103.73046875 55.5271484375 106.4 56.15 108.53359375 56.5244140625 110.5 57.15 114.355859375 58.46484375 117.6 60.8 119.3646484375 62.1013671875 120.95 63.7 122.75 57.8 123.45 51.2 123.7 48.75 123.45 46.4
L 116.85 47.35
Q 114.7421875 47.771484375 113.05 48.05 110.29609375 48.5650390625 108.6 48.75
M 104.2 19.75
L 104.5 21.85 105.25 21.35
Q 105.7666015625 20.959375 106.35 20.6
L 106.85 20.3
Q 107.6279296875 19.96796875 108.4 19.7
L 108.9 19.55
Q 111.8625 18.7125 115.05 19.2 108.6 8.4 99.4 0
L 98.3 3.3
Q 98.3138671875 3.323828125 98.3 3.35 102.8541015625 11.1263671875 104.2 19.75
M 122.05 41.15
Q 122.6115234375 41.4537109375 123.15 41.75
L 123.05 41.15 123.05 41.1
Q 123.0576171875 41.058984375 123.05 41 122.1703125 35.1794921875 120.05 29.45 119.832421875 28.8291015625 119.55 28.15 118.8255859375 26.310546875 117.95 24.45 114.65 28 111.5 29.95 108.2 31.3 105.05 29.25 105.05 33.752734375 104.5 37.1 104.5056640625 37.1646484375 104.5 37.2 106.15 36.8 107.95 36.8 115.519140625 37.8154296875 122.05 41.15 Z"/>

<path fill="#CAD5DF" stroke="none" d="
M 101.9 158.2
L 101.55 158.3
Q 101.314453125 158.383984375 101.05 158.45 100.17109375 158.55546875 99.25 158.4 98.85078125 158.31875 98.45 158.2 98.7375 159.2291015625 99.15 160.25 100.111328125 162.719921875 101.75 165.3
L 102.45 164.5
Q 102.4375 164.4595703125 102.4 164.4 101.6044921875 161.707421875 101.9 158.85
L 101.9 158.2
M 102.15 153.25
Q 102.070703125 153.215234375 102 153.15 100.6591796875 152.5841796875 99.6 151.9 98.622265625 151.308984375 97.9 150.6 97.8201171875 150.5677734375 97.75 150.5 97.35 153.25 98.05 156.25
L 99.4 155.6 100.35 155.15
Q 101.70625 154.976171875 102.3 155.7 102.3826171875 155.7826171875 102.45 155.85
L 103.1 153.45 103.1 153.4 102.15 153.25
M 111.25 141.75
Q 109.1392578125 139.4458984375 106.95 139.2 104.5400390625 138.8650390625 102.2 141.2
L 101.2 142.4
Q 103.55 143.65 106.4 144.45 108.3373046875 145.04609375 108.45 146.2 108.489453125 146.2728515625 108.5 146.35 111.1 144.45 113.95 144.85 116.6 145 119.05 146.1
L 120.3 146.8
Q 120.137109375 146.3494140625 119.85 145.95 118.7693359375 144.26796875 115.9 143.5 111.9 142.4 111.35 141.85 111.3126953125 141.80859375 111.25 141.75
M 100.15 143.85
Q 99.125390625 145.4720703125 98.45 147.45
L 98.05 149 99.8 149.2 102.85 149.55
Q 103.35625 149.5986328125 103.75 149.7 104.2568359375 149.8626953125 104.75 150.2
L 104.8 150.15 105.3 149.4 106.4 148.15 106.05 148
Q 105.2294921875 147.875 104.1 147.35 101.45 146.25 100.25 143.75 100.211328125 143.8080078125 100.15 143.85
M 87.75 127.95
L 87.9 126.9 87.7 126.95
Q 87.1404296875 127.2244140625 86.35 127.4 84.624609375 127.7787109375 82.5 127.15
L 81.7 126.9
Q 81.7333984375 127.004296875 81.75 127.1
L 85 134.95
Q 85.2541015625 135.472265625 85.5 135.95
L 87.45 139.3
Q 87.5380859375 139.40390625 87.6 139.5 88.062890625 138.5908203125 88.7 137.85 87.35 132.65 87.75 127.95
M 95.55 109.3
Q 94.821875 109.13828125 93.75 108.75
L 93 108.45
Q 92.404296875 108.24140625 91.7 107.95 87.291796875 105.864453125 85.05 102.15 84.964453125 101.9580078125 84.85 101.75 83.2 104.2 81.7 108.2
L 81.1 110.3
Q 81.205078125 110.57265625 81.25 110.8
L 84.9 111.2 89.55 111.65
Q 91.45 111.9 92.8 112.85
L 95.5 109.35 95.55 109.3
M 77.2 179.2
L 77.15 179.2
Q 77.15 179.3537109375 77.05 179.6 76.892578125 180.1232421875 76.6 180.7 76.5529296875 180.7818359375 76.5 180.85 76.2783203125 181.23359375 76 181.55 75.8953125 181.7697265625 75.75 181.95 74.7951171875 183.18828125 73.55 183.95 73.38515625 184.0505859375 73.2 184.15 73.6466796875 184.3220703125 74.1 184.45
L 75.05 184.8
Q 80.9330078125 186.8470703125 87.35 187.45 86.9833984375 186.7298828125 86.75 185.95
L 86.65 185.65
Q 81.95 183.6 78.15 180
L 77.2 179.2
M 71.85 172
L 71.8 171.9
Q 71 173 70.45 173.3 68.881640625 174.259375 67.25 174.95
L 66.15 175.35
Q 63.86171875 176.164453125 61.5 176.45 65.1 180 70.05 182.6 70.15 180.55 71.15 177.8 71.1720703125 177.7654296875 71.2 177.7
L 71.5 177.3
Q 72.6390625 175.9 74.4 175.9
L 74.3 175.8 71.85 172
M 62.5 171.65
Q 64.65 169.15 65.9 168.05 67.4 166.55 69.05 166
L 67.95 161.6
Q 65.9 163.15 64.25 163.8 61.9646484375 165.0205078125 59.5 165.4 57.27890625 165.786328125 54.9 165.45 56 168.75 58.1 172.05
L 59.75 174.4 60.75 173.35 62.5 171.65
M 29.05 120.6
L 28.95 120.7
Q 32.1314453125 121.1634765625 35.25 120 35.1248046875 117.2091796875 36.7 114.7
L 36.8 114.5
Q 37.029296875 114.1787109375 37.25 113.85 35.00390625 116.22890625 32.4 118.35
L 29.05 120.6
M 64.65 147.45
L 64.65 147.45
Q 59.6501953125 147.744140625 56.85 149.9 55.366015625 151.037109375 54.5 152.7 53.9693359375 153.6578125 53.65 154.75 53.6623046875 154.82578125 53.65 154.85 53.6337890625 154.93984375 53.6 155 53.6130859375 155.0498046875 53.6 155.1 53.2361328125 156.7013671875 53.35 158.6 53.4408203125 160.396484375 53.95 162.45 56.5703125 161.020703125 58.6 159.85 61.2560546875 158.30546875 62.9 157.2 64.6541015625 156.216015625 65.95 156.1 67.007421875 156.06015625 67.75 156.5 67.8181640625 156.5373046875 67.85 156.55 68.1 151.05 71.95 146.9 75.4 143.5 79.35 141.3
L 81.7 140.35
Q 81.161328125 140.1603515625 80.6 140.05
L 80.25 140
Q 78.9830078125 139.835546875 77.7 140.05
L 75.5 140.75
Q 73.9203125 141.476953125 72.25 142.8 66.2697265625 147.29765625 64.65 147.45
M 80.35 119.95
Q 80.51484375 121.762109375 80.9 123.6 82.85859375 122.119140625 84.95 121.55 85.051953125 121.524609375 85.15 121.5
L 85.4 121.45
Q 87.29375 121.34375 88.7 122.75
L 88.7 122.65 90.1 118.5 89.75 118.45
Q 88.966796875 118.4302734375 88.15 118.2 88.056640625 118.16484375 87.95 118.1 87.34921875 117.886328125 86.75 117.6 85.8103515625 117.186328125 84.9 116.65 83.404296875 115.8220703125 82 114.7 82.29921875 117.66796875 81.85 120.7 81.1228515625 120.2708984375 80.35 119.95
M 46.9 90.5
Q 46.6470703125 90.4435546875 46.4 90.35 47.65 99.15 42.85 106.95 41.156640625 109.480078125 39.15 111.8 39.922265625 111.1025390625 40.85 110.45
L 42.85 109.15
Q 43.342578125 108.791796875 47.65 101.25 47.7916015625 101.03046875 47.9 100.8 51.2 94.35 56.3 93.65
L 56.2 93.75
Q 58.1044921875 93.4435546875 60.3 93.8 58.35 96.95 57.95 98.05 56.8234375 100.80390625 56 103.45 60.789453125 101.9525390625 63.9 99.55
L 64 96.55 63.55 94.6 67.2 96.05
Q 68.330078125 94.36484375 68.95 92.4 71 85.8 66.85 76.5
L 58.85 83.1
Q 56.4625 85.2 54.1 87.45 50.0294921875 91.2892578125 46.9 90.5
M 50.1 64.4
Q 48.6 66.6 45.85 71.15 44.1 73.75 41.35 75.4
L 42.55 77.6
Q 43.0876953125 78.5287109375 44.55 82.05 44.615234375 82.1669921875 44.65 82.25 46.719921875 79.86171875 48.8 78.2 49.2947265625 77.8513671875 49.85 77.45 54.6107421875 73.69921875 60.05 72.5 59.0296875 71.503515625 58.2 70.3
L 58.35 70.35
Q 56.6271484375 67.9453125 55.6 64.65 57.1115234375 64.65 59.4 64.75 58.3099609375 63.4380859375 57.1 62.2
L 53.7 59.05 50.1 64.4
M 34.35 57
L 34.15 57.5
Q 32.9748046875 60.4650390625 29.65 61.25 32.2298828125 63.4330078125 35.1 66.55 35.1275390625 66.5755859375 35.15 66.6 35.85 65.2 36.95 64 42.7 58.75 50.25 56.3 42.85 51.2 34.6 49 35 52.6 34.35 57
M 5.35 46.55
Q 6.3845703125 47.90703125 7 49.45 15.5 51.35 22.5 55.75
L 24.15 56.85
Q 24.15 55.9125 24.4 54.8
L 24.6 54.1
Q 25.1185546875 52.436328125 26 51 27.21328125 49.068359375 28.95 47.65 28.25625 47.503125 27.55 47.35
L 5.35 46.55
M 140.05 79.1
L 136.5 82.5
Q 140.05 83.9 142.8 85.8 142.909375 85.8671875 143 85.9 143.131640625 85.9921875 143.2 86.05 143.329296875 86.1169921875 143.4 86.15
L 151.2 94.25
Q 152.198828125 95.849609375 152.95 97.65 154.875 95.3 156.55 92.75
L 161.5 83.2 155.15 81.7
Q 149.95 80.75 147.35 79.9 144.2 79.1 141.85 77.15 140.75 78.55 140.05 79.1
M 89.45 96.2
L 87.9 97.65
Q 87.212890625 98.4056640625 86.5 99.3 91.15 101.45 95.7 102.85
L 97.2 103.55
Q 99.1875 104.6875 99.3 106.15 103.55 103.1 109 103.55 113.4 103.95 117.7 105.85
L 119.85 106.95
Q 118.56796875 103.44609375 113.95 101.7 113.1794921875 101.43984375 112.3 101.2 112.2380859375 101.183984375 112.15 101.15 106.130859375 99.2576171875 104.65 98.55 104.4587890625 98.42578125 104.35 98.3 102.107421875 95.876171875 99.85 94.75 97.112109375 93.38046875 94.35 93.9 91.8314453125 94.3248046875 89.45 96.2
M 95.4 81.45
Q 95.2333984375 81.403125 95.05 81.3 95.6904296875 84.061328125 97.45 86.3 100.2197265625 89.8001953125 105.6 92.15
L 106.05 92.35
Q 106.29375 92.4474609375 106.55 92.55
L 107.95 93.1
Q 116.16875 96.415234375 118.6 98.3 118.9671875 98.58046875 119.2 98.8 119.328515625 98.9880859375 119.45 99.15
L 127 106.7
Q 131 109.1 135.4 108.9 137.6029296875 108.8056640625 139.8 108.05
L 141.3 107.45
Q 145.35078125 105.562890625 149.55 101.45 143.65 97.75 134.85 93.35 129.5 90.75 129.5 87.05 121.65 91.3 112.6 89.4 104.75 87.45 98.45 83.5 97.3248046875 82.869921875 95.4 81.45
M 163.6 55.95
Q 163.5056640625 55.2283203125 163.35 54.45
L 156.55 33.5
Q 155.7 35 154.45 36 155.55 44.9 153.8 52.75
L 153.4 54.65 153.6 54.6
Q 154.663671875 54.254296875 156 54.1 156.087890625 54.1 156.15 54.1 156.2943359375 54.101171875 156.4 54.1
L 160.15 54.6
Q 161.9939453125 55.1513671875 163.65 56.15 163.637109375 56.06796875 163.6 55.95
M 164.35 61.8
Q 164.2787109375 61.8365234375 164.2 61.85 160.5728515625 63.710546875 156.65 64.25 156.6072265625 64.25 156.55 64.25
L 155 64.05
Q 152.7287109375 63.5251953125 151.2 61.4
L 147.95 68.25 147.9 68.4
Q 149.4 68.4 151.05 69.2 153.204296875 70.309375 155.15 71.7
L 156.45 72.65
Q 159.8720703125 75.4080078125 162.7 78.95
L 164.25 70.35
Q 164.6986328125 66.108203125 164.35 61.8 Z"/>

<path fill="#104C51" stroke="none" d="
M 117.95 144.15
Q 119.028515625 143.51328125 120.4 142.95 126.75 140.35 127.55 139.1 127.3 139.5 119.2 143.35 118.4587890625 143.7052734375 117.8 144.1 117.8837890625 144.1552734375 117.95 144.15
M 144.3 137.6
Q 143.29375 138.2494140625 142.35 138.85 143.344921875 138.2630859375 144.45 137.6 141.757421875 134.973046875 139.15 134 141.651953125 135.0220703125 144.3 137.6
M 137.3 148.3
Q 139.9 147.05 140.75 146.35 138.25 148 137.05 148.3 134.7 149 133.6 147.05 133.28125 146.376953125 133.25 145.75 128.75 143.5111328125 123.85 144.6 121.890625 145.08359375 119.85 145.95 120.137109375 146.3494140625 120.3 146.8 120.6181640625 147.6490234375 120.7 148.7
L 118.35 148 116.2 147.8
Q 116.065625 147.9009765625 115.9 148
L 113.95 149.35
Q 113.787109375 150.26875 113.75 151.25 114.3123046875 151.3 114.95 151.3 116.0166015625 151.3 116.8 151.25
L 117.55 150.9
Q 122.2 149.55 124.7 149.1 124.8560546875 149.0728515625 125 149.05 127.1119140625 148.7373046875 128.65 149.25 131 149.95 130.6 152.3 130.3 153.8 127.85 154.6 127.15 154.9 123.85 155.55 123.46015625 155.6435546875 122.85 155.7 121.5705078125 155.9279296875 119.3 156.1
L 119.05 156.05
Q 118.645703125 156.949609375 118.1 157.75 117.2892578125 156.649609375 116.6 155.9
L 115.9 155.85 114.4 155.45
Q 114.7216796875 156.977734375 115.3 158.55 116.08671875 158.84453125 117 159 116.448046875 159.521875 115.8 159.95 117.191015625 163.6345703125 120 166.65 120.158203125 166.80390625 120.3 166.95 121.25 164.65 123.3 162.05 125.5 159.55 127.4 160.8
L 127.7 160.95
Q 128.65 161.6 128.8 162.85 128.8 163.95 128.1 164.9 125.8 167.65 122.2 168.75 127.85 172.45 134.85 172.05 133.6 169.15 134 166.15 134.3 165.05 135.4 163.95 136.6 162.7 137.7 163.15 139.35 163.8 139.35 168.35 139.1 170.55 137.85 172.05 142 171.9 144.2 172.45 146.2021484375 173.0173828125 147.6 174.2 148.29765625 169.58984375 147.2 164.75
L 146.9 163.8
Q 144.8462890625 163.1744140625 145.15 161.2 145.2916015625 160.56796875 145.55 160.05 144.49765625 157.4728515625 143.7 156.2 142.8205078125 156.3298828125 141.85 156.1 139.8 155.55 139.5 153.65 139.2921875 152.2203125 140.35 151.2
L 137.3 148.3
M 47.35 147.75
Q 38.1779296875 143.4794921875 37.5 142.7 38.568359375 144.0994140625 46 147.2 48.443359375 148.1955078125 50.1 149.45 48.92890625 148.5119140625 47.35 147.75
M 33.8 158.3
Q 33.35 155.7 36.1 154.75 38.00234375 154.1447265625 40.1 154.55 40.4619140625 154.6552734375 40.8 154.75 45.3 155.45 49.45 156.8
L 53.35 158.6
Q 53.2361328125 156.7013671875 53.6 155.1 53.6130859375 155.0498046875 53.6 155 53.5974609375 154.9146484375 53.55 154.8
L 51.35 153.25
Q 46.95 150.5 41.9 149.25 36.1 147.75 30.6 150.65 30.6 148.8875 28.6 147.35 31.3875 149.5966796875 30.05 152.15 28.95 154.45 26.1 153.65 24.6 153.25 21.7 151.3 22.65 152.15 25.8 153.65
L 22.25 157.2
Q 22.18046875 157.1419921875 22.1 157.05 23.4107421875 158.2904296875 23.2 159.95 22.8 162.3 20.3 162.85 19.21328125 163.1279296875 18.15 163
L 15.95 167.65
Q 15.475390625 166.9666015625 14.8 166.5 15.9759765625 167.3734375 16.5 169.05 16.8078125 171.47421875 14.35 172.15
L 14 173.4
Q 12.75 178.8 13.45 184.7 12.75 185.25 12.1 186.35 14 183.6 17.6 182.6 20.05 181.95 25.15 181.95 23.6 180.15 23.35 177.55 23.2 175.9 23.6 174.1 24.15 171.9 25.4 171.35 26.65 170.8 28.15 172.35 29.4 173.55 29.65 174.95 30.2 178.35 28.7 181.95 36.95 182.6 43.8 178.1 39.8 176.85 36.65 173.55 35.85 172.45 36 171.1 36.25 169.7 37.35 168.75
L 37.5 168.6
Q 38.6 167.95 40.25 168.5 41.45 168.9 42.45 170 44.65 172.6 46.15 176.05 46.322265625 175.859765625 46.5 175.65 50.0783203125 171.571875 51.75 166.7
L 53.3 162.15 51.35 162.7 47.25 163 43 162.45 41.75 162.3
Q 34.35 160.95 33.8 158.3
M 39.15 111.8
Q 39.0607421875 111.90390625 38.95 112 39.8212890625 111.2126953125 40.85 110.45 39.922265625 111.1025390625 39.15 111.8
M 37.35 113.75
Q 37.2970703125 113.8267578125 37.25 113.85 37.029296875 114.1787109375 36.8 114.5 37.072265625 114.13203125 37.35 113.75
M 51.2 138.4
L 51.2 138.3 48.45 136.9 51.2 138.4
M 54.75 139
Q 54.4365234375 139.258984375 54.1 139.5 58.35 136.75 61.4 132.1 58.721875 136.025 54.75 139
M 42.85 109.15
Q 44.304296875 108.3744140625 47.65 101.25 43.342578125 108.791796875 42.85 109.15
M 60.3 93.8
Q 58.1044921875 93.4435546875 56.2 93.75
L 54.5 95.85
Q 51.2 100.35 49.7 105.05 48.05 110.95 50.4 116.6 49.718359375 116.5564453125 49.05 116.8 49.41171875 116.683203125 49.75 116.65 50.762890625 116.5578125 51.75 117.15 54.1 118.5 53.15 121.4 53.1162109375 121.4921875 53.05 121.6
L 56.35 125.4
Q 57.6298828125 124.269921875 59.3 124.7 61.65 125.25 62.05 127.85 62.2828125 128.9884765625 62.1 130.05 64.130859375 131.56171875 66.6 132.5 66.4384765625 132.5984375 66.3 132.7 66.9970703125 132.2962890625 67.95 132.1 70.4984375 131.98046875 71 134.65
L 71 134.45 72.25 134.85
Q 77.5783203125 136.493359375 83.45 136.2 82.072265625 134.454296875 81.7 131.95 81.15 129.5 81.55 124.25 79.65 125.8 77.05 125.8 71.7 125.8 70.85 123.3 70.45 122.05 72.1 120.7 73.45 119.45 74.85 119.2 77.858203125 118.971484375 80.35 119.95 81.1228515625 120.2708984375 81.85 120.7 82.29921875 117.66796875 82 114.7 81.8087890625 112.75703125 81.25 110.8 81.205078125 110.57265625 81.1 110.3 80.346875 107.72109375 78.95 105.2 77.3 109.45 73.85 112.05 72.65 112.85 71.25 112.6 69.9 112.2 69.05 111.1
L 69.05 110.95
Q 67.7 108.5 70.7 106 74.15 103.55 77.05 102.7 73.3 98.75 68.1 96.4
L 67.2 96.05 63.55 94.6 64 96.55 63.9 99.55 63.85 100.65
Q 63.7 102.55 62.9 106.15 60.95 113.55 58.35 113.95 55.6 114.25 54.9 111.35 54.4 109.15 55.2 106.55 55.55546875 105.016015625 56 103.45 56.8234375 100.80390625 57.95 98.05 58.35 96.95 60.3 93.8
M 118.15 70.7
Q 117.8736328125 71.2513671875 117.6 71.75 117.8140625 71.3861328125 118 70.95 118.0962890625 70.8330078125 118.15 70.7
M 101.3 55.55
Q 103.3478515625 55.7060546875 106.4 56.15 103.73046875 55.5271484375 99.95 55.45 100.5669921875 55.4822265625 101.3 55.55
M 108.4 19.7
Q 107.6279296875 19.96796875 106.85 20.3
L 106.35 20.6
Q 106.658203125 20.448828125 106.95 20.3 107.671875 19.971875 108.4 19.7
M 104.5 21.85
L 104.2 19.75
Q 102.8541015625 11.1263671875 98.3 3.35 96.870703125 6.42265625 93.8 8.8 90.65 11.1 83.2 14.15 86.5 15.8 88.3 19.35 91.85 26.9 89.1 29.5 87.6 31.05 84.6 29.8 81.95 28.85 80.75 27.05 77.85 21.95 78 16.2 71.25 19.1 67.3 21.85 61.65 25.7 58.5 31.05 60.85 31.15 65.1 31.15 68.95 31.45 71.55 33.25 73.45 34.35 74 36.5 74.55 38.6 73.45 40.5
L 73.2 40.8
Q 72.1 42.45 69.5 42.55 67.4 42.7 65.35 41.75 60.3 39.15 56.3 35.45 53.4 43.55 53.85 52.05 54.1 57 54.5 59.45
L 56.85 57.65
Q 59.85 55.9 62.75 54.8 66.3 53.55 71 52.6 75.95 51.35 78.25 51.2 83.2 50.95 84.85 53.4 87.2 57 83.75 59.85 81 62.2 76.9 62.9 70.15 64.55 63.15 64.95 61.0775390625 64.8244140625 59.4 64.75 57.1115234375 64.65 55.6 64.65 56.6271484375 67.9453125 58.35 70.35
L 62.5 71.25
Q 71 72.65 78.55 71.4 87.9 69.9 94.05 62.6 94.9693359375 64.865625 97.95 65.85 97.4283203125 65.6837890625 96.95 65.45 93.5033203125 63.84140625 93.8 60.15 94.2 56 98.75 55.45 98.8720703125 55.4443359375 99 55.45 100.5 52.75 101.2 50.8
L 102.15 48.2
Q 105.2 49.15 108.6 48.75 100.25 49.3 99 44.65 98.2 41.05 101.45 38.7 102.8939453125 37.6046875 104.5 37.1 105.05 33.752734375 105.05 29.25 108.2 31.3 111.5 29.95 109.3 30.75 107.1 30.05 104.75 29.4 103.4 27.6 102 25.4 103.4 23.35 104.0705078125 22.252734375 105.25 21.35
L 104.5 21.85 Z"/>

<path fill="#66AC5A" stroke="none" d="
M 119.85 145.95
Q 119.1798828125 144.85078125 117.95 144.15 117.8837890625 144.1552734375 117.8 144.1 117.3046875 143.84609375 116.7 143.65 111.65 142.1 111.35 141.85 111.9 142.4 115.9 143.5 118.7693359375 144.26796875 119.85 145.95
M 108.45 146.2
Q 108.515625 146.5912109375 108.35 147.05 107.87265625 148.3796875 106.05 148
L 106.4 148.15 105.3 149.4 104.8 150.15
Q 105.45 150.616796875 105.45 151.45 105.45 152.7 104.2 153.25 103.6673828125 153.47421875 103.1 153.45
L 102.45 155.85
Q 102.3826171875 155.7826171875 102.3 155.7 102.578125 156.04765625 102.7 156.55 103.183984375 157.7376953125 101.55 158.3
L 101.9 158.2 101.9 158.85
Q 101.6044921875 161.707421875 102.4 164.4 103.9689453125 162.9634765625 107.95 162.3 106.95 161.35 106.85 160.25 106.4 157.5 107.4 156.95 107.95 156.55 108.75 157.2 109.326953125 157.6533203125 109.6 158.2 109.6560546875 158.326953125 109.7 158.45 110.25 159.95 109.85 162.05 113.3669921875 161.690234375 115.8 159.95 116.448046875 159.521875 117 159 116.08671875 158.84453125 115.3 158.55 114.0669921875 158.055859375 113.15 157.2 112.05 156.1 113.15 154.9
L 113.15 154.75
Q 114.65 153.95 115.75 155 116.1498046875 155.3578125 116.6 155.9 117.2892578125 156.649609375 118.1 157.75 118.645703125 156.949609375 119.05 156.05 119.8001953125 154.567578125 120.15 152.85
L 120.55 150.5 119.6 150.75
Q 118.75 151.2 117.7 151.2 117.309375 151.2390625 116.8 151.25 116.0166015625 151.3 114.95 151.3 114.3123046875 151.3 113.75 151.25 113.0091796875 151.1970703125 112.45 151.05 110.95 150.75 110.65 149.95 110.25 148.55 111.5 148 112.6 147.45 113.85 147.6
L 114.55 147.65 116.2 147.8 118.35 148 120.7 148.7
Q 120.6181640625 147.6490234375 120.3 146.8
L 119.05 146.1
Q 116.6 145 113.95 144.85 111.1 144.45 108.5 146.35 108.489453125 146.2728515625 108.45 146.2
M 85 134.95
Q 85.121875 135.2275390625 85.25 135.45 85.3798828125 135.72109375 85.5 135.95 85.2541015625 135.472265625 85 134.95
M 85.05 127.45
Q 83.7435546875 127.482421875 82.5 127.15 84.624609375 127.7787109375 86.35 127.4 85.690625 127.4806640625 85.05 127.45
M 113.95 101.7
Q 118.56796875 103.44609375 119.85 106.95
L 117.7 105.85
Q 113.4 103.95 109 103.55 103.55 103.1 99.3 106.15 99.1875 104.6875 97.2 103.55 99.9158203125 105.20234375 99.15 107.5 98.3 109.7 95.85 109.45 95.691015625 109.4119140625 95.5 109.35
L 92.8 112.85
Q 91.45 111.9 89.55 111.65 94.05 112.6 94.05 115.2 94.05 117.25 92 118.1 90.895703125 118.477734375 89.75 118.45
L 90.1 118.5 88.7 122.65
Q 89.1259765625 123.16484375 89.4 123.85 89.829296875 125.9962890625 87.7 126.95
L 87.9 126.9 87.75 127.95
Q 87.35 132.65 88.7 137.85 89.9919921875 136.3533203125 92 135.55 94.05 134.7 98.45 134 96.8 132.65 96.4 130.45 95.55 126.05 97.35 124.8 98.45 124.15 99.8 125.25 101.05 126.2 101.6 127.4 101.6126953125 127.4455078125 101.6 127.5 102.4373046875 130.4970703125 101.6 133.6 107.753125 133.2484375 112.85 129.5 113.5666015625 128.9806640625 114.25 128.4 113.651953125 128.2869140625 113.05 128.1 110.05703125 127.3041015625 107.5 125.25 106.55 124.4 106.55 123.15 106.55 121.95 107.5 121.1
L 107.65 120.95
Q 110.1 119.6 112.05 121.5 112.991015625 122.4025390625 113.8 123.3 115.0953125 124.7525390625 116.05 126.2 118.65 122.35 119.75 117.55
L 120.4 113.3 118.9 113.95 115.35 114.8
Q 115.29140625 114.805859375 115.2 114.8 112.79609375 115.044140625 110.55 114.8 104.583984375 114.8 103.25 112.95 103.09296875 112.723046875 103 112.45 102.4671875 110.661328125 103.7 109.6 104.088671875 109.2626953125 104.65 109 106.4 108.2 108.75 108.35 112.665625 108.5947265625 116.3 109.1 116.3720703125 109.1384765625 116.45 109.15
L 120.55 110.4
Q 120.386328125 105.9791015625 117.4 103.55 116.0181640625 102.421484375 113.95 101.7
M 135.4 108.9
Q 131 109.1 127 106.7 130.9751953125 109.2263671875 135.4 109 137.5912109375 108.8720703125 139.8 108.05 137.6029296875 108.8056640625 135.4 108.9
M 75.05 184.8
Q 75.562109375 185.012109375 76.05 185.15 81.90625 187.087109375 87.35 187.45 80.9330078125 186.8470703125 75.05 184.8
M 79.35 141.3
Q 75.4 143.5 71.95 146.9 68.1 151.05 67.85 156.55 67.8181640625 156.5373046875 67.75 156.5 68.3625 156.86796875 68.8 157.5 70.7 160.65 64.25 163.8 65.9 163.15 67.95 161.6
L 69.05 166
Q 67.4 166.55 65.9 168.05 69.5 164.75 71.8 166.55 73.45 167.95 72.75 170.25 72.428515625 171.2146484375 71.85 172
L 74.3 175.8
Q 74.7140625 175.7912109375 75.1 175.85 75.45390625 175.9306640625 75.8 176.05 77.8208984375 176.905078125 77.2 179.2
L 78.15 180
Q 81.95 183.6 86.65 185.65
L 86.75 185.95
Q 86.198828125 183.862109375 86.9 181.5 87.1154296875 180.6576171875 87.6 179.5 88.4294921875 177.7240234375 89.95 175.2 88.605078125 175.44453125 87.3 175.15 86.4966796875 175.019140625 85.7 174.65 81.45 172.05 81.7 170.15 81.85 168.9 83.75 168.5 85.25 167.95 86.5 168.35 86.6923828125 168.4287109375 86.85 168.5 89.9048828125 169.8603515625 91.6 172.45 95.85 166 95.45 158.75 92.4 161.6 88.55 162.15 87.426171875 162.4310546875 86.45 161.7 86.4134765625 161.65390625 86.35 161.6 85.4 160.8 85.15 159.55
L 85.15 159.3
Q 85.15 158.2083984375 86.2 157.2
L 86.25 157.2
Q 87.2 156.4 88.45 156.1 91.85 155.45 94.9 155.85 93.5 151.3 90.2 147.35
L 87.35 144.05 86.8 145.7
Q 86.4126953125 146.862109375 85.75 148.05 85.4751953125 148.5826171875 85.15 149.1 83.2 151.85 82.1 153.1 79.65 155.7 79.1 156.25 76.9 158.2 75.25 157.5 72.9 156.65 73.6 154.05 74 152 75.65 150.35 77.85 147.6 81.3 144.45
L 85 142
Q 82.820703125 140.4271484375 80.6 140.05 81.161328125 140.1603515625 81.7 140.35
L 79.35 141.3
M 72.25 142.8
Q 73.9203125 141.476953125 75.5 140.75 74.4083984375 141.226953125 73.3 142 65.5341796875 147.323828125 64.65 147.45 66.2697265625 147.29765625 72.25 142.8
M 34.15 57.5
Q 33.40625 59.20625 31.7 60.3 29.65 61.65 27.45 61.4 25.15 60.85 24.45 58.5 23.983984375 56.848046875 24.4 54.8 24.15 55.9125 24.15 56.85
L 22.5 55.75
Q 15.5 51.35 7 49.45 8.2134765625 52.4498046875 7.85 56.15 7.55 59.75 4.95 67 8.65 65.75 12.1 66.75 14.7 67.55 16.75 68.8 19.65 70.7 19.75 72.65 19.9 74.7 17.15 76.05 14.7 77.3 12.65 77.05 7 75.95 3.15 72.1 0.8 78.8 0.25 83.35 -0.55 89.8 1.25 95.45 4.1 92.25 5.65 90.75 8.25 88.45 11.1 87.6 13.05 87.05 14.95 87.9 16.9 88.85 17.6 90.75
L 17.6 91.15
Q 18 93.1 16.5 95 15.25 96.55 13.3 97.5 7.95 99.55 3 99.7 6.6 106.7 13.2 112.2 16.5 114.95 18.95 116.45 18.95 114.5 19.2 113.55 19.9 110.4 20.85 107.65 22.25 104.1 24.45 100.35 27.75 95 28.3 94.35 31.3 90.65 34.05 91.05 38.05 91.7 37.9 96 37.75 99.4 35.7 102.7 32.55 108.35 28.4 113.85
L 23.35 118.9
Q 26.29140625 120.293359375 29.05 120.6
L 32.4 118.35
Q 35.00390625 116.22890625 37.25 113.85 37.2970703125 113.8267578125 37.35 113.75 38.185546875 112.9087890625 38.95 112 39.0607421875 111.90390625 39.15 111.8 41.156640625 109.480078125 42.85 106.95 47.65 99.15 46.4 90.35 46.6470703125 90.4435546875 46.9 90.5 45.676953125 90.142578125 44.65 89 41.9 86.1 44.35 82.4 44.456640625 82.2458984375 44.55 82.05 43.0876953125 78.5287109375 42.55 77.6
L 41.35 75.4
Q 44.1 73.75 45.85 71.15 41.05 77.45 36.8 75.25 33.8 73.6 34.2 69.75 34.4025390625 68.003125 35.1 66.55 32.2298828125 63.4330078125 29.65 61.25 32.9748046875 60.4650390625 34.15 57.5
M 27.55 47.35
Q 28.25625 47.503125 28.95 47.65 27.21328125 49.068359375 26 51 27.226171875 49.1263671875 29.1 47.65 28.330078125 47.4921875 27.55 47.35
M 152.95 97.75
Q 154.86953125 95.4673828125 156.55 92.75 154.875 95.3 152.95 97.65 152.198828125 95.849609375 151.2 94.25 152.1890625 95.901953125 152.95 97.75
M 104.5 91.7
Q 105.0212890625 91.9248046875 105.6 92.15 100.2197265625 89.8001953125 97.45 86.3 99.9515625 89.5830078125 104.5 91.7
M 94.35 93.9
Q 97.112109375 93.38046875 99.85 94.75 94.58515625 91.9017578125 89.45 96.2 91.8314453125 94.3248046875 94.35 93.9
M 137.15 40.25
Q 139.5 43 139.9 46.7 139.9 54.8 136.9 56 135 56.85 132.9 54.65 131 52.85 130.45 50.8 129.6 45.3 131.7 40.25 127.0248046875 40.3302734375 123.05 41 123.0576171875 41.058984375 123.05 41.1
L 123.05 41.15 123.15 41.75
Q 122.6115234375 41.4537109375 122.05 41.15 114.3130859375 42.6322265625 109.3 46.4 110.665625 47.0828125 113.05 48.05 114.7421875 47.771484375 116.85 47.35
L 123.45 46.4
Q 123.7 48.75 123.45 51.2 122.75 57.8 120.95 63.7 119.3646484375 62.1013671875 117.6 60.8 116.40703125 61.112890625 114.95 60.55 113 59.85 111.5 58.35 110.9939453125 57.7826171875 110.5 57.15 108.53359375 56.5244140625 106.4 56.15 103.3478515625 55.7060546875 101.3 55.55 99.099609375 59.23515625 97.65 63.45
L 96.95 65.45
Q 97.4283203125 65.6837890625 97.95 65.85
L 101.6 66.6
Q 110.95 67.3 119.05 68.8 118.978515625 68.961328125 118.9 69.1
L 118.15 70.7
Q 118.0962890625 70.8330078125 118 70.95 118.8744140625 71.187890625 119.45 71.4 124 72.9 124.55 75.65 125.35 79.65 121.25 81 117.95 82.1 114.1 81.3 112.1091796875 80.9875 110 80.5 109.71796875 80.7244140625 109.4 80.9
L 108.35 81.45
Q 108.289453125 81.507421875 108.2 81.55 102.46875 84.1203125 95.4 81.45 97.3248046875 82.869921875 98.45 83.5 104.75 87.45 112.6 89.4 121.65 91.3 129.5 87.05 129.5 90.75 134.85 93.35 127.85 89.55 130.15 84.85 131.95 81.3 136.2 82.5 138.25 83.05 142.8 85.8 140.05 83.9 136.5 82.5
L 140.05 79.1
Q 140.75 78.55 141.85 77.15 144.2 79.1 147.35 79.9 139.8 77.45 140.35 72.9 140.75 69.5 144.6 68.5 146.3060546875 68.086328125 147.95 68.25
L 151.2 61.4
Q 152.7287109375 63.5251953125 155 64.05 153.7724609375 63.72734375 152.7 62.9 150.9 61.5 150.2 59.3 149.95 57 151.85 55.45 152.6033203125 54.9396484375 153.6 54.6
L 153.4 54.65 153.8 52.75
Q 155.55 44.9 154.45 36 155.7 35 156.55 33.5 153.8 37.6 148.45 39.15 144.85 40.1 137.15 40.25
M 164.2 61.85
Q 164.2037109375 61.836328125 164.2 61.8 160.1 63.7 156.65 64.25 160.5728515625 63.710546875 164.2 61.85
M 163.65 56
Q 163.5298828125 55.2384765625 163.35 54.45 163.5056640625 55.2283203125 163.6 55.95
L 163.65 56 Z"/>

<path fill="#0E4996" stroke="none" d="
M 76.6 193.05
L 63.65 193.05 49.25 193.05 34.9 193.05 35.35 220.3
Q 49.469921875 220.118359375 65.7 219.45 95.39140625 218.22734375 116.75 215.75 118.36484375 205.11328125 118.9 193.05
L 116.3 193.05 107.55 193.05 98.4 193.05 88.75 193.05 76.6 193.05 Z"/>
</g>

<g id="Layer6_0_FILL">
<path fill="#1F2F35" stroke="none" d="
M 949.7 169
Q 947 169 944.9 171.05 943 172.95 943 175.85 943 178.25 944.45 180.1 944.65 180.35 944.9 180.65 947 182.7 949.7 182.7 952.6 182.7 954.65 180.65 956.6 178.6 956.6 175.85 956.6 172.95 954.65 171.05 952.9 169.3 950.5 169.05 950.1 169 949.7 169
M 1078.35 169.05
Q 1077.95 169 1077.55 169 1074.8 169 1072.75 171.05 1070.7 172.95 1070.7 175.85 1070.7 178.25 1072.25 180.1 1072.5 180.4 1072.75 180.65 1074.8 182.7 1077.55 182.7 1080.45 182.7 1082.5 180.65 1084.4 178.6 1084.4 175.85 1084.4 172.95 1082.5 171.05 1080.75 169.3 1078.35 169.05
M 1050.5 171.05
Q 1048.7 169.25 1046.35 169.05 1046.05 169 1045.7 169
L 1045.55 169
Q 1042.8 169 1040.75 171.05 1038.85 172.95 1038.85 175.85 1038.85 178.2 1040.35 180 1040.6 180.35 1040.9 180.65 1042.8 182.7 1045.7 182.7 1048.45 182.7 1050.5 180.65 1052.45 178.6 1052.45 175.85 1052.45 172.95 1050.5 171.05
M 1006.85 175.85
Q 1006.85 178.2 1008.4 180.1 1008.6 180.35 1008.9 180.65 1010.8 182.7 1013.7 182.7 1016.45 182.7 1018.5 180.65 1020.55 178.6 1020.55 175.85 1020.55 172.95 1018.5 171.05 1016.7 169.25 1014.35 169.05 1014.05 169 1013.7 169 1010.8 169 1008.9 171.05 1006.85 172.95 1006.85 175.85
M 981.7 169
Q 978.95 169 976.9 171.05 974.85 172.95 974.85 175.85 974.85 178.2 976.4 180.1 976.6 180.35 976.9 180.65 978.95 182.7 981.7 182.7 984.6 182.7 986.65 180.65 988.6 178.6 988.6 175.85 988.6 172.95 986.65 171.05 984.85 169.25 982.35 169.05 982.05 169 981.7 169 Z"/>

<path fill="#FFFFFF" stroke="none" d="
M 958.9 147.25
L 958.9 102.1 940.65 102.1 940.65 158.4 955.15 158.4 958.9 158.4 958.9 147.25
M 1086.6 147.65
L 1086.6 102.1 1068.5 102.1 1068.5 158.4 1082.95 158.4 1086.6 158.4 1086.6 147.65
M 1036.5 158.4
L 1050.95 158.4 1054.75 158.4 1054.75 147.15 1054.75 102.1 1036.5 102.1 1036.5 158.4
M 990.8 147.05
L 990.8 102.1 972.65 102.1 972.65 158.4 987 158.4 990.8 158.4 990.8 147.05
M 1022.75 147.15
L 1022.75 102.1 1004.65 102.1 1004.65 158.4 1018.95 158.4 1022.75 158.4 1022.75 147.15 Z"/>

<path fill="#C94039" stroke="none" d="
M 965.8 100.2
Q 965.2 125.8 958.9 147.25
L 958.9 158.4 955.15 158.4
Q 953 163.85 950.5 169.05 952.9 169.3 954.65 171.05 956.6 172.95 956.6 175.85 956.6 178.6 954.65 180.65 952.6 182.7 949.7 182.7 947 182.7 944.9 180.65 944.65 180.35 944.45 180.1 939.1 188.75 933.8 193.55
L 965.8 193.55 965.8 100.2 Z"/>

<path fill="#E84F40" stroke="none" d="
M 965.8 94.7
L 933.8 94.7 933.8 193.45 933.8 193.55
Q 939.1 188.75 944.45 180.1 943 178.25 943 175.85 943 172.95 944.9 171.05 947 169 949.7 169 950.1 169 950.5 169.05 953 163.85 955.15 158.4
L 940.65 158.4 940.65 102.1 958.9 102.1 958.9 147.25
Q 965.2 125.8 965.8 100.2
L 965.8 94.7 Z"/>

<path fill="#314854" stroke="none" d="
M 1086.6 158.4
L 1082.95 158.4
Q 1080.85 163.85 1078.35 169.05 1080.75 169.3 1082.5 171.05 1084.4 172.95 1084.4 175.85 1084.4 178.6 1082.5 180.65 1080.45 182.7 1077.55 182.7 1074.8 182.7 1072.75 180.65 1072.5 180.4 1072.25 180.1 1066.9 188.75 1061.65 193.55
L 1093.6 193.55 1093.6 193.45 1093.6 100.2
Q 1093 126 1086.6 147.65
L 1086.6 158.4
M 997.65 100.2
Q 997.05 125.7 990.8 147.05
L 990.8 158.4 987 158.4
Q 984.85 163.85 982.35 169.05 984.85 169.25 986.65 171.05 988.6 172.95 988.6 175.85 988.6 178.6 986.65 180.65 984.6 182.7 981.7 182.7 978.95 182.7 976.9 180.65 976.6 180.35 976.4 180.1 971.1 188.75 965.8 193.55
L 997.65 193.55 997.65 100.2 Z"/>

<path fill="#F9D05E" stroke="none" d="
M 1046.35 169.05
Q 1048.85 163.85 1050.95 158.4
L 1036.5 158.4 1036.5 102.1 1054.75 102.1 1054.75 147.15
Q 1061 125.75 1061.65 100.2
L 1061.65 94.7 1029.65 94.7 1029.65 100.2 1029.65 193.55
Q 1034.95 188.7 1040.35 180 1038.85 178.2 1038.85 175.85 1038.85 172.95 1040.75 171.05 1042.8 169 1045.55 169
L 1045.7 169
Q 1046.05 169 1046.35 169.05 Z"/>

<path fill="#E8BB4B" stroke="none" d="
M 1050.95 158.4
Q 1048.85 163.85 1046.35 169.05 1048.7 169.25 1050.5 171.05 1052.45 172.95 1052.45 175.85 1052.45 178.6 1050.5 180.65 1048.45 182.7 1045.7 182.7 1042.8 182.7 1040.9 180.65 1040.6 180.35 1040.35 180 1034.95 188.7 1029.65 193.55
L 1061.65 193.55 1061.65 100.2
Q 1061 125.75 1054.75 147.15
L 1054.75 158.4 1050.95 158.4 Z"/>

<path fill="#77A5B7" stroke="none" d="
M 997.8 193.55
L 997.65 193.55 965.8 193.55 933.8 193.55 933.8 193.45 899.8 193.45 899.8 209.1 1202 209.1 1202 193.45 1093.6 193.45 1093.6 193.55 1061.65 193.55 1029.65 193.55 997.8 193.55 Z"/>

<path fill="#3C5665" stroke="none" d="
M 990.8 102.1
L 990.8 147.05
Q 997.05 125.7 997.65 100.2
L 997.65 94.7 965.8 94.7 965.8 100.2 965.8 193.55
Q 971.1 188.75 976.4 180.1 974.85 178.2 974.85 175.85 974.85 172.95 976.9 171.05 978.95 169 981.7 169 982.05 169 982.35 169.05 984.85 163.85 987 158.4
L 972.65 158.4 972.65 102.1 990.8 102.1
M 1093.6 94.7
L 1061.65 94.7 1061.65 100.2 1061.65 193.55
Q 1066.9 188.75 1072.25 180.1 1070.7 178.25 1070.7 175.85 1070.7 172.95 1072.75 171.05 1074.8 169 1077.55 169 1077.95 169 1078.35 169.05 1080.85 163.85 1082.95 158.4
L 1068.5 158.4 1068.5 102.1 1086.6 102.1 1086.6 147.65
Q 1093 126 1093.6 100.2
L 1093.6 94.7 Z"/>

<path fill="#898989" stroke="none" d="
M 1029.65 100.2
Q 1029 125.75 1022.75 147.15
L 1022.75 158.4 1018.95 158.4
Q 1016.85 163.85 1014.35 169.05 1016.7 169.25 1018.5 171.05 1020.55 172.95 1020.55 175.85 1020.55 178.6 1018.5 180.65 1016.45 182.7 1013.7 182.7 1010.8 182.7 1008.9 180.65 1008.6 180.35 1008.4 180.1 1003.1 188.75 997.8 193.55
L 1029.65 193.55 1029.65 100.2 Z"/>

<path fill="#A19EA0" stroke="none" d="
M 1029.65 94.7
L 997.65 94.7 997.65 100.2 997.65 193.55 997.8 193.55
Q 1003.1 188.75 1008.4 180.1 1006.85 178.2 1006.85 175.85 1006.85 172.95 1008.9 171.05 1010.8 169 1013.7 169 1014.05 169 1014.35 169.05 1016.85 163.85 1018.95 158.4
L 1004.65 158.4 1004.65 102.1 1022.75 102.1 1022.75 147.15
Q 1029 125.75 1029.65 100.2
L 1029.65 94.7 Z"/>
</g>

<g id="Layer5_0_FILL">
<path fill="#232629" stroke="none" d="
M 636.1 161.1
Q 635.45 160.9 634.85 160.75
L 636 164.25
Q 636.1 162.85 636.1 161.4 636.1 161.25 636.1 161.1
M 684.15 184.65
Q 676.15 179.7 666 174.2 651.55 166.45 641.9 162.95 642.2 163.85 642.5 164.8 642.85 165.9 643.15 167.05 645.95 177.7 643.55 187.6
L 659.55 236.95 645.7 244.25 656.8 251.25 639.9 357.4 639.9 356.45
Q 639.45 376.6 638.6 394.6 638.15 403.3 637.6 411.55 587.65 423.4 549.5 416.2 551.05 407.85 552.55 399.6 552.7 398.7 552.9 397.85 555.85 381.15 558.5 364.4
L 543.25 255.8 560.55 248.5 539.15 236.55 577.1 144.8
Q 577.05 144.15 577 143.5 576.95 142.95 576.95 142.4 561.8 144.6 531.85 155.95
L 503.55 167.5 503.55 167.75
Q 486.89375 183.8822265625 464.55 224.25 419.65 305.65 391.5 428.7
L 393.3 429.2 413.85 435.15 418.7 436.55
Q 426.95 406.75 443.15 368.85 472.2568359375 301.0083984375 507.85 260.9 503.3689453125 304.9236328125 486.95 365.2 477.6 399.15 468.95 423.7 485.6 434.95 504.8 440.2 508.35 441.15 511.95 441.9
L 484 577.45 504.95 578.2
Q 530.05 578.9 545.9 578.65
L 573.6 507.2 579 576.5
Q 588.55 576.4 603.85 575.45 612.65 574.85 630.55 573.6
L 638.1 443.35 663 439.1
Q 663 368.4361328125 663.45 323.2
L 673.2 346.65 703.8 316.75
Q 701.7099609375 310.00390625 693.35 258.95 689.9 238.15 687.7 220.95 687.3 217.65 686.9 214.45 684.9 197.75 684.15 184.65 Z"/>

<path fill="#191815" stroke="none" d="
M 635.4 168.45
Q 635.8 166.45 636 164.25
L 634.85 160.75
Q 635.1 164.45 635.4 168.45
M 625.35 396.9
Q 613.6 398.55 599.4 399.25 574.1 400.7 552.9 397.85 552.7 398.7 552.55 399.6 551.05 407.85 549.5 416.2 587.65 423.4 637.6 411.55 638.15 403.3 638.6 394.6 631.85 395.85 625.35 396.9
M 637.25 201.8
Q 637.7 211.5 638.15 222.25 641.15 295.85 639.9 356.45
L 639.9 357.4 656.8 251.25 645.7 244.25 659.55 236.95 643.55 187.6
Q 641.8 194.9 637.25 201.8
M 578.2 153.95
Q 577.5 149.5 577.1 144.8
L 539.15 236.55 560.55 248.5 543.25 255.8 558.5 364.4
Q 571.8 281.2 576.35 203.45 578 173.85 578.2 153.95 Z"/>

<path fill="#FEFAEF" stroke="none" d="
M 410.75 445.85
Q 412.25 440.55 413.85 435.15
L 393.3 429.2
Q 392.35 434.15 391.5 439.15
L 396.05 440.75 408.65 445.15 410.75 445.85
M 686.9 214.45
Q 687.3 217.65 687.7 220.95
L 687.4 214.1
Q 687.15 214.3 686.9 214.45 Z"/>

<path fill="#EFBA8F" stroke="none" d="
M 412.3 456.1
L 407.35 448.95 408.65 445.15 396.05 440.75 394.85 445.1 387.85 451.45
Q 381 459.4 381.95 467.5 383.2 477.55 394.7 479.45 406.4 481.35 411.75 472.3 416.4 464.75 412.3 456.1 Z"/>

<path fill="#FFFFFF" stroke="none" d="
M 590.95 187.8
Q 581.35 173.45 578.2 153.95 578 173.85 576.35 203.45 571.8 281.2 558.5 364.4 555.85 381.15 552.9 397.85 574.1 400.7 599.4 399.25 613.6 398.55 625.35 396.9 631.85 395.85 638.6 394.6 639.45 376.6 639.9 356.45 641.15 295.85 638.15 222.25 637.7 211.5 637.25 201.8 637 202.2 636.7 202.6
L 622.4 188.35 605.5 202.6
Q 598.25 198.5 590.95 187.8 Z"/>
</g>

<g id="bottone_0_Layer0_0_FILL">
<path fill="#FFFFFF" stroke="none" d="
M 4.4 2.2
Q 4.4 1.3 3.75 0.65 3.1 0 2.2 0 1.3 0 0.65 0.65 0 1.3 0 2.2 0 3.1 0.65 3.75 1.3 4.4 2.2 4.4 3.1 4.4 3.75 3.75 4.4 3.1 4.4 2.2 Z"/>
</g>

<g id="Layer2_0_FILL">
<path fill="#EAE9E8" stroke="none" d="
M 591.1 127.1
L 576.65 132.45
Q 576.6 137.55 576.95 142.4 576.95 142.95 577 143.5 577.05 144.15 577.1 144.8 577.5 149.5 578.2 153.95 581.35 173.45 590.95 187.8 598.25 198.5 605.5 202.6
L 622.4 188.35 636.7 202.6
Q 637 202.2 637.25 201.8 641.8 194.9 643.55 187.6 645.95 177.7 643.15 167.05 642.85 165.9 642.5 164.8 642.2 163.85 641.9 162.95 640.55 159.2 638.6 155.65
L 635.85 151.4 635.85 155.4
Q 636.1 158.4 636.1 161.1 636.1 161.25 636.1 161.4 636.1 162.85 636 164.25 635.8 166.45 635.4 168.45 634 175.1 629.95 178.85 627.75 181.05 624.85 182.05
L 622.4 182.45
Q 599.9 172.95 593.15 149.05 592.65 147.3 592.3 145.55 591.05 139.8 590.95 133.7
L 591.1 127.1 Z"/>
</g>

<g id="asddfg_0_Layer0_0_FILL">
<path fill="#1D2644" stroke="none" d="
M 108.65 153.2
Q 104 161.95 100.15 171.1
L 143 148.75 100.15 171.1
Q 94.05 185.7 90.05 201.25 85.25 220 84.9 232.35
L 105.55 256.8 121.05 236
Q 120.4 230.3 120.5 224.5
L 93.55 242.05 120.5 224.5
Q 120.55 215.9 122.15 207.05
L 86.4 226.15 122.15 207.05
Q 123.65 198.9 126.4 190.45 126.8 189.25 127.35 187.75
L 89.25 205.55 127.35 187.75
Q 129.85 180.7 135.15 168
L 94.7 187.7 135.15 168
Q 141.3 153.3 151.1 131.1
L 108.65 153.2
M 160.35 109.55
L 122.55 130.3
Q 122.2 130.85 121.8 131.4 114.55 142 108.65 153.2
L 151.1 131.1
Q 153.8 124.95 156.85 118.2 158.75 113.8 160.35 109.55
M 145.65 36.55
L 153.55 24.95
Q 151.6 21.9 149.45 19.25
L 143.2 28.45
Q 144.65 32.35 145.65 36.55
M 149.5 7.75
L 147.45 1.55 132.2 6.6 129.25 11.75 132.25 13.5 149.5 7.75
M 142.35 15.4
L 143.8 13.5 142.35 15.4 139.2 19.6
Q 141.5 23.85 143.2 28.45
L 149.45 19.25
Q 147.2419921875 16.6740234375 144.85 14.45 147.6833984375 13.198046875 150.5 10.8
L 149.5 7.75 132.25 13.5 135.2 15.25
Q 135.95 15.5 136.95 15.6 136.95 15.8 136.9 15.95
L 137.7 15.85 137.25 16.3
Q 138.3 17.95 139.2 19.6
L 142.35 15.4
M 164.9 94.15
Q 166.9 85.55 167.3 77.25
L 140.1 97.45
Q 133.8 113.7 122.55 130.3
L 160.35 109.55
Q 163.2 101.7 164.9 94.15
L 133.9 113.25 164.9 94.15
M 166.9 62.75
Q 166.2 56.3 164.55 50.15
L 147.95 66.65 164.55 50.15
Q 163.3 45.45 161.55 40.8 161.35 40.25 161.1 39.8
L 148.4 54.85 161.1 39.8
Q 159.4 35.5 157.5 31.8
L 147.7 44.2 157.5 31.8
Q 155.6 28.1 153.55 24.95
L 145.65 36.55
Q 148.6 48.4 147.8 62.25 146.95 79.7 140.1 97.45
L 167.3 77.25
Q 167.7 69.9 166.9 62.75
L 145.65 82.3 166.9 62.75
M 146.15 -2.1
L 136.2 -0.8 132.2 6.6 147.45 1.55 146.15 -2.1 Z"/>
</g>

<g id="maninanna_0_Layer0_0_FILL">
<path fill="#EFBA8F" stroke="none" d="
M 34.8 19.65
Q 33.15 10.85 24.4 7.15
L 15.85 5.2
Q 15.35 5.1 14.85 5.15
L 12.65 0 0 5 3.9 12.6 3.1 20.2
Q 3.25 30.6 9.55 35.95 17.1 42.55 27 36.25 36.85 29.95 34.8 19.65 Z"/>

<path fill="#FEFAEF" stroke="none" d="
M 14.85 -0.95
Q 13.65 -4.1 12.55 -7.2
L -6.8 -1.1
Q -4.95 2.4 -3 6.05
L 14.85 -0.95 Z"/>
</g>

<g id="aaasd_0_Layer1_0_FILL">
<path fill="#232629" stroke="none" d="
M 28.85 0
L 0 27.95 1.55 31.9 11.95 57.65 33 110.25 59.2 102
Q 52.95 83.9 43.05 50.2 34.6 21.55 28.85 0 Z"/>

<path fill="#FEFAEF" stroke="none" d="
M 1.55 31.9
L 6.05 43.7
Q 8.4 49.8 11.95 57.65
L 1.55 31.9 Z"/>
</g>

<g id="aaasd_0_Layer0_0_FILL">
<path fill="#232629" stroke="none" d="
M 22 -31.2
Q 18.5 -29.7 13.45 -27.15 3.35 -22.05 -4.4 -16.8 -12.15 -11.55 -6.85 8.75 -4.2 18.85 0 27.95
L 28.85 0 22 -31.2 Z"/>
</g>

<g id="moncherino_0_Layer1_0_FILL">
<path fill="#232629" stroke="none" d="
M 22.3 -29.95
Q 20 -40.75 19 -42.8 17.6 -45.6 -5.4 -69.8
L -11.6 -12.8
Q -10.85 -9.6 -9.7 -6.3 -7.4 0.25 -5.4 0.6 -4.05 0.85 0.95 0.05 6.5 -0.9 11.65 -2.45 26.2 -6.9 25.4 -12.6 24.45 -19.5 22.3 -29.95 Z"/>
</g>

<path id="HeadOfficer_0_Layer1_0_1_STROKES" stroke="#D38372" stroke-width="2" stroke-linejoin="miter" stroke-linecap="butt" stroke-miterlimit="10" fill="none" d="
M 52.2 65.4
L 53.6 94.5
Q 53.6 95.2 53.3 95.45
L 52.5 95.6 46.45 94.9"/>

<path id="piantala_0_Layer0_0_1_STROKES" stroke="#172F2D" stroke-width="0.75" stroke-linejoin="round" stroke-linecap="round" fill="none" d="
M 117.425 103.575
Q 118.0017578125 100.9046875 118.6 98.3
M 115.225 114.8
Q 115.7505859375 111.93359375 116.3 109.125
M 113.075 128.125
Q 113.4259765625 125.69296875 113.8 123.3
M 111.275 141.775
Q 112.0123046875 135.500390625 112.875 129.5
M 116.3 193.05
Q 117.0708984375 179.7408203125 120.025 166.65
M 49.25 193.05
Q 48.9 190.1 48.45 186.9 47.6330078125 181.0685546875 46.5 175.675
M 56.85 149.9
Q 55.9 144.698046875 54.925 139.775
M 54.775 139
Q 54.0435546875 135.4248046875 53.3 132
M 51.575 124.175
Q 50.690625 120.3111328125 49.775 116.65
M 85.075 102.15
Q 85.4216796875 88.73046875 86.5 77.4
M 85.75 148.075
Q 85.449609375 141.61328125 85.25 135.475
M 85.05 127.475
Q 84.9880859375 124.4728515625 84.95 121.55
M 59.525 165.425
Q 59.066015625 162.59921875 58.6 159.85
M 75.75 181.95
Q 75.4728515625 178.915234375 75.125 175.875
M 63.65 193.05
Q 62.9 187.6 62.05 181.8 61.4259765625 177.508984375 60.775 173.375
M 76.6 193.05
Q 76.3736328125 189.1072265625 76.05 185.175
M 43 162.45
Q 41.680859375 158.3650390625 40.125 154.575
M 103.275 112.975
Q 103.4833984375 111.2853515625 103.7 109.6
M 84.925 116.675
Q 84.9080078125 113.9048828125 84.925 111.2
M 100.175 143.875
Q 100.79140625 135.6787109375 101.625 127.5
M 107.55 193.05
Q 107.85 181.35 108.9 166.95 109.22265625 162.522265625 109.6 158.2
M 99.625 151.925
Q 99.70546875 150.5666015625 99.8 149.2
M 99.25 158.4
Q 99.315625 156.9984375 99.4 155.6
M 86.475 161.7
Q 86.3609375 159.61796875 86.25 157.5 86.241796875 157.3578125 86.225 157.225
M 88.75 193.05
Q 88.1517578125 186.4884765625 87.625 179.5
M 87.325 175.175
Q 87.0884765625 171.9009765625 86.875 168.525
M 98.4 193.05
Q 98.34609375 176.646484375 99.15 160.275
M 122.875 155.725
Q 123.8634765625 152.3841796875 125 149.05"/>

<path id="Layer4_0_1_STROKES" stroke="#EEEEEE" stroke-width="1" stroke-linejoin="miter" stroke-linecap="round" stroke-miterlimit="10" fill="none" d="
M 622.4 188.35
Q 619.05 234.75 614.95 284.3 606.8 383.4 603.25 399"/>

<path id="bottone_0_Layer0_0_1_STROKES" stroke="#CCCCCC" stroke-width="1" stroke-linejoin="miter" stroke-linecap="round" stroke-miterlimit="10" fill="none" d="
M 4.4 2.2
Q 4.4 3.1 3.75 3.75 3.1 4.4 2.2 4.4 1.3 4.4 0.65 3.75 0 3.1 0 2.2 0 1.3 0.65 0.65 1.3 0 2.2 0 3.1 0 3.75 0.65 4.4 1.3 4.4 2.2 Z"/>

<path id="asddfg_0_Layer0_0_1_STROKES" stroke="#F17B00" stroke-width="2" stroke-linejoin="miter" stroke-linecap="round" stroke-miterlimit="10" fill="none" d="
M 164.55 50.15
L 164.85 49.85
M 164.9 94.15
L 165.75 93.65
M 147.95 66.65
L 164.55 50.15
M 133.9 113.25
L 164.9 94.15
M 132.25 13.5
L 149.5 7.75
M 145.65 36.55
L 153.55 24.95
M 100.15 171.1
L 143 148.75
M 122.5 206.85
L 122.15 207.05 86.4 226.15"/>

<path id="asddfg_0_Layer0_0_2_STROKES" stroke="#B0B7D1" stroke-width="2" stroke-linejoin="miter" stroke-linecap="round" stroke-miterlimit="10" fill="none" d="
M 167.45 62.25
L 166.9 62.75 145.65 82.3
M 122.55 130.3
L 160.35 109.55
M 147.7 44.2
L 157.5 31.8
M 135.65 167.7
L 135.15 168 94.7 187.7
M 93.55 242.05
L 120.5 224.5"/>

<path id="asddfg_0_Layer0_0_3_STROKES" stroke="#267C28" stroke-width="2" stroke-linejoin="miter" stroke-linecap="round" stroke-miterlimit="10" fill="none" d="
M 132.2 6.6
L 147.45 1.55
M 167.95 76.7
L 167.3 77.25 140.1 97.45
M 143.2 28.45
L 149.45 19.25
M 148.4 54.85
L 161.1 39.8
M 108.65 153.2
L 151.1 131.1
M 89.25 205.55
L 127.35 187.75"/>

<path id="asddfg_0_Layer0_0_4_STROKES" stroke="#C6E2ED" stroke-width="2" stroke-linejoin="miter" stroke-linecap="round" stroke-miterlimit="10" fill="none" d="
M 139.2 19.6
L 142.375 15.4 143.8 13.5"/>
</defs>

<g transform="matrix( 1, 0, 0, 1, 0,0) ">
<use xlink:href="#Layer13_0_FILL"/>
</g>

<g transform="matrix( 1, 0, 0, 1, 0,0) ">
<use xlink:href="#Layer12_0_FILL"/>
</g>

<g transform="matrix( 1, 0, 0, 1, 282.4,452.9) ">
<g transform="matrix( 1, 0, 0, 1, 0,0) ">
<g transform="matrix( 1, 0, 0, 1, 0,0) ">
<use xlink:href="#hgfdff_0_Layer0_0_FILL"/>
</g>
</g>
</g>

<g transform="matrix( 1, 0, 0, 1, 567.25,1.55) ">
<g transform="matrix( 1, 0, 0, 1, 0,0) ">
<use xlink:href="#HeadOfficer_0_Layer1_0_FILL"/>

<use xlink:href="#HeadOfficer_0_Layer1_0_1_STROKES"/>
</g>

<g transform="matrix( 0.83331298828125, 0, 0, 0.83331298828125, 71,67.95) ">
<g transform="matrix( 1, 0, 0, 1, 0,0) ">
<use filter="url(#Filter_1)" xlink:href="#occhiolino_0_Layer1_0_FILL"/>
</g>

<g transform="matrix( 1, 0, 0, 1, 0,0) ">
<use filter="url(#Filter_1)" xlink:href="#occhiolino_0_Layer0_0_FILL"/>
</g>
</g>
</g>

<g transform="matrix( 1, 0, 0, 1, 796.05,348.85) ">
<g transform="matrix( 1, 0, 0, 1, 0,0) ">
<use filter="url(#Filter_2)" xlink:href="#piantala_0_Layer0_0_FILL"/>

<use filter="url(#Filter_2)" xlink:href="#piantala_0_Layer0_0_1_STROKES"/>
</g>
</g>

<g transform="matrix( 1, 0, 0, 1, 0,0) ">
<use xlink:href="#Layer6_0_FILL"/>
</g>

<g transform="matrix( 1, 0, 0, 1, 0,0) ">
<use xlink:href="#Layer5_0_FILL"/>
</g>

<g transform="matrix( 1, 0, 0, 1, 0,0) ">
<use xlink:href="#Layer4_0_1_STROKES"/>
</g>

<g transform="matrix( 1, 0, 0, 1, 617.6,221.9) ">
<g transform="matrix( 1, 0, 0, 1, 0,0) ">
<use xlink:href="#bottone_0_Layer0_0_FILL"/>

<use xlink:href="#bottone_0_Layer0_0_1_STROKES"/>
</g>
</g>

<g transform="matrix( 1, 0, 0, 1, 615,254.6) ">
<g transform="matrix( 1, 0, 0, 1, 0,0) ">
<use xlink:href="#bottone_0_Layer0_0_FILL"/>

<use xlink:href="#bottone_0_Layer0_0_1_STROKES"/>
</g>
</g>

<g transform="matrix( 1, 0, 0, 1, 613.2,282) ">
<g transform="matrix( 1, 0, 0, 1, 0,0) ">
<use xlink:href="#bottone_0_Layer0_0_FILL"/>

<use xlink:href="#bottone_0_Layer0_0_1_STROKES"/>
</g>
</g>

<g transform="matrix( 1, 0, 0, 1, 610.6,311.3) ">
<g transform="matrix( 1, 0, 0, 1, 0,0) ">
<use xlink:href="#bottone_0_Layer0_0_FILL"/>

<use xlink:href="#bottone_0_Layer0_0_1_STROKES"/>
</g>
</g>

<g transform="matrix( 1, 0, 0, 1, 607.75,339.05) ">
<g transform="matrix( 1, 0, 0, 1, 0,0) ">
<use xlink:href="#bottone_0_Layer0_0_FILL"/>

<use xlink:href="#bottone_0_Layer0_0_1_STROKES"/>
</g>
</g>

<g transform="matrix( 1, 0, 0, 1, 604.6,370.85) ">
<g transform="matrix( 1, 0, 0, 1, 0,0) ">
<use xlink:href="#bottone_0_Layer0_0_FILL"/>

<use xlink:href="#bottone_0_Layer0_0_1_STROKES"/>
</g>
</g>

<g transform="matrix( 1, 0, 0, 1, 0,0) ">
<use xlink:href="#Layer2_0_FILL"/>
</g>

<g transform="matrix( 1, 0, 0, 1, 437.35,188.45) ">
<g transform="matrix( 0.61981201171875, -0.0433502197265625, 0.0696868896484375, 0.996429443359375, 97.25,3.6) ">
<g transform="matrix( 1, 0, 0, 1, 0,0) ">
<use xlink:href="#asddfg_0_Layer0_0_FILL"/>

<use xlink:href="#asddfg_0_Layer0_0_1_STROKES"/>

<use xlink:href="#asddfg_0_Layer0_0_2_STROKES"/>

<use xlink:href="#asddfg_0_Layer0_0_3_STROKES"/>

<use xlink:href="#asddfg_0_Layer0_0_4_STROKES"/>
</g>
</g>
</g>

<g transform="matrix( 1, 0, 0, 1, 683.4,356.2) ">
<g transform="matrix( 1, 0, 0, 1, 37.3,84.65) ">
<g transform="matrix( 1, 0, 0, 1, 0,0) ">
<use xlink:href="#maninanna_0_Layer0_0_FILL"/>
</g>
</g>

<g transform="matrix( 1, 0, 0, 1, -6.05,-25.6) ">
<g transform="matrix( 1, 0, 0, 1, 0,0) ">
<use xlink:href="#aaasd_0_Layer1_0_FILL"/>
</g>

<g transform="matrix( 1, 0, 0, 1, 0,0) ">
<use xlink:href="#aaasd_0_Layer0_0_FILL"/>
</g>
</g>

<g transform="matrix( 1, 0, 0, 1, 0,0) ">
<use xlink:href="#moncherino_0_Layer1_0_FILL"/>
</g>
</g>
</svg>
