
<svg xmlns="http://www.w3.org/2000/svg" version="1.1" xmlns:xlink="http://www.w3.org/1999/xlink" preserveAspectRatio="none" x="0px" y="0px" width="1280px" height="686px" viewBox="0 0 1280 686">
<defs>
<filter id="Filter_1" x="-20%" y="-20%" width="140%" height="140%" color-interpolation-filters="sRGB">
<feColorMatrix in="SourceGraphic" type="matrix" values="1 0 0 0 0 0 1 0 0 0 0 0 1 0 0 0 0 0 0.83 0" result="result1"/>
</filter>

<filter id="Filter_2" x="-20%" y="-20%" width="140%" height="140%" color-interpolation-filters="sRGB">
<feColorMatrix in="SourceGraphic" type="matrix" values="1 0 0 0 0 0 1 0 0 0 0 0 1 0 0 0 0 0 0.57 0" result="result1"/>
</filter>

<g id="valuta_casa_big_svg_Layer_1_Tracciato_1798_0_Layer0_0_FILL">
<path fill="#D9E6F2" stroke="none" d="
M 390.25 185.95
Q 428.75 148.8 408.6 112.25 384.45 68.45 277.65 30.45 219.6 9.8 181.05 3.35 141.85 -3.2 113.5 3.3 86.45 9.5 62.7 29.25 42.45 46.1 16.55 80.2 -5.9 109.8 2.15 133.25 9.05 153.4 38.15 168.15 62.45 180.5 99.85 188.05 130.5 194.25 162.5 195.95 180.45 196.9 222.6 202.25 265.45 207.65 286.8 208.9 322.15 211 345.8 206.6 374.4 201.25 390.25 185.95 Z"/>
</g>

<g id="valuta_casa_big_svg_Layer_1_Tracciato_3387_0_Layer0_0_FILL">
<path fill="#EBF3FA" stroke="none" d="
M 357.7 158.4
Q 384.15 146.35 395.85 127.65 424.15 82.25 395.75 51.65 361.75 15.05 248.9 4 187.6 -2 148.65 1.05 109 4.15 83.05 17.35 58.3 29.9 40.05 54.8 24.45 76.05 7.6 115.4 -7 149.55 6.45 170.35 18.05 188.25 49.85 195.55 76.4 201.6 114.55 199.9 145.8 198.5 177.25 192.45 194.95 189.05 237.05 184 280 178.85 301 174.9 335.8 168.4 357.7 158.4 Z"/>
</g>

<g id="Mask_valuta_casa_big_svg_Layer_1__Clip_Group__2_0_2_MASK_0_FILL">
<path fill="#FFFFFF" stroke="none" d="
M 405.7 185.95
Q 444.2 148.8 424.05 112.25 399.9 68.45 293.1 30.45 235.05 9.8 196.5 3.35 157.3 -3.2 128.95 3.3 101.9 9.5 78.15 29.25 57.9 46.1 32 80.2 9.55 109.8 17.6 133.25 24.5 153.4 53.6 168.15 77.9 180.5 115.3 188.05 145.95 194.25 177.95 195.95 195.9 196.9 238.05 202.25 280.9 207.65 302.25 208.9 337.6 211 361.25 206.6 389.85 201.25 405.7 185.95 Z"/>
</g>

<g id="casa_0_Layer0_0_FILL">
<path fill="#81431C" stroke="none" d="
M 115.5 142.55
L 94.6 142.55 94.6 180.9 115.5 180.9 115.5 142.55
M 96.05 144.4
L 113.9 144.4 113.9 152.45 96.05 152.45 96.05 144.4
M 113.9 153.45
L 113.9 160.6
Q 114.35 161.1 114.35 161.7
L 114.35 161.75
Q 114.35 162.4 113.9 162.85
L 113.9 170.6 96.05 170.6 96.05 162.55 111.3 162.55
Q 111.05 162.15 111.05 161.7 111.05 161.6 111.05 161.55
L 96.05 161.55 96.05 153.45 113.9 153.45
M 96.05 179.7
L 96.05 171.6 113.9 171.6 113.9 179.7 96.05 179.7
M 94.6 142.55
L 115.5 142.55 115.5 180.9 117 180.9 117 177.25 117 140.1 93.1 140.1 93.1 177.25 93.1 180.9 94.6 180.9 94.6 142.55 Z"/>

<path fill="#FFFFFF" stroke="none" d="
M 96.05 171.6
L 96.05 179.7 113.9 179.7 113.9 171.6 96.05 171.6
M 113.9 162.55
L 113.5 162.55 111.95 162.55 111.3 162.55 96.05 162.55 96.05 170.6 113.9 170.6 113.9 162.85 113.9 162.55
M 113.9 160.6
L 113.9 153.45 96.05 153.45 96.05 161.55 111.05 161.55 111.65 161.55 113.8 161.55 113.9 161.55 113.9 160.6
M 113.9 144.4
L 96.05 144.4 96.05 152.45 113.9 152.45 113.9 144.4
M 26.4 176.3
L 26.4 175.8 66 175.8 66 176.3 66 180.9 70.2 180.9 70.2 177.25 70.2 136.05 22.2 136.05 22.2 177.25 22.2 180.9 26.4 180.9 26.4 176.3
M 66 143.85
L 66 144.4 66 147.15 26.4 147.15 26.4 144.4 26.4 143.85 66 143.85
M 66 140.1
L 66 142.55 26.4 142.55 26.4 140.1 66 140.1
M 26.4 151.7
L 26.4 148.95 26.4 148.4 66 148.4 66 148.95 66 151.7 26.4 151.7
M 26.4 160.8
L 26.4 158.05 26.4 157.55 66 157.55 66 158.05 66 160.8 26.4 160.8
M 26.4 156.25
L 26.4 153.5 26.4 153 66 153 66 153.5 66 156.25 26.4 156.25
M 26.4 169.95
L 26.4 167.2 26.4 166.65 66 166.65 66 167.2 66 169.95 26.4 169.95
M 26.4 165.4
L 26.4 162.65 26.4 162.1 66 162.1 66 162.65 66 165.4 26.4 165.4
M 26.4 171.75
L 26.4 171.25 66 171.25 66 171.75 66 174.5 26.4 174.5 26.4 171.75
M 45.3 89.65
L 45 90.05 45 101.45 33.3 112.45 34.8 112.45 45 102.85 45 104.2 36.2 112.45 37.75 112.45 45 105.65 45 106.85 39 112.45 39.55 112.45 45 107.45 45 112.45 47.4 112.45 47.4 105.25 54.55 98.65 54.2 98.2 47.4 104.6 47.4 103.4 53.65 97.55 52.95 96.7 47.4 101.95 47.4 100.6 52.35 95.95 52 95.55 51.65 95.15 47.4 99.15 47.4 90 46.2 88.55 45.3 89.65
M 126.1 23.5
Q 126.1 20.1 123.7 17.7 121.25 15.3 117.85 15.3 114.45 15.3 112.05 17.7 109.65 20.1 109.65 23.5 109.65 26.9 112.05 29.35 114.45 31.75 117.85 31.75 121.25 31.75 123.7 29.35 126.1 26.95 126.1 23.55
L 126.1 23.5
M 121.9 19.5
Q 122.6373046875 20.2595703125 123.05 21.15 123.2720703125 21.63125 123.4 22.15
L 116.1 28.95 116.7 29.1 123.5 22.85 123.4 22.25
Q 123.55 22.883203125 123.55 23.55 123.55 25.9 121.9 27.6 120.2 29.25 117.85 29.25 115.5 29.25 113.8 27.6 112.15 25.9 112.15 23.55 112.15 21.2 113.8 19.5 115.5 17.85 117.85 17.85 119.386328125 17.85 120.65 18.55
L 112.75 26
Q 112.9 26.35 113.4 27.05
L 121.6 19.25
Q 121.771484375 19.3751953125 121.9 19.5
M 123.05 21.15
Q 122.7 20.5 122.4 20.1
L 114.15 27.85 115.15 28.55 123.05 21.15
M 158.35 136.85
L 126.65 136.85 126.65 168.6 158.35 168.6 158.35 136.85
M 129.6 139.8
L 141.6 139.8 141.6 151.15 141.15 151.8 129.6 151.8 129.6 139.8
M 153.35 139.8
L 154.2 139.8 146 151.8 145.15 151.8 153.35 139.8
M 143.45 139.8
L 149.4 139.8 143.45 148.45 143.45 139.8
M 150.65 139.8
L 151.3 139.8 143.45 151.3 143.45 150.3 150.65 139.8
M 143.45 155.5
L 143.45 154.25 143.85 153.65 144.75 153.65 143.45 155.5
M 143.45 157.35
L 146 153.65 155.45 153.65 155.45 165.65 143.45 165.65 143.45 157.35
M 155.45 151.8
L 147.25 151.8 155.45 139.8 155.45 151.8
M 141.6 153.65
L 141.6 154 133.6 165.65 132.9 165.65 141.15 153.65 141.6 153.65
M 141.6 156.95
L 141.6 158.2 136.5 165.65 135.65 165.65 141.6 156.95
M 141.6 165.65
L 137.75 165.65 141.6 160.05 141.6 165.65
M 131.65 165.65
L 129.6 165.65 129.6 153.65 139.9 153.65 131.65 165.65
M 123.15 67.15
L 123.15 98.85 154.85 98.85 154.85 67.15 123.15 67.15
M 149.85 70.05
L 150.65 70.05 142.45 82.05 141.65 82.05 149.85 70.05
M 147.1 70.05
L 147.75 70.05 139.9 81.55 139.9 80.6 147.1 70.05
M 126.1 70.05
L 138.1 70.05 138.1 81.4 137.65 82.05 126.1 82.05 126.1 70.05
M 137.65 83.9
L 138.1 83.9 138.1 84.15 130.05 95.9 129.4 95.9 137.65 83.9
M 141.2 83.9
L 139.9 85.75 139.9 84.6 140.4 83.9 141.2 83.9
M 128.15 95.9
L 126.1 95.9 126.1 83.9 136.4 83.9 128.15 95.9
M 139.9 95.9
L 139.9 87.6 142.45 83.9 151.9 83.9 151.9 95.9 139.9 95.9
M 138.1 95.9
L 134.2 95.9 138.1 90.2 138.1 95.9
M 132.95 95.9
L 132.15 95.9 138.1 87.2 138.1 88.4 132.95 95.9
M 151.9 82.05
L 143.7 82.05 151.9 70.05 151.9 82.05
M 139.9 70.05
L 145.85 70.05 139.9 78.75 139.9 70.05
M 112.6 98.85
L 112.6 67.15 80.85 67.15 80.85 98.85 112.6 98.85
M 107.6 70.05
L 108.4 70.05 100.2 82.05 99.35 82.05 107.6 70.05
M 104.85 70.05
L 105.5 70.05 97.65 81.55 97.65 80.55 104.85 70.05
M 83.8 70.05
L 95.8 70.05 95.8 81.45 95.4 82.05 83.8 82.05 83.8 70.05
M 95.35 83.9
L 95.8 83.9 95.8 84.25 87.8 95.9 87.1 95.9 95.35 83.9
M 98.95 83.9
L 97.65 85.75 97.65 84.55 98.1 83.9 98.95 83.9
M 85.9 95.9
L 83.8 95.9 83.8 83.9 94.15 83.9 85.9 95.9
M 90.7 95.9
L 89.85 95.9 95.8 87.25 95.8 88.45 90.7 95.9
M 97.65 95.9
L 97.65 87.6 100.2 83.9 109.65 83.9 109.65 95.9 97.65 95.9
M 95.8 95.9
L 91.95 95.9 95.8 90.3 95.8 95.9
M 109.65 82.05
L 101.45 82.05 109.65 70.05 109.65 82.05
M 97.65 70.05
L 103.6 70.05 97.65 78.75 97.65 70.05 Z"/>

<path fill="#47260E" stroke="none" d="
M 113.8 161.75
Q 113.8 161.65 113.8 161.55
L 111.65 161.55
Q 111.6 161.65 111.6 161.75 111.6 162.2 111.95 162.55
L 113.5 162.55
Q 113.8 162.2 113.8 161.75 Z"/>

<path fill="#5D3214" stroke="none" d="
M 114.35 161.75
L 114.35 161.7
Q 114.35 161.1 113.9 160.6
L 113.9 161.55 113.8 161.55
Q 113.8 161.65 113.8 161.75 113.8 162.2 113.5 162.55
L 113.9 162.55 113.9 162.85
Q 114.35 162.4 114.35 161.75
M 111.05 161.55
Q 111.05 161.6 111.05 161.7 111.05 162.15 111.3 162.55
L 111.95 162.55
Q 111.6 162.2 111.6 161.75 111.6 161.65 111.65 161.55
L 111.05 161.55 Z"/>

<path fill="#A6CFD4" stroke="none" d="
M 79.05 177.25
L 70.2 177.25 70.2 180.9 93.1 180.9 93.1 177.25 83.8 177.25 79.05 177.25
M 13.4 177.25
L 13.4 180.9 22.2 180.9 22.2 177.25 13.4 177.25
M 167.6 178.55
L 167.6 177.25 117 177.25 117 180.9 167.6 180.9 167.6 178.55
M 162.15 114.95
L 162.15 111.25 73.6 111.25 73.6 114.95 162.15 114.95 Z"/>

<path fill="#5EB2B2" stroke="none" d="
M 13.4 177.25
L 22.2 177.25 22.2 136.05 70.2 136.05 70.2 177.25 79.05 177.25 79.05 130.6 13.4 130.6 13.4 177.25 Z"/>

<path fill="#D8D8D8" stroke="none" d="
M 26.4 176.3
L 26.4 180.9 66 180.9 66 176.3 26.4 176.3
M 26.4 171.75
L 26.4 174.5 66 174.5 66 171.75 26.4 171.75
M 26.4 162.65
L 26.4 165.4 66 165.4 66 162.65 26.4 162.65
M 26.4 167.2
L 26.4 169.95 66 169.95 66 167.2 26.4 167.2
M 26.4 153.5
L 26.4 156.25 66 156.25 66 153.5 26.4 153.5
M 26.4 158.05
L 26.4 160.8 66 160.8 66 158.05 26.4 158.05
M 26.4 148.95
L 26.4 151.7 66 151.7 66 148.95 26.4 148.95
M 66 142.55
L 66 140.1 26.4 140.1 26.4 142.55 66 142.55
M 66 147.15
L 66 144.4 26.4 144.4 26.4 147.15 66 147.15 Z"/>

<path fill="#BABABA" stroke="none" d="
M 26.4 175.8
L 26.4 176.3 66 176.3 66 175.8 26.4 175.8
M 26.4 171.25
L 26.4 171.75 66 171.75 66 171.25 26.4 171.25
M 26.4 162.1
L 26.4 162.65 66 162.65 66 162.1 26.4 162.1
M 26.4 166.65
L 26.4 167.2 66 167.2 66 166.65 26.4 166.65
M 26.4 153
L 26.4 153.5 66 153.5 66 153 26.4 153
M 26.4 157.55
L 26.4 158.05 66 158.05 66 157.55 26.4 157.55
M 26.4 148.95
L 66 148.95 66 148.4 26.4 148.4 26.4 148.95
M 66 144.4
L 66 143.85 26.4 143.85 26.4 144.4 66 144.4 Z"/>

<path fill="#71BED6" stroke="none" d="
M 45 112.45
L 45 107.45 39.55 112.45 45 112.45
M 45 104.2
L 45 102.85 34.8 112.45 36.2 112.45 45 104.2
M 45 106.85
L 45 105.65 37.75 112.45 39 112.45 45 106.85
M 54.2 98.2
L 54.55 98.65 47.4 105.25 47.4 112.45 66 112.45 52.35 95.95 47.4 100.6 47.4 101.95 52.95 96.7 53.65 97.55 47.4 103.4 47.4 104.6 54.2 98.2
M 51.65 95.15
L 52 95.55 47.4 90 47.4 99.15 51.65 95.15
M 45 90.05
L 45.3 89.65 26.4 112.45 33.3 112.45 45 101.45 45 90.05
M 123.05 21.15
Q 122.6373046875 20.2595703125 121.9 19.5 121.771484375 19.3751953125 121.6 19.25
L 113.4 27.05
Q 112.9 26.35 112.75 26
L 120.65 18.55
Q 119.386328125 17.85 117.85 17.85 115.5 17.85 113.8 19.5 112.15 21.2 112.15 23.55 112.15 25.9 113.8 27.6 115.5 29.25 117.85 29.25 120.2 29.25 121.9 27.6 123.55 25.9 123.55 23.55 123.55 22.883203125 123.4 22.25
L 123.5 22.85 116.7 29.1 116.1 28.95 123.4 22.15
Q 123.2720703125 21.63125 123.05 21.15
L 115.15 28.55 114.15 27.85 122.4 20.1
Q 122.7 20.5 123.05 21.15
M 129.6 165.65
L 131.65 165.65 139.9 153.65 129.6 153.65 129.6 165.65
M 137.75 165.65
L 141.6 165.65 141.6 160.05 137.75 165.65
M 141.6 158.2
L 141.6 156.95 135.65 165.65 136.5 165.65 141.6 158.2
M 141.6 154
L 141.6 153.65 141.15 153.65 132.9 165.65 133.6 165.65 141.6 154
M 147.25 151.8
L 155.45 151.8 155.45 139.8 147.25 151.8
M 146 153.65
L 143.45 157.35 143.45 165.65 155.45 165.65 155.45 153.65 146 153.65
M 143.45 154.25
L 143.45 155.5 144.75 153.65 143.85 153.65 143.45 154.25
M 151.3 139.8
L 150.65 139.8 143.45 150.3 143.45 151.3 151.3 139.8
M 149.4 139.8
L 143.45 139.8 143.45 148.45 149.4 139.8
M 154.2 139.8
L 153.35 139.8 145.15 151.8 146 151.8 154.2 139.8
M 141.6 139.8
L 129.6 139.8 129.6 151.8 141.15 151.8 141.6 151.15 141.6 139.8
M 145.85 70.05
L 139.9 70.05 139.9 78.75 145.85 70.05
M 143.7 82.05
L 151.9 82.05 151.9 70.05 143.7 82.05
M 132.15 95.9
L 132.95 95.9 138.1 88.4 138.1 87.2 132.15 95.9
M 134.2 95.9
L 138.1 95.9 138.1 90.2 134.2 95.9
M 139.9 87.6
L 139.9 95.9 151.9 95.9 151.9 83.9 142.45 83.9 139.9 87.6
M 126.1 95.9
L 128.15 95.9 136.4 83.9 126.1 83.9 126.1 95.9
M 139.9 85.75
L 141.2 83.9 140.4 83.9 139.9 84.6 139.9 85.75
M 138.1 83.9
L 137.65 83.9 129.4 95.9 130.05 95.9 138.1 84.15 138.1 83.9
M 138.1 70.05
L 126.1 70.05 126.1 82.05 137.65 82.05 138.1 81.4 138.1 70.05
M 147.75 70.05
L 147.1 70.05 139.9 80.6 139.9 81.55 147.75 70.05
M 150.65 70.05
L 149.85 70.05 141.65 82.05 142.45 82.05 150.65 70.05
M 103.6 70.05
L 97.65 70.05 97.65 78.75 103.6 70.05
M 101.45 82.05
L 109.65 82.05 109.65 70.05 101.45 82.05
M 91.95 95.9
L 95.8 95.9 95.8 90.3 91.95 95.9
M 97.65 87.6
L 97.65 95.9 109.65 95.9 109.65 83.9 100.2 83.9 97.65 87.6
M 89.85 95.9
L 90.7 95.9 95.8 88.45 95.8 87.25 89.85 95.9
M 83.8 95.9
L 85.9 95.9 94.15 83.9 83.8 83.9 83.8 95.9
M 97.65 85.75
L 98.95 83.9 98.1 83.9 97.65 84.55 97.65 85.75
M 95.8 83.9
L 95.35 83.9 87.1 95.9 87.8 95.9 95.8 84.25 95.8 83.9
M 95.8 70.05
L 83.8 70.05 83.8 82.05 95.4 82.05 95.8 81.45 95.8 70.05
M 105.5 70.05
L 104.85 70.05 97.65 80.55 97.65 81.55 105.5 70.05
M 108.4 70.05
L 107.6 70.05 99.35 82.05 100.2 82.05 108.4 70.05 Z"/>

<path fill="#D2D1D1" stroke="none" d="
M 73.6 98.9
L 60.15 98.9 65.25 105.05 73.6 105.05 73.6 98.9
M 32.25 98.9
L 8.45 98.9 0 126.05 11.7 126.05 17.5 105.05 27.15 105.05 32.25 98.9
M 85.7 27.95
L 94.75 27.95 101.75 19.45 73.15 19.45 61.5 56.95 77.65 56.95 85.7 27.95
M 167.6 130.6
L 167.6 129.1 13.4 129.1 13.4 130.6 79.05 130.6 79.05 177.25 83.8 177.25 83.8 130.6 167.6 130.6
M 167.6 98.9
L 162.15 98.9 162.15 105.05 169.5 105.05 169.3 104.35 167.6 98.9
M 162.15 64.65
L 162.15 60.55 73.55 60.55 73.55 64.65 73.6 64.65 162.15 64.65
M 165.2 27.95
L 162.55 19.45 133.95 19.45 141 27.95 165.2 27.95 Z"/>

<path fill="#54212B" stroke="none" d="
M 45.3 89.65
L 46.2 88.55 47.4 90 52 95.55 52.35 95.95 66 112.45 71.4 112.45 65.25 105.05 60.15 98.9 46.2 82.1 32.25 98.9 27.15 105.05 21.05 112.45 26.4 112.45 45.3 89.65
M 141 27.95
L 133.95 19.45 117.85 0 101.75 19.45 94.75 27.95 89.2 34.65 94.4 34.65 117.85 6.35 141.3 34.65 146.55 34.65 141 27.95 Z"/>

<path fill="#539C9D" stroke="none" d="
M 117.85 6.35
L 94.4 34.65 141.3 34.65 117.85 6.35
M 123.7 17.7
Q 126.1 20.1 126.1 23.5
L 126.1 23.55
Q 126.1 26.95 123.7 29.35 121.25 31.75 117.85 31.75 114.45 31.75 112.05 29.35 109.65 26.9 109.65 23.5 109.65 20.1 112.05 17.7 114.45 15.3 117.85 15.3 121.25 15.3 123.7 17.7
M 167.6 177.25
L 167.6 158.75 167.6 130.6 83.8 130.6 83.8 177.25 93.1 177.25 93.1 140.1 117 140.1 117 177.25 167.6 177.25
M 126.65 136.85
L 158.35 136.85 158.35 168.6 126.65 168.6 126.65 136.85
M 162.15 98.9
L 162.15 64.65 73.6 64.65 73.6 98.9 73.6 105.05 73.6 111.25 162.15 111.25 162.15 105.05 162.15 98.9
M 112.6 67.15
L 112.6 98.85 80.85 98.85 80.85 67.15 112.6 67.15
M 123.15 98.85
L 123.15 67.15 154.85 67.15 154.85 98.85 123.15 98.85 Z"/>

<path fill="#92A127" stroke="none" d="
M 189.4 147.2
Q 185.85 144.8 181.7 145.6 177.55 146.45 175.2 149.95 172.8 153.45 173.6 157.6 173.75 158.4 174.05 159.15 170.808203125 157.8779296875 167.6 158.75
L 167.6 177.25 167.6 178.55
Q 168.59609375 178.80703125 169.65 178.9 167.35 182.35 168.15 186.35
L 224.15 186.35 224.15 186.2
Q 228.3 185.25 230.55 181.65 232.8 178 231.8 173.9 231.25 171.5 229.65 169.6 228.05 167.75 225.75 166.75 227.25 162.8 225.5 158.95 223.75 155.1 219.75 153.6 216.35 152.35 212.95 153.5 209.55 154.6 207.6 157.6 205.55 153.9 201.5 152.8 197.4 151.65 193.7 153.7 192.9 149.55 189.4 147.2 Z"/>

<path fill="#471C24" stroke="none" d="
M 176.05 129.1
L 176.05 126.05 11.7 126.05 0 126.05 0 129.1 13.4 129.1 167.6 129.1 176.05 129.1
M 162.15 60.55
L 174.2 60.55 174.2 56.95 77.65 56.95 61.5 56.95 61.5 60.55 73.55 60.55 162.15 60.55 Z"/>

<path fill="#672835" stroke="none" d="
M 169.5 105.05
L 162.15 105.05 162.15 111.25 162.15 114.95 73.6 114.95 73.6 111.25 73.6 105.05 65.25 105.05 71.4 112.45 66 112.45 47.4 112.45 45 112.45 39.55 112.45 39 112.45 37.75 112.45 36.2 112.45 34.8 112.45 33.3 112.45 26.4 112.45 21.05 112.45 27.15 105.05 17.5 105.05 11.7 126.05 176.05 126.05 169.3 104.35 169.5 105.05
M 174.2 56.95
L 165.2 27.95 141 27.95 146.55 34.65 141.3 34.65 94.4 34.65 89.2 34.65 94.75 27.95 85.7 27.95 77.65 56.95 174.2 56.95 Z"/>
</g>

<g id="Body_0_Layer0_0_FILL">
<path fill="#FFFFFF" stroke="none" d="
M 219.15 264.65
L 218.1 263.1 208.15 271.55 212.1 276.15 223.6 289 226.8 292.7 233.1 286.4 229.45 280.6 219.15 264.65 Z"/>

<path fill="#F6B094" stroke="none" d="
M 192.95 282.4
Q 179.8 285.15 174.55 294.2 168.15 305.1 178.25 315.8 187.75 325.8 199.4 322.4 200.3 321.95 201.25 321.65 209.2 318.6 212.55 311.25 213.65 308.6 214.25 305.7
L 214.7 294.85 223.6 289 212.1 276.15 205.2 281.35 204.9 281.5
Q 201.85 281.2 198.45 281.65 195.85 281.8 192.95 282.4 Z"/>

<path fill="#2B3154" stroke="none" d="
M 80.8 216.7
L 106.55 208.55
Q 106.7 201.35 107 194.15
L 82 201.95
Q 81.25 209.45 80.8 216.7
M 84.75 304.2
L 90.9 314.6 94.6 313.35 102.4 298.05 84.75 304.2
M 92.45 317.35
L 94.6 313.35 90.9 314.6 92.45 317.35
M 105.3 247.65
Q 105.45 240.45 105.75 233.05
L 79.25 241.5
Q 78.95 248.85 78.95 255.9
L 105.3 247.65
M 105 259.9
Q 105 253.75 105.3 247.65
L 78.95 255.9
Q 78.8 262.2 78.8 268.15
L 105 259.9
M 104.7 272.6
Q 104.7 266.35 105 259.9
L 78.8 268.15
Q 78.95 274.6 79.1 280.9
L 104.7 272.6
M 104.4 285.35
Q 104.55 279.05 104.7 272.6
L 79.1 280.9
Q 79.4 287 79.7 293.15
L 104.4 285.35
M 104.25 294.5
Q 104.25 289.9 104.4 285.35
L 79.7 293.15
Q 79.7 294.35 79.85 295.6
L 84.75 304.2 102.4 298.05 104.25 294.5
M 106.05 220.5
Q 106.2 214.55 106.55 208.55
L 80.8 216.7
Q 80.15 222.95 79.85 229.25
L 106.05 220.5
M 105.75 233.05
Q 105.9 226.8 106.05 220.5
L 79.85 229.25
Q 79.55 235.35 79.25 241.5
L 105.75 233.05
M 107.15 189.4
Q 107.3 186.35 107.45 183.25
L 83.1 190.95
Q 82.45 196.45 82 201.95
L 107 194.15
Q 107 191.85 107.15 189.4
M 84.3 180.2
Q 83.7 185.55 83.1 190.95
L 107.45 183.25
Q 107.6 177.9 107.75 172.7
L 84.3 180.2
M 107.75 172.7
Q 108.05 166.7 108.35 160.9
L 85.85 168.25
Q 85.1 174.25 84.3 180.2
L 107.75 172.7
M 108.35 160.9
Q 108.5 155.85 108.85 151.1
L 87.35 157.7
Q 86.45 162.9 85.85 168.25
L 108.35 160.9
M 109.3 141.75
L 88.75 148.35
Q 88 152.95 87.35 157.7
L 108.85 151.1
Q 109 146.35 109.3 141.75
M 91.65 129.5
Q 90.9 134.25 90.15 138.85
L 109.75 132.55
Q 109.9 127.95 110.2 123.65
L 91.65 129.5
M 90.15 138.85
Q 89.35 143.6 88.75 148.35
L 109.3 141.75
Q 109.45 137 109.75 132.55
L 90.15 138.85
M 110.2 123.65
Q 110.35 120.3 110.65 116.9
L 93.05 121.65
Q 92.45 125.05 91.8 128.55 91.8 129 91.65 129.5
L 110.2 123.65
M 110.65 116.9
Q 110.8 113.7 110.95 110.5
L 94.25 114.75
Q 93.65 118.15 93.05 121.65
L 110.65 116.9
M 110.95 110.5
Q 111.3 106.35 111.6 102.5
L 96.55 106.65 111.6 102.5
Q 111.75 99 112.05 95.45
L 97.2 99.45
Q 95.65 106.8 94.25 114.75
L 110.95 110.5
M 100.55 82.9
L 113.25 79.55
Q 113.6 76.15 113.9 72.95
L 102.1 76
Q 101.3 79.35 100.55 82.9
M 112.05 95.45
Q 112.35 90.85 112.65 86.6
L 99 90.1
Q 98.1 94.7 97.2 99.45
L 112.05 95.45
M 100.55 82.9
Q 99.8 86.4 99 90.1
L 112.65 86.6
Q 112.95 82.9 113.25 79.55
L 100.55 82.9
M 116.35 52.55
L 107 55
Q 106.05 58.4 105.3 62.05
L 115.4 59.15
Q 115.9 55.6 116.35 52.55
M 114.65 66.5
L 103.6 69.1
Q 102.85 72.5 102.1 76
L 113.9 72.95
Q 114.2 69.55 114.65 66.5
M 103.6 69.1
L 114.65 66.5
Q 114.95 62.65 115.4 59.15
L 105.3 62.05
Q 104.4 65.45 103.6 69.1
M 104.1 42.75
Q 106.2 44.75 109.3 45.5 109.3 45.65 109.3 45.95
L 123.55 42 120.95 36.6 105.6 40.9 104.1 42.75
M 118.35 30.8
L 116.2 26.5 111.75 32.65 118.35 30.8
M 120.95 36.6
L 118.35 30.8 111.75 32.65 105.6 40.9 120.95 36.6
M 124.3 43.5
L 123.55 42 109.3 45.95
Q 108.05 50.4 107 55
L 116.35 52.55
Q 116.8 48.9 117.4 45.8 121.25 45.05 124.3 43.8
L 124.3 43.5 Z"/>

<path fill="#1C1F32" stroke="none" d="
M 120 351.35
Q 134.75 350.9 148.05 350.3 147 339.4 145.9 328.25 133.35 328.85 120 329.15
L 120 351.35
M 73.45 328.7
L 38.2 326.85 35.9 347.1
Q 55.05 350.6 83.55 351.35
L 83.55 329
Q 78.5 328.85 73.45 328.7 Z"/>

<path fill="#2A2C47" stroke="none" d="
M 83.55 354.6
L 83.55 351.35
Q 55.05 350.6 35.9 347.1
L 27.6 421.4 9.2 410.05
Q 5.1 444.7 2 468.6
L 19.5 470.45
Q 60.25 474.6 83.7 475.95 100.1 409.6 104.55 415.1 107.9 419.4 113.6 476.7
L 156.95 476.7
Q 187.9 476.7 208.3 476.25 209.5 429.55 208.15 398.1
L 154.8 421.55
Q 151.9 388.9 148.05 350.3 134.75 350.9 120 351.35
L 120 354.6 83.55 354.6 Z"/>

<path fill="#3A4066" stroke="none" d="
M 83.55 327.45
L 83.55 329 83.55 351.35 83.55 354.6 120 354.6 120 351.35 120 329.15 120 327.45 83.55 327.45 Z"/>

<path fill="#313657" stroke="none" d="
M 91.65 17.15
L 92.6 14.25
Q 86.45 15.95 20.25 47.2 20.55 56.25 21 75.25 21.65 92.55 22.55 105.4
L 23.65 136.85
Q 25.15 174.25 27 204.25 28.7 214.85 27.9 225.4 26.55 243.35 24.85 255.9
L 24.85 256.35 23.95 264.05 23.95 264.2
Q 19.2 303.25 11.85 344.15 4.8 383.55 0.2 397.95 -0.6 400.55 1.7 403.65 2.8 405 6.3 408.25
L 9.2 410.05 27.6 421.4 35.9 347.1 38.2 326.85 39.4 314.9
Q 40.8 302.35 46.75 270.3 52.9 237.35 54.9 219.75 57.95 192.75 63.15 157.55 68.55 121.5 70.35 108.95 76.35 68.05 85.1 37.1
L 91.65 17.15
M 184.85 15.45
Q 179.95 13.35 168.15 9.2
L 168 9.2
Q 167.85 9.35 167.85 9.5 167.65 9.65 167.5 9.95 158 20.85 150.35 40.3 134.25 80.75 128.45 148.5 127.35 160 130 187.25 131.35 203.05 135.05 236 136.85 253 140.4 281.5 143.9 309.4 145.3 323 145.6 325.65 145.9 328.25 147 339.4 148.05 350.3 151.9 388.9 154.8 421.55
L 208.15 398.1 210.25 397.2
Q 219 392.9 225.45 386.45 233.7 378.2 231.4 371.9 221.15 344 212.55 311.25 209.2 318.6 201.25 321.65 200.3 321.95 199.4 322.4 187.75 325.8 178.25 315.8 168.15 305.1 174.55 294.2 179.8 285.15 192.95 282.4 195.85 281.8 198.45 281.65 201.85 281.2 204.9 281.5
L 205.2 281.35
Q 199.4 254.05 199.25 238.6 202.9 212.7 207.2 184.8 215.8 128.85 218.85 118.45
L 242.3 137.3
Q 267.15 158.9 273.55 172.85 278.6 183.6 254.85 212.7
L 238.3 230.95
Q 215.35 255 215.8 255.75
L 219.15 264.65 229.45 280.6
Q 233.25 285.15 238 289.75
L 290.4 232.45
Q 342.65 173.6 341.75 165.05 341.15 158.15 295.8 100.2 251.35 43.5 244.15 38.45 241.25 36.45 219.3 28.35 193.9 19 184.85 15.45 Z"/>

<path fill="#C4C1CC" stroke="none" d="
M 103.6 9.05
Q 103.9 6.75 104.1 3.5
L 96.4 12.55 97.05 15 103.3 43.8 104.1 42.75 105.6 40.9 111.75 32.65 116.2 26.5
Q 113.75 24.2 111.6 21.15 99.8 20.05 101.65 16.1 103.3 12.1 103.6 9.05
M 167.85 9.5
Q 167.85 9.35 168 9.2
L 168.15 9.2 154.8 0 154.65 0.15
Q 154.05 6.75 153.9 11.8 141.95 20.2 124 21.15
L 116.2 26.5 118.35 30.8 120.95 36.6 123.55 42 124.3 43.5 124.45 43.95 167.35 9.8 167.85 9.5 Z"/>

<path fill="#EDA886" stroke="none" d="
M 119.25 21.3
Q 114.95 21.3 111.75 21.15 113.45 23.75 116.2 26.5
L 124 21.15
Q 121.7 21.3 119.25 21.3 Z"/>

<path fill="#DAD7E2" stroke="none" d="
M 111.75 21.15
L 111.6 21.15
Q 113.75 24.2 116.2 26.5 113.45 23.75 111.75 21.15
M 167.5 9.95
L 167.35 9.8 124.45 43.95 124.3 43.5 124.3 43.8
Q 121.25 45.05 117.4 45.8 116.8 48.9 116.35 52.55 115.9 55.6 115.4 59.15 114.95 62.65 114.65 66.5 114.2 69.55 113.9 72.95 113.6 76.15 113.25 79.55 112.95 82.9 112.65 86.6 112.35 90.85 112.05 95.45 111.75 99 111.6 102.5 111.3 106.35 110.95 110.5 110.8 113.7 110.65 116.9 110.35 120.3 110.2 123.65 109.9 127.95 109.75 132.55 109.45 137 109.3 141.75 109 146.35 108.85 151.1 108.5 155.85 108.35 160.9 108.05 166.7 107.75 172.7 107.6 177.9 107.45 183.25 107.3 186.35 107.15 189.4 107 191.85 107 194.15 106.7 201.35 106.55 208.55 106.2 214.55 106.05 220.5 105.9 226.8 105.75 233.05 105.45 240.45 105.3 247.65 105 253.75 105 259.9 104.7 266.35 104.7 272.6 104.55 279.05 104.4 285.35 104.25 289.9 104.25 294.5
L 102.4 298.05 94.6 313.35 92.45 317.35 90.9 314.6 84.75 304.2 79.85 295.6
Q 79.7 294.35 79.7 293.15 79.4 287 79.1 280.9 78.95 274.6 78.8 268.15 78.8 262.2 78.95 255.9 78.95 248.85 79.25 241.5 79.55 235.35 79.85 229.25 80.15 222.95 80.8 216.7 81.25 209.45 82 201.95 82.45 196.45 83.1 190.95 83.7 185.55 84.3 180.2 85.1 174.25 85.85 168.25 86.45 162.9 87.35 157.7 88 152.95 88.75 148.35 89.35 143.6 90.15 138.85 90.9 134.25 91.65 129.5 91.8 129 91.8 128.55 92.45 125.05 93.05 121.65 93.65 118.15 94.25 114.75 95.65 106.8 97.2 99.45 98.1 94.7 99 90.1 99.8 86.4 100.55 82.9 101.3 79.35 102.1 76 102.85 72.5 103.6 69.1 104.4 65.45 105.3 62.05 106.05 58.4 107 55 108.05 50.4 109.3 45.95 109.3 45.65 109.3 45.5 106.2 44.75 104.1 42.75
L 103.3 43.8 97.05 15
Q 94.25 15.95 91.65 17.15
L 85.1 37.1
Q 76.35 68.05 70.35 108.95 68.55 121.5 63.15 157.55 57.95 192.75 54.9 219.75 52.9 237.35 46.75 270.3 40.8 302.35 39.4 314.9
L 38.2 326.85 73.45 328.7
Q 78.5 328.85 83.55 329
L 83.55 327.45 120 327.45 120 329.15
Q 133.35 328.85 145.9 328.25 145.6 325.65 145.3 323 143.9 309.4 140.4 281.5 136.85 253 135.05 236 131.35 203.05 130 187.25 127.35 160 128.45 148.5 134.25 80.75 150.35 40.3 158 20.85 167.5 9.95 Z"/>
</g>

<g id="head_0_Layer1_0_FILL">
<path fill="#DC9886" stroke="none" d="
M 29.45 135.8
Q 29.3 137.45 29.6 141.4 29.8 141.7 30.05 142 34.8 148.3 42 151.8 49.5 155.5 57.95 155.2 70.35 155.05 80.9 148.6 81.2 146.6 82.6 139.4 82.7 138.85 82.85 138.35 69.9 149.55 55.8 148.9 43.45 148.4 32.85 139.05 31.1 137.55 29.45 135.8 Z"/>

<path fill="#F6B094" stroke="none" d="
M 109.15 75.95
Q 108.45 75.6 107.65 75.35 105.8 56.35 93.8 42.1 79.7 25.55 61 24.8 42.45 23.85 27 39.2 13.85 52.3 10.4 70.95
L 9.3 71.05
Q 5.7705078125 71.583984375 3.2 74.3 0 77.65 0 82.4 0.6 87.15 3.7 90.7 6.25 93.7 9.85 95.2 12.25 113.2 23.3 128.4 26.3 132.5 29.45 135.8 31.1 137.55 32.85 139.05 43.45 148.4 55.8 148.9 69.9 149.55 82.85 138.35 82.7 138.85 82.6 139.4 81.2 146.6 80.9 148.6 70.35 155.05 57.95 155.2 49.5 155.5 42 151.8 34.8 148.3 30.05 142
L 30.35 159.6
Q 30.35 160.35 30.35 161.1 30.15 164.35 29.85 166.65 29.55 169.7 27.9 173.7 26.05 177.65 37.85 178.75
L 38 178.75
Q 41.2 178.9 45.5 178.9 47.95 178.9 50.25 178.75 68.2 177.8 80.15 169.4 80.3 164.35 80.9 157.75 81.7 149.1 83.5 137.8 86.75 134.85 89.95 131.15 102.5 116.8 106.3 98.6 108.95 97.45 111.1 95.3 114.5 91.9 115.55 87.15 115.85 82.55 112.95 79.05 111.55 77.25 109.65 76.2 109.4 76.05 109.15 75.95
M 88.1 91.9
Q 92.55 91.9 95.65 95.15 98.7 98.35 98.55 102.65 98.4 107.1 95 110 91.65 112.9 87.2 112.6 82.9 112.45 79.85 109.2 76.8 106.15 76.8 101.7 77.1 97.25 80.45 94.5 83.85 91.6 88.1 91.9
M 22.85 55.9
Q 24.55 53.45 27 52.2 35.7 48.25 43.7 53.15 46.75 55 48.1 58.2
L 47.9 58.05
Q 48.09765625 58.20703125 47.95 58.65 47.65 59.1 47.35 59.25 46.6 59.25 45.85 58.8 36.65 53.3 27.3 58.05 25.9 58.95 24.55 58.95 22.7 59.25 22.4 57.1 22.4 56.35 22.85 55.9
M 31.4 72.9
Q 31.55 70.3 32.65 68.45 33.85 66.6 35.4 66.6 36.95 66.8 37.85 68.6 38.95 70.6 38.8 73.2 38.6 75.95 37.55 77.8 36.3 79.65 34.8 79.65 33.25 79.5 32.35 77.65 31.25 75.65 31.4 72.9
M 21.15 92.05
Q 24.35 89.15 28.8 89.3 33.25 89.45 36.3 92.65 39.4 95.75 39.4 100.2 39.1 104.65 35.7 107.55 32.5 110.45 28.05 110.15 23.6 110 20.55 106.75 17.5 103.55 17.65 99.25 17.95 94.95 21.15 92.05
M 63.45 100.65
Q 63.6 101.25 63.3 101.85
L 62.2 102 55.15 101.55 62.2 102 63.3 101.85
Q 63.6 101.25 63.45 100.65
L 60.7 66.45 63.45 100.65
M 42.3 117.35
L 41.1 115.95
Q 53.95 120.95 66.95 120.4 74.3 120.05 81.7 117.95 80.95 118.95 80.1 119.8 78.65 122.5 75.55 125.45 71.7 129.15 68.8 129.75 60.55 131.45 54.4 128.7 53.6 128.35 52.8 127.9 47.15 124.75 42.3 117.35 Z"/>

<path fill="#E56D5F" stroke="none" d="
M 80.1 119.8
Q 77.6 122.05 73.85 122.7 66.5 124.3 60.1 123.9 50 123.15 42.3 117.35 47.15 124.75 52.8 127.9 53.6 128.35 54.4 128.7 60.55 131.45 68.8 129.75 71.7 129.15 75.55 125.45 78.65 122.5 80.1 119.8 Z"/>

<path fill="#FFFFFF" stroke="none" d="
M 73.85 122.7
Q 77.6 122.05 80.1 119.8 80.95 118.95 81.7 117.95 74.3 120.05 66.95 120.4 53.95 120.95 41.1 115.95
L 42.3 117.35
Q 50 123.15 60.1 123.9 66.5 124.3 73.85 122.7 Z"/>

<path fill="#E69B7D" stroke="none" d="
M 28.8 89.3
Q 24.35 89.15 21.15 92.05 17.95 94.95 17.65 99.25 17.5 103.55 20.55 106.75 23.6 110 28.05 110.15 32.5 110.45 35.7 107.55 39.1 104.65 39.4 100.2 39.4 95.75 36.3 92.65 33.25 89.45 28.8 89.3
M 95.65 95.15
Q 92.55 91.9 88.1 91.9 83.85 91.6 80.45 94.5 77.1 97.25 76.8 101.7 76.8 106.15 79.85 109.2 82.9 112.45 87.2 112.6 91.65 112.9 95 110 98.4 107.1 98.55 102.65 98.7 98.35 95.65 95.15 Z"/>

<path fill="#503413" stroke="none" d="
M 32.65 68.45
Q 31.55 70.3 31.4 72.9 31.25 75.65 32.35 77.65 33.25 79.5 34.8 79.65 36.3 79.65 37.55 77.8 38.6 75.95 38.8 73.2 38.95 70.6 37.85 68.6 36.95 66.8 35.4 66.6 33.85 66.6 32.65 68.45 Z"/>

<path fill="#9D4C16" stroke="none" d="
M 27 52.2
Q 24.55 53.45 22.85 55.9 22.4 56.35 22.4 57.1 22.7 59.25 24.55 58.95 25.9 58.95 27.3 58.05 36.65 53.3 45.85 58.8 46.6 59.25 47.35 59.25 47.65 59.1 47.95 58.65 48.09765625 58.20703125 47.9 58.05
L 48.1 58.2
Q 46.75 55 43.7 53.15 35.7 48.25 27 52.2
M 116.6 40.1
Q 117.1 36.6 116 33.5 114.3 30.45 111.4 28.75 96.85 17.3 88.25 11.3 72.65 0.6 62.85 0.25 49.2 -0.2 34.5 0.1 16.7 0.6 6.15 2.25 4.3 2.55 4.75 11.6 5.2 21.25 4 22.2 0.95 24.35 2.6 30.3 5.2 39.2 5.2 40.1 4.8 56 8.7 71.15 9 71.1125 9.3 71.05
L 10.4 70.95
Q 13.85 52.3 27 39.2 42.45 23.85 61 24.8 79.7 25.55 93.8 42.1 105.8 56.35 107.65 75.35 108.45 75.6 109.15 75.95 109.4 76.05 109.65 76.2 112.1 70 113.7 62.65 115.55 54.05 116.6 40.1 Z"/>
</g>

<g id="occhiolino_0_Layer1_0_FILL">
<path fill="#503413" stroke="none" d="
M 1.25 1.7
Q 0.15 3.55 0 6.3 -0.15 8.9 0.95 10.9 1.85 12.75 3.4 12.9 4.9 12.9 6.15 11.05 7.2 9.2 7.35 6.6 7.55 3.85 6.45 2 5.55 0 4 0 2.45 -0.15 1.25 1.7 Z"/>
</g>

<g id="occhiolino_0_Layer0_0_FILL">
<path fill="#9D4C16" stroke="none" d="
M 11.95 -13.75
Q 8.15 -16.05 3.7 -16.2 -0.75 -16.2 -4.75 -14.25 -7.95 -12.85 -9.35 -9.8 -9.65 -9.65 -9.5 -9.15 -9.2 -8.7 -8.85 -8.55 -8.1 -8.25 -7.35 -8.85 -2.9 -11 2 -10.85 6.9 -10.55 11.2 -7.95 12.75 -7.05 13.95 -6.85 15.8 -6.55 16.1 -8.55
L 15.8 -9.8
Q 14.4 -12.25 11.95 -13.75 Z"/>
</g>

<g id="hand_0_Layer0_0_FILL">
<path fill="#F6B094" stroke="none" d="
M 59.85 22.25
Q 58.05 17.9 54.7 13.35 45.6 1.65 31.6 0.15 14.65 -1.4 4.6 13.15 -5.35 27.85 6.25 38.2 16.05 46.9 32.5 44.4 40.65 43.1 46.85 40.15 46.95 40.05 47.05 40 52.65 38.1 57.35 31.35 59.65 27.85 60.75 24.75 60.35 23.5 59.85 22.25 Z"/>
</g>

<g id="braccio__0_Layer0_0_FILL">
<path fill="#FFFFFF" stroke="none" d="
M 14.25 41.75
Q 13.15 44.85 10.85 48.35 6.15 55.1 0.55 57 0.45 57.05 0.35 57.15
L 0 57.55 14.35 69.85 32.75 52 16.45 35 13.35 39.25
Q 13.85 40.5 14.25 41.75 Z"/>

<path fill="#313657" stroke="none" d="
M 193.5 0.15
Q 184 0.9 178.6 4.8 173.65 8.4 161.9 28.25 152.6 44.35 148.85 52.6 145.55 59.7 133.95 81.75 121.05 106.1 119.55 107 118.05 107.9 104.35 100.25 92.05 93.35 81.35 86.15 57.3 69.3 35.5 49.3
L 32.75 52 14.35 69.85 9.35 74.7 56.25 121.3
Q 105.7 167.45 118.8 164.3 130.8 161.3 155.15 130.15 159.65 124.45 166.9 114.4 181.6 93.35 193.35 73.2 204.3 60.6 210.9 45.1 224 14.3 201.9 0.15 198.3 -0.15 193.5 0.15 Z"/>
</g>

<g id="clipInt_0_Layer0_0_FILL">
<path fill="#FFFFFF" stroke="none" d="
M 49.5 18.8
Q 44.15 19.55 40.6 21.55 30.8 26.15 27.3 36.3 25.3 42.4 26.65 49.15
L 23.3 51
Q 22.4 51.3 22.1 52.2 21.75 53.15 22.25 54.05 23 56.2 25.3 55.1
L 28.2 53.75 29.45 56.95 30.65 58.95 27.9 60.35
Q 27 60.65 26.65 61.7 26.35 62.65 26.85 63.4
L 26.85 63.55
Q 27.9 65.55 29.9 64.65
L 33.4 62.95
Q 37.4 68.45 43.85 70.75 53.35 73.8 62.55 69.2 67.6 66.75 71.55 62.5 73.1 60.35 71.75 58.5
L 71.4 58.2
Q 70.65 57.25 69.25 57.25 68.05 57.25 67.15 58.2 63.9 61.1 60.7 62.65 54.4 66.15 47.5 63.85 43.85 62.65 40.9 59.1
L 60.7 49.45
Q 62.7 48.4 61.9 46.25 61.45 45.3 60.55 45 59.45 44.7 58.7 45.15
L 38 55.3 35.55 50.05 56.1 39.95
Q 58.25 38.9 57.15 36.9 56.85 35.95 55.95 35.65 54.85 35.35 54.1 35.8
L 34.35 45.45
Q 33.1 40.85 34.65 36.9 37.1 30.15 43.4 27.4 46.6 25.85 50.25 25.1 51.5 24.95 52.4 23.85 53.2 22.8 53.05 21.55 52.9 20.35 51.8 19.55 50.75 18.65 49.5 18.8 Z"/>
</g>

<g id="dan__0_Layer0_0_FILL">
<path fill="#F48C7F" stroke="none" d="
M 77.75 12.3
Q 63.8 -0.7 44.5 0.05 25.35 0.85 12.3 14.95 -0.7 29 0.05 48.2 0.8 67.35 14.9 80.35 29 93.4 48.35 92.6 67.5 91.85 80.5 77.75 93.55 63.65 92.75 44.5 91.85 25.35 77.75 12.3
M 44.8 7.4
Q 60.9 6.8 72.7 17.7 84.5 28.55 85.25 44.8 85.85 60.9 75 72.7 64.1 84.5 48 85.1 31.8 85.7 20 74.85 8.2 63.95 7.55 47.85 6.95 31.8 17.85 20 28.7 8.2 44.8 7.4 Z"/>

<path fill="#F7CC7F" stroke="none" d="
M 72.7 17.7
Q 60.9 6.8 44.8 7.4 28.7 8.2 17.85 20 6.95 31.8 7.55 47.85 8.2 63.95 20 74.85 31.8 85.7 48 85.1 64.1 84.5 75 72.7 85.85 60.9 85.25 44.8 84.5 28.55 72.7 17.7
M 40.8 21.5
Q 44.35 19.5 49.7 18.75 50.95 18.6 52 19.5 53.1 20.3 53.25 21.5 53.4 22.75 52.6 23.8 51.7 24.9 50.45 25.05 46.8 25.8 43.6 27.35 37.3 30.1 34.85 36.85 33.3 40.8 34.55 45.4
L 54.3 35.75
Q 55.05 35.3 56.15 35.6 57.05 35.9 57.35 36.85 58.45 38.85 56.3 39.9
L 35.75 50 38.2 55.25 58.9 45.1
Q 59.65 44.65 60.75 44.95 61.65 45.25 62.1 46.2 62.9 48.35 60.9 49.4
L 41.1 59.05
Q 44.05 62.6 47.7 63.8 54.6 66.1 60.9 62.6 64.1 61.05 67.35 58.15 68.25 57.2 69.45 57.2 70.85 57.2 71.6 58.15
L 71.95 58.45
Q 73.3 60.3 71.75 62.45 67.8 66.7 62.75 69.15 53.55 73.75 44.05 70.7 37.6 68.4 33.6 62.9
L 30.1 64.6
Q 28.1 65.5 27.05 63.5
L 27.05 63.35
Q 26.55 62.6 26.85 61.65 27.2 60.6 28.1 60.3
L 30.85 58.9 29.65 56.9 28.4 53.7 25.5 55.05
Q 23.2 56.15 22.45 54 21.95 53.1 22.3 52.15 22.6 51.25 23.5 50.95
L 26.85 49.1
Q 25.5 42.35 27.5 36.25 31 26.1 40.8 21.5 Z"/>
</g>

<path id="casa_0_Layer0_0_1_STROKES" stroke="#5D3214" stroke-width="1" stroke-linejoin="miter" stroke-linecap="butt" stroke-miterlimit="10" fill="none" d="
M 94.6 180.9
L 94.6 142.55 115.5 142.55 115.5 180.9"/>

<path id="Body_0_Layer0_0_1_STROKES" stroke="#008D36" stroke-width="1" stroke-linejoin="miter" stroke-linecap="round" stroke-miterlimit="10" fill="none" d="
M 111.75 32.65
L 118.35 30.8
M 107 55
L 116.35 52.55
M 102.1 76
L 113.9 72.95
M 88.75 148.35
L 109.3 141.75
M 93.05 121.65
L 110.65 116.9
M 84.3 180.2
L 107.75 172.7
M 97.2 99.45
L 112.05 95.45
M 80.8 216.7
L 106.55 208.55
M 78.95 255.9
L 105.3 247.65
M 79.7 293.15
L 104.4 285.35"/>

<path id="Body_0_Layer0_0_2_STROKES" stroke="#F29100" stroke-width="1" stroke-linejoin="miter" stroke-linecap="round" stroke-miterlimit="10" fill="none" d="
M 105.6 40.9
L 120.95 36.6
M 105.3 62.05
L 115.4 59.15
M 100.55 82.9
L 113.25 79.55
M 91.65 129.5
L 110.2 123.65
M 96.55 106.65
L 111.6 102.5
M 83.1 190.95
L 107.45 183.25
M 87.35 157.7
L 108.85 151.1
M 84.75 304.2
L 102.4 298.05
M 79.85 229.25
L 106.05 220.5
M 78.8 268.15
L 105 259.9"/>

<path id="Body_0_Layer0_0_3_STROKES" stroke="#D2E8F1" stroke-width="1" stroke-linejoin="miter" stroke-linecap="round" stroke-miterlimit="10" fill="none" d="
M 103.6 69.1
L 114.65 66.5
M 99 90.1
L 112.65 86.6
M 109.3 45.95
L 123.55 42
M 90.15 138.85
L 109.75 132.55
M 94.25 114.75
L 110.95 110.5
M 85.85 168.25
L 108.35 160.9
M 90.9 314.6
L 94.6 313.35
M 79.25 241.5
L 105.75 233.05
M 79.1 280.9
L 104.7 272.6
M 82 201.95
L 107 194.15"/>

<path id="head_0_Layer1_0_1_STROKES" stroke="#DC9886" stroke-width="1" stroke-linejoin="miter" stroke-linecap="butt" stroke-miterlimit="10" fill="none" d="
M 60.7 66.45
L 63.45 100.65
Q 63.6 101.25 63.3 101.85
L 62.2 102 55.15 101.55"/>
</defs>

<g transform="matrix( 3.0648040771484375, 0, 0, 3.0648040771484375, 3.05,21.45) ">
<g transform="matrix( 1, 0, 0, 1, 0,0) ">
<use filter="url(#Filter_1)" xlink:href="#valuta_casa_big_svg_Layer_1_Tracciato_1798_0_Layer0_0_FILL"/>
</g>
</g>

<g transform="matrix( 3.0648040771484375, 0, 0, 3.0648040771484375, 23.4,26.8) ">
<g transform="matrix( 1, 0, 0, 1, 0,0) ">
<use filter="url(#Filter_2)" xlink:href="#valuta_casa_big_svg_Layer_1_Tracciato_3387_0_Layer0_0_FILL"/>
</g>
</g>

<g transform="matrix( 3.0648040771484375, 0, 0, 3.0648040771484375, -44.25,21.45) ">
<mask id="Mask_Mask_1">
<g transform="matrix( 1, 0, 0, 1, 0,0) ">
<use xlink:href="#Mask_valuta_casa_big_svg_Layer_1__Clip_Group__2_0_2_MASK_0_FILL"/>
</g>
</mask>

<g mask="url(#Mask_Mask_1)">
<g transform="matrix( 1, 0, 0, 1, 0,23) ">
<g transform="matrix( 1, 0, 0, 1, 0,0) ">
<use xlink:href="#casa_0_Layer0_0_FILL"/>

<use xlink:href="#casa_0_Layer0_0_1_STROKES"/>
</g>
</g>
</g>
</g>

<g transform="matrix( 1, 0, 0, 1, 796.5,184.35) ">
<g transform="matrix( 1, 0, 0, 1, 0,0) ">
<use xlink:href="#Body_0_Layer0_0_FILL"/>

<use xlink:href="#Body_0_Layer0_0_1_STROKES"/>

<use xlink:href="#Body_0_Layer0_0_2_STROKES"/>

<use xlink:href="#Body_0_Layer0_0_3_STROKES"/>
</g>
</g>

<g transform="matrix( 1, 0, 0, 1, 870.25,26.75) ">
<g transform="matrix( 1, 0, 0, 1, 0,0) ">
<use xlink:href="#head_0_Layer1_0_FILL"/>

<use xlink:href="#head_0_Layer1_0_1_STROKES"/>
</g>

<g transform="matrix( 1, 0, 0, 1, 83.2,68.9) ">
<g transform="matrix( 1, 0, 0, 1, 0,0) ">
<use xlink:href="#occhiolino_0_Layer1_0_FILL"/>
</g>

<g transform="matrix( 1, 0, 0, 1, 0,0) ">
<use xlink:href="#occhiolino_0_Layer0_0_FILL"/>
</g>
</g>
</g>

<g transform="matrix( 1, 0, 0, 1, 568.45,125.35) ">
<g transform="matrix( 0.98541259765625, 0.16998291015625, -0.16998291015625, 0.98541259765625, 30.4,132.75) ">
<g transform="matrix( 1, 0, 0, 1, 0,0) ">
<use xlink:href="#hand_0_Layer0_0_FILL"/>
</g>
</g>

<g transform="matrix( 0.995849609375, -0.0908355712890625, 0.0908355712890625, 0.995849609375, 68.95,119.3) ">
<g transform="matrix( 1, 0, 0, 1, 0,0) ">
<use xlink:href="#braccio__0_Layer0_0_FILL"/>
</g>
</g>

<g transform="matrix( 0.9659271240234375, -0.2587890625, 0.2587890625, 0.9659271240234375, -10.35,53.6) ">
<g transform="matrix( 1.6915130615234375, 0, 0, 1.6915130615234375, -31.6,-31.55) ">
<g transform="matrix( 1, 0, 0, 1, 0,0) ">
<use xlink:href="#clipInt_0_Layer0_0_FILL"/>
</g>

<g transform="matrix( 1, 0, 0, 1, 0,0) ">
<g transform="matrix( 1, 0, 0, 1, 0,0) ">
<use xlink:href="#dan__0_Layer0_0_FILL"/>
</g>
</g>
</g>
</g>
</g>
</svg>
