
<svg xmlns="http://www.w3.org/2000/svg" version="1.1" xmlns:xlink="http://www.w3.org/1999/xlink" preserveAspectRatio="none" x="0px" y="0px" width="1280px" height="686px" viewBox="0 0 1280 686">
<defs>
<g id="animation1_0_Layer9_0_FILL">
<path fill="#F8FAF2" stroke="none" d="
M 349.65 221.95
Q 378.55 216.25 394.6 199.8 433.5 159.9 413.1 120.6 388.7 73.5 280.7 32.7 222 10.5 183.05 3.55 143.4 -3.5 114.7 3.5 87.4 10.15 63.4 31.35 42.9 49.5 16.75 86.1 -5.95 117.9 2.15 143.1 6.9 157.8 22 169.85 23.1 170.75 24.25 171.6 23.9 171.05 23.55 170.55 44 193.9 83.9 200.8 123.75 207.6 153.15 209.6 182.5 211.55 225.1 217.25 268.3 223.05 290 224.45 325.75 226.65 349.65 221.95
M 279.7 40.9
Q 291.75 43.95 302.15 47.55
L 279.7 40.9 Z"/>
</g>

<g id="animation1_0_Layer8_0_FILL">
<path fill="#EDF0E1" stroke="none" d="
M 336.05 140.05
Q 361.05 101.1 337.65 73.05 309.6 39.4 214.2 25.35 162.35 17.7 129.25 18.9 95.55 20.1 73.25 30.7 52 40.85 36 62.1 22.3 80.25 7.15 114.3 -5.95 143.85 5 162.75 5.8 164.1 6.7 165.4 16.65 179.6 41.25 186.6 51.8 189.6 64.55 191.2 78.9 193 96 192.95 122.55 192.95 149.35 188.8 164.4 186.45 200.25 183.65 236.7 180.75 254.6 178.1 284.25 173.7 303.05 165.7 325.75 156.1 336.05 140.05 Z"/>
</g>

<g id="tappeto_0_Layer0_0_FILL">
<path fill="#D67C3E" stroke="none" d="
M 41.65 1.2
L 43.15 0 29.3 0 0 19.9 17.75 19.9 19.1 18.85 14.95 18.85 15.65 18.3 19.8 18.3 21.3 17.1 17.2 17.1 17.9 16.6 21.95 16.6 23.45 15.4 19.4 15.4 20.1 14.85 24.15 14.85 25.65 13.7 21.65 13.7 22.35 13.15 26.35 13.15 27.85 12 23.85 12 24.55 11.45 28.5 11.45 30 10.25 26.1 10.25 26.8 9.75 30.7 9.75 32.2 8.55 28.3 8.55 29 8 32.9 8 34.4 6.85 30.55 6.85 31.25 6.3 35.1 6.3 36.6 5.15 32.8 5.15 33.5 4.6 37.25 4.6 38.75 3.45 35 3.45 35.7 2.9 39.45 2.9 40.95 1.7 37.25 1.7 37.95 1.2 41.65 1.2
M 42.55 19.9
L 61.65 0 59 0 38.95 19.9 42.55 19.9
M 246.2 19.9
L 228.7 0 65.9 0 48.35 19.9 246.2 19.9
M 252 19.9
L 255.3 19.9 235.25 0 232.95 0 252 19.9
M 265.25 8
L 265.95 8.55 262.05 8.55 263.55 9.75 267.5 9.75 268.2 10.25 264.25 10.25 265.75 11.45 269.7 11.45 270.4 12 266.45 12 267.95 13.15 271.9 13.15 272.6 13.7 268.6 13.7 270.1 14.85 274.15 14.85 274.85 15.4 270.8 15.4 272.3 16.6 276.4 16.6 277.1 17.1 273 17.1 274.5 18.3 278.6 18.3 279.3 18.85 275.15 18.85 276.5 19.9 294 19.9 264.65 0 251.15 0 252.65 1.2 256.35 1.2 257.05 1.7 253.3 1.7 254.8 2.9 258.55 2.9 259.25 3.45 255.5 3.45 257 4.6 260.8 4.6 261.5 5.15 257.7 5.15 259.2 6.3 263 6.3 263.7 6.85 259.85 6.85 261.35 8 265.25 8 Z"/>

<path fill="#BF2702" stroke="none" d="
M 59 0
L 43.15 0 41.65 1.2 37.95 1.2 37.25 1.7 40.95 1.7 39.45 2.9 35.7 2.9 35 3.45 38.75 3.45 37.25 4.6 33.5 4.6 32.8 5.15 36.6 5.15 35.1 6.3 31.25 6.3 30.55 6.85 34.4 6.85 32.9 8 29 8 28.3 8.55 32.2 8.55 30.7 9.75 26.8 9.75 26.1 10.25 30 10.25 28.5 11.45 24.55 11.45 23.85 12 27.85 12 26.35 13.15 22.35 13.15 21.65 13.7 25.65 13.7 24.15 14.85 20.1 14.85 19.4 15.4 23.45 15.4 21.95 16.6 17.9 16.6 17.2 17.1 21.3 17.1 19.8 18.3 15.65 18.3 14.95 18.85 19.1 18.85 17.75 19.9 38.95 19.9 59 0
M 265.95 8.55
L 265.25 8 261.35 8 259.85 6.85 263.7 6.85 263 6.3 259.2 6.3 257.7 5.15 261.5 5.15 260.8 4.6 257 4.6 255.5 3.45 259.25 3.45 258.55 2.9 254.8 2.9 253.3 1.7 257.05 1.7 256.35 1.2 252.65 1.2 251.15 0 235.25 0 255.3 19.9 276.5 19.9 275.15 18.85 279.3 18.85 278.6 18.3 274.5 18.3 273 17.1 277.1 17.1 276.4 16.6 272.3 16.6 270.8 15.4 274.85 15.4 274.15 14.85 270.1 14.85 268.6 13.7 272.6 13.7 271.9 13.15 267.95 13.15 266.45 12 270.4 12 269.7 11.45 265.75 11.45 264.25 10.25 268.2 10.25 267.5 9.75 263.55 9.75 262.05 8.55 265.95 8.55 Z"/>

<path fill="#CCB48D" stroke="none" d="
M 48.35 19.9
L 65.9 0 61.65 0 42.55 19.9 48.35 19.9 Z"/>

<path fill="#B7301F" stroke="none" d="
M 246.2 19.9
L 252 19.9 232.95 0 228.7 0 246.2 19.9 Z"/>

<path fill="#B5937C" stroke="none" d="
M 294 20.75
L 294 19.9 276.5 19.9 255.3 19.9 252 19.9 246.2 19.9 48.35 19.9 42.55 19.9 38.95 19.9 17.75 19.9 0 19.9 0 20.75 294 20.75 Z"/>
</g>

<g id="cesta_0_Layer0_0_FILL">
<path fill="#F4BC62" stroke="none" d="
M 73 8.6
Q 73 5.05 63.4 2.5 53.8 0 40.2 0 26.6 0 17 2.5 7.4 5.05 7.4 8.6 7.4 8.851171875 7.45 9.1 3.937109375 12.1029296875 2 16.3 -0.15 20.9 0 25.9 0.1 33.1 4.1 38.35 5.7833984375 40.5384765625 7.4 41.7 7.4 41.898046875 7.4 42.1 7.4 45.65 17 48.2 26.6 50.7 40.2 50.7 53.8 50.7 63.4 48.2 73 45.65 73 42.1 73 41.800390625 72.9 41.5
L 76.3 38.35
Q 80.3 33.1 80.4 25.9 80.5 20.85 78.4 16.3 76.42890625 12.128515625 72.95 9.1 73 8.869921875 73 8.6
M 68.45 13
Q 71.9208984375 17.9373046875 72.9 24.35 74.35 33.95 68.65 42.1 74.35 33.95 72.9 24.35 71.9208984375 17.9373046875 68.45 13
M 53.95 16.45
Q 54.6603515625 16.3611328125 55.35 16.25 54.6603515625 16.3611328125 53.95 16.45 58.0857421875 26.2056640625 55.5 45.35 58.0857421875 26.2056640625 53.95 16.45 53.3556640625 16.531640625 52.75 16.6
L 40.2 17.2 52.75 16.6
Q 53.3556640625 16.531640625 53.95 16.45
M 47.2 31.55
Q 47.55 39.55 46.2 46.9 47.55 39.55 47.2 31.55 46.85 23.1 44.7 17.35 46.85 23.1 47.2 31.55
M 64.85 28.2
Q 65.35 37.25 62.55 44.2 65.35 37.25 64.85 28.2 64.4 20 61.85 15.3 64.4 20 64.85 28.2
M 55.65 4.75
Q 62.05 6.1 62.05 8.05 62.05 10 55.65 11.4 49.2 12.8 40.2 12.8 31.15 12.8 24.7 11.4 18.3 10 18.3 8.05 18.3 6.1 24.7 4.75 31.1 3.35 40.2 3.35 49.25 3.35 55.65 4.75
M 52.75 47.65
Q 66.5 46.1 72.3 41.45 66.5 46.1 52.75 47.65
L 40.2 48.25
Q 29.6 48.1 20.25 46.2 12.95 44.7 11.05 43.4
L 8.05 41.3 11.05 43.4
Q 12.95 44.7 20.25 46.2 29.6 48.1 40.2 48.25
L 52.75 47.65
M 12.55 13.25
Q 9.255078125 18.14296875 8.3 24.35 6.85 33.95 12.55 42.1 6.85 33.95 8.3 24.35 9.255078125 18.14296875 12.55 13.25
M 16.35 28.2
Q 15.85 37.25 18.65 44.2 15.85 37.25 16.35 28.2 16.8 20 19.35 15.3 16.8 20 16.35 28.2
M 34 31.55
Q 33.65 39.6 35 46.9 33.65 39.6 34 31.55 34.4 23.15 36.5 17.35 34.4 23.15 34 31.55
M 27.2 16.5
Q 23.13046875 26.3255859375 25.7 45.35 23.13046875 26.3255859375 27.2 16.5 Z"/>

<path fill="#F2B357" stroke="none" d="
M 62.05 8.05
Q 62.05 6.1 55.65 4.75 49.25 3.35 40.2 3.35 31.1 3.35 24.7 4.75 18.3 6.1 18.3 8.05 18.3 10 24.7 11.4 31.15 12.8 40.2 12.8 49.2 12.8 55.65 11.4 62.05 10 62.05 8.05
M 46.3 7.05
Q 48.8 7.45 48.8 7.95 48.8 8.45 46.3 8.85 43.8 9.2 40.2 9.2 36.6 9.2 34.1 8.85 31.55 8.5 31.55 7.95 31.55 7.45 34.1 7.05 36.6 6.7 40.2 6.7 43.8 6.7 46.3 7.05 Z"/>

<path fill="#E5A248" stroke="none" d="
M 48.8 7.95
Q 48.8 7.45 46.3 7.05 43.8 6.7 40.2 6.7 36.6 6.7 34.1 7.05 31.55 7.45 31.55 7.95 31.55 8.5 34.1 8.85 36.6 9.2 40.2 9.2 43.8 9.2 46.3 8.85 48.8 8.45 48.8 7.95 Z"/>
</g>

<g id="gatto__0_Layer0_0_FILL">
<path fill="#3A3D47" stroke="none" d="
M 15.6 16.65
Q 15.65 16.7 17.15 18.25 18.1 19.2 18.6 19.1 19.25 18.95 20 18.6 20.2 17.85 20.25 16.25 20.35 13.5 19.55 13.25 18.75 13 16.2 14.8 15.1 15.6 14.45 16.2 15.25 16.4 15.6 16.65
M 42.85 21.9
L 42.9 22.1
Q 43.6 26.4 44.3 27.35 44.95 28.25 46.3 29.2 47 29.65 47.65 30.1 47.45 32.6 46.4 35.05 45.55 35.55 44.85 35.95 43.55 36.75 43.5 37.15 43.45 37.65 45.8 37.6 48.15 37.55 48.6 37.2 49 36.95 50.55 33.15 51.4107421875 31.156640625 51.8 30 51.8625 29.9080078125 51.9 29.8 51.5 29.75 51.05 29.65 49.95 29.45 47.7 26.8 47.8640625 27.0650390625 48.05 27.3 48.551953125 28.10234375 49.15 28.85 49.15 28.95 49.1 28.9 49.078125 28.87734375 49.05 28.85 47.6859375 27.42265625 46.8 25.7 46.45 25.3 46.2 25 46.283984375 25.16796875 46.35 25.3 47.0451171875 26.6400390625 47.8 27.75
L 47.75 27.8
Q 46.6357421875 26.3607421875 45.95 24.75 45.9 24.625 45.85 24.5 43.95 22.2 43.9 22.15 43.85 22.05 43.65 21.95 43.3 21.8 42.85 21.7
L 42.85 21.9 Z"/>

<path fill="#6A6879" stroke="none" d="
M 54.8 5.8
L 54.8 5.75
Q 52.95 3.35 48.85 1.65 43.35 -0.6 40.3 0.8 39.7 1.1 37.3 3.5 37.6 3.05 38 2.5 39.2 1.15 40.9 0.1
L 40.95 0.05 40.9 0
Q 37.85 1.25 36.2 3.9 36.95 2.35 37.65 1.5 37.65 1.35 37.55 1.45 36.45 2.65 35.5 4.5 35.1 5.2 34.7 6.1 33 7.8 30.8 10.1 24.15 17.05 20.1 18.85 19.35 19.2 18.7 19.35 18.2 19.45 17.25 18.5 15.75 16.95 15.7 16.9 15.35 16.65 14.55 16.45 13.7 16.2 12.35 16 11.65 15.9 11.1 15.85 10.65 15.3 9.8 14.45 7.65 12.25 6.85 12.2 6.05 12.2 5.15 16.15 4.5 18.9 4.65 19.95 1.6 23.6 1.45 25.65 1.45 26.1 1.45 26.5 1.45 26.55 1.5 26.65 1.5 27.2 1.7 27.75 1.7 27.8 1.75 27.95 1.9 28.55 2.25 29.1 2.3 29.2 2.4 29.35 3.35 30.75 5.25 31.7 9.05 33.55 13.9 32.3 13.9 32.25 13.95 32.25
L 14 32.25
Q 13.95 32.3 13.9 32.4 11.65 35 8.7 36.45 6 37.75 2.35 38.2 0 38.5 0 39.3 0.05 40.55 4.15 40.4 8.05 40.25 12.9 39 15.3 38.25 17.4 36.9 17.85 36.65 18.3 36.35 18.15 36.5 18.05 36.6 16.05 38.45 14.05 39.25
L 14 39.3 14.1 39.35
Q 16.35 38.75 18.3 36.9 18.9 36.3 19.55 35.55 19.85 35.3 20.15 35.15 19.35 36.1 18.5 37.05
L 18.5 37.1 18.55 37.15
Q 19.85 36.3 20.95 34.7 21.05 34.55 21.15 34.45 24 32.35 27.65 29.35 30.85 26.7 34.5 23.6 36.2 22.35 39.45 21.95 41.5912109375 21.706640625 42.85 21.9
L 42.85 21.7
Q 43.3 21.8 43.65 21.95 43.85 22.05 43.9 22.15 43.95 22.2 45.85 24.5 45.9 24.625 45.95 24.75 46.6357421875 26.3607421875 47.75 27.8 46.9876953125 26.625390625 46.3 25.25 46.33359375 25.2904296875 46.35 25.3 46.283984375 25.16796875 46.2 25 46.45 25.3 46.8 25.7 47.6859375 27.42265625 49.05 28.85 48.3705078125 27.971484375 47.8 27.05 47.9205078125 27.1919921875 48.05 27.3 47.8640625 27.0650390625 47.7 26.8 49.95 29.45 51.05 29.65 51.5 29.75 51.9 29.8 51.8625 29.9080078125 51.8 30 51.9111328125 30.0388671875 52 30.05 53.4 30.35 53.95 30.5 55.25 30.85 55.2 31.4 54.6 34.3 53.35 37.7 52.45 38.2 51.8 38.55 50.5 39.25 50.55 39.9 50.6 40.6 52.85 40.55 55 40.45 55.45 39.95 55.9 39.45 57.7 35.5 59.6 31.25 59.65 30.05 59.7 28.95 57.7 27.1
L 57.8 27.15
Q 59.4 28.3 59.95 29.65
L 60 29.65
Q 59.55 28.1 58.25 27.25 57.45 26.65 56.6 26.1 55.55 25.2 55.5 25.05 55.45 24.9 56.15 17.8 56.6 13 56.3 10.05 56.6 11.05 56.75 12.15
L 56.8 12.2 56.85 12.15
Q 56.85 10.1 56.05 8.45 55.95 8.2 55.9 8 56.55 9.1 56.9 10.35 57 10.4 57 10.35 56.45 8 55 6.05 54.95 6 54.9 5.95 54.85 5.85 54.8 5.8 Z"/>
</g>

<g id="sx_0_Layer1_0_FILL">
<path fill="#F8BB98" stroke="none" d="
M 199.25 98.15
Q 200.05 89.45 192 78.7 189.45 75.35 186.35 72.2
L 183.75 69.7 174.1 82 175.65 82.75
Q 177.55 83.85 179.15 85.3 184.2 90 184.4 96.85 184.8 103.05 179.1 106.85 177.15 108.2 173.75 109.65 169.95 111.25 168.25 112.05 165.55 113.25 163 113.2
L 159.25 112.7
Q 157.4 112.45 157 113.9 156.6 115.3 157.95 115.6
L 161.15 116.25 157.95 117.5
Q 151.15 118.15 149.2 118.15 147.85 118.15 147.85 119.3 147.85 120.45 148.9 120.45 150.5 120.45 156.95 120.75 149.55 121.7 147.6 121.7 147.1 121.75 146.75 122.1 146.4 122.45 146.4 122.95 146.35 123.45 146.7 123.85 147.05 124.25 147.6 124.3 148.9 124.3 156.65 123.65
L 148.55 124.95 148.35 125
Q 147.95 125.1 147.75 125.45 147.55 125.8 147.65 126.2 147.75 126.6 148.15 126.8 148.5 127 148.9 126.9 150.5 126.55 156.65 125.6
L 150.85 127.2
Q 150.15 127.45 150.4 128 150.6 128.5 151.15 128.5 157.4 128.65 163.1 126.25 179.3 119.45 185.3 115.75 198.4 107.55 199.25 98.15 Z"/>
</g>

<g id="dx_0_Layer1_0_FILL">
<path fill="#F8BB98" stroke="none" d="
M 167.25 137.95
Q 163.5 138.45 163.45 138.45 160.9 138.5 158.2 137.3 150.6 134.3 147.35 132.1 141.65 128.3 142.05 122.1 142.25 115.25 147.35 110.55 149.9 108.2 152.4 107.25
L 142.7 94.95
Q 138.5 98.6 134.45 103.95 126.4 114.7 127.2 123.4 128.25 132.8 141.4 141 147 144.45 163.35 151.5 169.05 153.9 175.3 153.75 175.85 153.75 176.1 153.25 176.3 152.7 175.65 152.45
L 169.8 150.85 177.55 152.15
Q 177.95 152.25 178.35 152.05 178.7 151.85 178.8 151.45 178.9 151.1 178.7 150.7 178.55 150.35 178.15 150.25
L 169.8 148.9 178.85 149.55
Q 179.4 149.5 179.75 149.1 180.1 148.75 180.1 148.2 180.05 147.7 179.7 147.35 179.35 147 178.85 146.95 177.65 146.95 173.45 146.5
L 169.5 146 177.55 145.7
Q 178.6 145.7 178.6 144.55 178.65 143.4 177.25 143.4
L 168.55 142.75 165.3 141.5 168.55 140.85
Q 169.85 140.55 169.45 139.15 169.05 137.7 167.25 137.95 Z"/>
</g>

<g id="animation1_0_Layer3_0_FILL">
<path fill="#FFFFFF" stroke="none" d="
M 275.8 107.15
Q 275.81640625 107.0681640625 275.8 106.95 274.0447265625 107.0693359375 272.25 107.45 272.2 107.5 272.25 107.5 274.0771484375 107.258203125 275.8 107.15
M 276.75 109.85
Q 276.6587890625 109.7138671875 276.55 109.55 273.7392578125 110.4888671875 271.15 112.1 270.9 112.35 271.2 112.2 273.887109375 110.8271484375 276.75 109.85
M 276.05 108.4
Q 276.0423828125 108.3224609375 276 108.2 272.6083984375 108.676171875 269.4 109.9 269.35 110 269.4 110 272.63359375 108.9666015625 276.05 108.4 Z"/>

<path fill="#3A3D47" stroke="none" d="
M 288.3 112.75
Q 288.271484375 112.7576171875 288.25 112.75 288.212109375 112.839453125 288.2 112.85 288.2935546875 112.81640625 288.35 112.75
L 288.3 112.75 Z"/>
</g>

<g id="donna_0_Layer4_0_FILL">
<path fill="#A05417" stroke="none" d="
M 81.65 52.35
Q 82.05 42.9 81.9 40.85 81.45 37.1 80.95 29.85 80.7 26.9 79.9 21.8 79 16.05 78.3 13.75 76.45 7.55 71.25 3.75 66 -0.1 59.5 0 54.5 0.25 49.9 3.55 45.8 6.5 43.05 11.1 40.85 14.9 39.7 20.25 39.05 23.35 38.4 29.85 37.6 38.95 37.6 41.3 37.6 43.65 38.4 52.7
L 74.95 51.7
Q 75.1 51.7 77.15 52.1 79.2 52.3 79.65 51.7 79.8 51.5 80.75 52.05 81.65 52.5 81.65 52.35 Z"/>
</g>

<g id="donna_0_Layer2_0_FILL">
<path fill="#FFFFFF" stroke="none" d="
M 99.8 152.1
Q 94.7396484375 152.7888671875 92.3 153.1 90.1439453125 153.4 90.05 153.4
L 89.1 165 90.1 165.1 98.2 165.85
Q 99.5673828125 165.9568359375 100.8 166 99.7015625 165.9439453125 98.5 165.85
L 89.4 165 90.4 153.4 99.85 152.1 99.8 152.1
M 117.15 157.9
Q 116.8 153.25 113.7 151.9
L 111.1 151.5
Q 109.5078125 153.825390625 109.25 157.65 109.0330078125 161.470703125 110.25 164.9
L 113.85 163.75
Q 117.55 161.75 117.15 157.9
M 112.9 150.85
Q 112.337890625 150.8 111.7 150.8 111.3978515625 151.1373046875 111.1 151.5
L 113.7 151.9
Q 116.8 153.25 117.15 157.9 117.55 161.75 113.85 163.75
L 110.25 164.9
Q 110.466015625 165.41484375 110.65 165.9 114.2291015625 165.0875 116.3 163.45 118.8 161.5 118.8 158.55 118.8 155.55 117.55 153.6 116.03359375 151.241015625 112.9 150.85
M 9.65 150.8
Q 9.0384765625 150.8 8.45 150.85 5.3283203125 151.22265625 3.8 153.6 2.55 155.55 2.55 158.55 2.55 161.5 5.05 163.45 7.1208984375 165.0873046875 10.65 165.9 10.8615234375 165.466796875 11 165 9 164.75 7.15 163.75 3.45 161.75 3.85 157.9 4.25 153.25 7.3 151.9
L 10.2 151.45
Q 9.943359375 151.11328125 9.65 150.8
M 12.1 157.65
Q 11.8833984375 153.7498046875 10.2 151.45
L 7.3 151.9
Q 4.25 153.25 3.85 157.9 3.45 161.75 7.15 163.75 9 164.75 11 165 12.3203125 161.5291015625 12.1 157.65
M 31.9 160.7
L 31.3 153.4
Q 29.4837890625 153.143359375 27.8 152.9 29.34296875 153.1619140625 31 153.4
L 31.95 165
Q 29.8634765625 165.237890625 27.95 165.45 29.30078125 165.33125 30.7 165.15 31.4716796875 165.088671875 32.25 165
L 31.9 160.7 Z"/>

<path fill="#006633" stroke="none" d="
M 109.25 157.65
Q 109.5078125 153.825390625 111.1 151.5
L 110.7 151.45 111.1 151.5
Q 111.3978515625 151.1373046875 111.7 150.8 109.7048828125 150.8 99.85 152.1
L 90.4 153.4 89.4 165 98.5 165.85
Q 99.7015625 165.9439453125 100.8 166
L 106.35 166.25
Q 107.0654296875 166.2453125 107.65 166.2 107.7203125 166.226171875 107.75 166.2
L 108 166.2
Q 109.7923828125 166.176953125 110.7 165.95
L 110.65 165.9
Q 110.466015625 165.41484375 110.25 164.9 109.0330078125 161.470703125 109.25 157.65
M 105.9 153.7
Q 104.65 155.15 104.45 157.85 104.3 160.6 105.25 162.75 103.65 163.15 96.55 162.5
L 89.75 161.75 90.4 155.95
Q 89.95 155.95 97.3 154.85 104.65 153.7 105.9 153.7
M 31 153.4
Q 29.34296875 153.1619140625 27.8 152.9
L 9.8 150.8
Q 9.726171875 150.8 9.65 150.8 9.943359375 151.11328125 10.2 151.45 11.8833984375 153.7498046875 12.1 157.65 12.3203125 161.5291015625 11 165 10.8615234375 165.466796875 10.65 165.9
L 10.65 165.95
Q 11.574609375 166.1701171875 13.1 166.25
L 14.05 166.25 27.95 165.45
Q 29.8634765625 165.237890625 31.95 165
L 31 153.4
M 31 155.95
L 31.65 161.75
Q 18.7 163.4 16.15 162.75 17.1 160.6 16.9 157.85 16.7 155.15 15.5 153.7 16.75 153.7 24.1 154.85 31.45 155.95 31 155.95 Z"/>

<path fill="#3AAA35" stroke="none" d="
M 104.45 157.85
Q 104.65 155.15 105.9 153.7 104.65 153.7 97.3 154.85 89.95 155.95 90.4 155.95
L 89.75 161.75 96.55 162.5
Q 103.65 163.15 105.25 162.75 104.3 160.6 104.45 157.85
M 31.65 161.75
L 31 155.95
Q 31.45 155.95 24.1 154.85 16.75 153.7 15.5 153.7 16.7 155.15 16.9 157.85 17.1 160.6 16.15 162.75 18.7 163.4 31.65 161.75 Z"/>

<path fill="#DADADA" stroke="none" d="
M 121.35 158.55
Q 121.35 155.55 120.1 153.6 118.8376953125 151.58046875 116.35 151 115.3927734375 150.8 114.25 150.8 113.7990234375 150.8 112.9 150.85 116.03359375 151.241015625 117.55 153.6 118.8 155.55 118.8 158.55 118.8 161.5 116.3 163.45 114.2291015625 165.0875 110.65 165.9
L 110.7 165.95
Q 109.7923828125 166.176953125 108 166.2 111.5759765625 166.3060546875 113 165.95 116.7 165.15 118.85 163.45 121.35 161.5 121.35 158.55
M 7.1 150.8
Q 6.7734375 150.8 6.45 150.8 2.9048828125 151.02578125 1.25 153.6 0 155.55 0 158.55 0 161.5 2.5 163.45 4.65 165.15 8.4 165.95 10.136328125 166.3634765625 14.05 166.25
L 13.1 166.25
Q 11.574609375 166.1701171875 10.65 165.95
L 10.65 165.9
Q 7.1208984375 165.0873046875 5.05 163.45 2.55 161.5 2.55 158.55 2.55 155.55 3.8 153.6 5.3283203125 151.22265625 8.45 150.85 7.6017578125 150.8 7.1 150.8 Z"/>

<path fill="#283270" stroke="none" d="
M 32.25 165
Q 31.4716796875 165.088671875 30.7 165.15 31.2107421875 165.9748046875 31.95 166.3 32.2634765625 166.3 59.95 164.3 57.523828125 164.1037109375 55.05 163.85 41.5451171875 162.4416015625 31.9 160.7
L 32.25 165
M 64.45 140.05
Q 63.0541015625 140.4970703125 61.7 140.9 77.1201171875 145.645703125 91.35 150.45 92.0876953125 151.3029296875 92.3 153.1 94.7396484375 152.7888671875 99.8 152.1
L 99.85 152.1
Q 109.7048828125 150.8 111.7 150.8 112.337890625 150.8 112.9 150.85 113.7990234375 150.8 114.25 150.8 115.3927734375 150.8 116.35 151 119.004296875 148.5705078125 120.55 145.8 123 141.45 122.15 137.4 121.35 133.45 117.75 131.2 113.9 128.8 108.15 129.15 104.3185546875 129.3822265625 96.9 131.05 85.169140625 133.7361328125 64.45 140.05 Z"/>

<path fill="#124180" stroke="none" d="
M 61.7 140.9
Q 60.2890625 140.4873046875 58.85 140.05 35.887890625 133.052734375 23.95 130.5 18.3244140625 129.3423828125 15.15 129.15 9.4 128.8 5.55 131.2 1.9 133.45 1.05 137.4 0.2 141.45 2.55 145.8 4.0048828125 148.4578125 6.45 150.8 6.7734375 150.8 7.1 150.8 7.6017578125 150.8 8.45 150.85 9.0384765625 150.8 9.65 150.8 9.726171875 150.8 9.8 150.8
L 27.8 152.9
Q 29.4837890625 153.143359375 31.3 153.4
L 31.9 160.7
Q 41.5451171875 162.4416015625 55.05 163.85 57.523828125 164.1037109375 59.95 164.3 74.8765625 165.7416015625 88.75 166.3 89.51484375 165.9482421875 90.1 165.1
L 89.1 165 90.05 153.4
Q 90.1439453125 153.4 92.3 153.1 92.0876953125 151.3029296875 91.35 150.45 77.1201171875 145.645703125 61.7 140.9 Z"/>

<path fill="#21285B" stroke="none" d="
M 79.6 114.35
Q 70.8 113.05 59.3 112.95 47.35 112.85 38.9 114.15 36.7419921875 114.4888671875 35 114.9 28.9884765625 116.2939453125 27.75 118.5 25.489453125 122.85 23.95 130.5 35.887890625 133.052734375 58.85 140.05 60.2890625 140.4873046875 61.7 140.9 63.0541015625 140.4970703125 64.45 140.05 85.169140625 133.7361328125 96.9 131.05 94.390234375 123.427734375 90.4 117.85 89.2931640625 116.1896484375 83.15 114.95 81.5677734375 114.6431640625 79.6 114.35 Z"/>

<path fill="#90B225" stroke="none" d="
M 32.1 89.75
Q 32.5744140625 89.426953125 33.05 89.1 34.65 87.95 35.55 87.55 39.5 78.95 42.85 70.35 49.35 53.25 46.1 53.65 46.0037109375 53.6638671875 45.9 53.65 36.2462890625 55.147265625 25.85 64.9 16.45 73.85 12.35 83.55 16.35 88.6 26.65 94.95 29.3744140625 91.842578125 32.1 89.75
M 108.85 85.35
Q 104.9 75.6 95.55 66.55 85.98203125 57.2607421875 76.9 55.3 76.19296875 55.156640625 75.5 55.05 72.2 54.55 78.55 71.75 81.653125 80.089453125 85.3 88.55 85.4349609375 88.8349609375 85.55 89.1
L 88.05 90.6
Q 91.2 92.85 94.45 96.6 95.35 96.5 100.45 92.8 106.45 88.55 108.85 85.35 Z"/>

<path fill="#96C125" stroke="none" d="
M 33.05 89.1
Q 32.5744140625 89.426953125 32.1 89.75 32.5216796875 98.894140625 34.15 109.7 34.5681640625 112.506640625 35 114.9 36.7419921875 114.4888671875 38.9 114.15 47.35 112.85 59.3 112.95 70.8 113.05 79.6 114.35 81.5677734375 114.6431640625 83.15 114.95 83.610546875 111.683203125 84 107.6 84.8580078125 98.434765625 85.3 88.55 81.653125 80.089453125 78.55 71.75 72.2 54.55 75.5 55.05 76.19296875 55.156640625 76.9 55.3 75.0005859375 54.614453125 72.15 53.8
L 66.2 52.3 66.15 52.3 59.05 63.6 52 52.4 51.95 52.3
Q 49.1599609375 52.7810546875 45.9 53.65 46.0037109375 53.6638671875 46.1 53.65 49.35 53.25 42.85 70.35 39.5 78.95 35.55 87.55 34.65 87.95 33.05 89.1 Z"/>

<path fill="#E99D83" stroke="none" d="
M 59.95 45.65
Q 56.8501953125 45.65 54.1 43.5
L 54.1 43.55
Q 54.8619140625 44.651171875 56.05 45.35 57.7 46.4 59.6 46.3 61.9666015625 46.3 63.8 44.75 61.937109375 45.65 59.95 45.65 Z"/>

<path fill="#F7B195" stroke="none" d="
M 59.95 8.75
Q 54.9 8.75 50.85 13.9 46.5 19.35 46.5 26.85 46.5 34.4 50.85 40.15 52.4080078125 42.2400390625 54.1 43.5 56.8501953125 45.65 59.95 45.65 61.937109375 45.65 63.8 44.75 61.9666015625 46.3 59.6 46.3 57.7 46.4 56.05 45.35 54.8619140625 44.651171875 54.1 43.55 53.728125 45.9703125 52.25 51.55 52.1306640625 51.989453125 52 52.4
L 59.05 63.6 66.15 52.3 66.2 52.3
Q 65.322265625 47.310546875 64.8 44.2 67.034375 42.8212890625 69.05 40.15 73.35 34.4 73.35 26.85 73.35 19.35 69.05 13.9 64.95 8.75 59.95 8.75
M 52.95 29.7
Q 53.55 30.3 53.55 31.1 53.55 31.9 52.95 32.45 52.4 33.05 51.6 33.05 50.8 33.05 50.2 32.45 49.65 31.9 49.65 31.1 49.65 30.3 50.2 29.7 50.8 29.15 51.6 29.15 52.4 29.15 52.95 29.7
M 69.25 29.7
Q 69.85 30.3 69.85 31.1 69.85 31.9 69.25 32.45 68.7 33.05 67.9 33.05 67.1 33.05 66.5 32.45 65.95 31.9 65.95 31.1 65.95 30.3 66.5 29.7 67.1 29.15 67.9 29.15 68.7 29.15 69.25 29.7 Z"/>
</g>

<g id="donna_0_Layer2_1_FILL">
<path fill="#F7B195" stroke="none" d="
M 159.65 50.2
Q 158.75 51.15 158.8 52.45 159.45 55.2 162.15 56.15
L 161.8 49.1
Q 160.5 49.2 159.65 50.2 Z"/>
</g>

<g id="donna_0_Layer2_2_FILL">
<path fill="#F7B195" stroke="none" d="
M 190.3 52.45
Q 190.35 51.15 189.45 50.2 188.6 49.2 187.3 49.1
L 186.95 56.15
Q 188.2 55.7 189.1 54.7 190 53.7 190.3 52.45 Z"/>
</g>

<g id="donna_0_Layer2_3_MEMBER_0_MEMBER_0_FILL">
<path fill="#39313C" stroke="none" d="
M 181.6 48.05
Q 181.25 48.7 181.25 49.4 181.25 50.25 181.5 50.8 181.8 51.45 182.25 51.45 183.25 51.45 183.25 49.4 183.25 47.4 182.25 47.4 181.95 47.4 181.6 48.05 Z"/>
</g>

<g id="donna_0_Layer2_3_MEMBER_1_MEMBER_0_FILL">
<path fill="#39313C" stroke="none" d="
M 167.55 48.05
Q 167.15 48.7 167.15 49.4 167.15 50.25 167.4 50.8 167.7 51.45 168.15 51.45 169.2 51.45 169.2 49.4 169.2 47.4 168.15 47.4 167.9 47.4 167.55 48.05 Z"/>
</g>

<g id="donna_0_Layer2_4_MEMBER_0_FILL">
<path fill="#E99D83" stroke="none" d="
M 174.9 50.1
Q 175.2 51.75 175.9 54.8 175.9 55.45 176.2 57.15 176.2 57.4 176.15 57.4 176.15 57.45 175.9 57.45
L 173.9 57.45
Q 173.65 57.45 173.45 57.8 173.3 58.15 173.55 58.15
L 176.2 58.15
Q 176.55 58.15 176.55 57.45 176.2 56.45 176.2 56.15 175.85 53.15 174.9 50.1 Z"/>
</g>

<g id="donna_0_Layer2_5_MEMBER_0_FILL">
<path fill="#E66E60" stroke="none" d="
M 181.6 43.4
Q 180.4 43.35 179.25 43.7 178.95 43.7 178.6 43.9 178.25 44.15 178.25 44.4
L 178.25 44.7
Q 178.45 44.95 178.9 45.05 179.6 45.05 179.6 44.7 181.6 44 183.6 44.7 183.8 44.7 183.95 44.9 184.1 45.05 184.25 45.05 184.8 45.05 184.9 45 185.05 44.95 185.3 44.7 185.1 44.3 184.75 44.1 184.3 43.9 183.95 43.7 182.8 43.25 181.6 43.4 Z"/>
</g>

<g id="donna_0_Layer2_5_MEMBER_1_FILL">
<path fill="#E66E60" stroke="none" d="
M 165.85 43.7
Q 165.55 43.7 165.2 43.9 164.8 44.15 164.8 44.4
L 164.8 44.7
Q 165.05 44.95 165.5 45.05 166.15 45.05 166.15 44.7 168.2 44.1 170.2 44.7 170.35 44.7 170.5 44.9 170.65 45.05 170.85 45.05 171.4 45.05 171.5 45 171.65 44.95 171.85 44.7 171.65 44.3 171.35 44.1 170.85 43.9 170.5 43.7 169.4 43.25 168.2 43.4 167 43.35 165.85 43.7 Z"/>
</g>

<g id="donna_0_Layer2_6_MEMBER_0_MEMBER_0_FILL">
<path fill="#E66E60" stroke="none" d="
M 179.9 61.15
Q 174.75 63.25 169.5 61.15 170.85 62.6 172.75 63.15 174.65 63.7 176.55 63.15 178.5 62.65 179.9 61.15 Z"/>
</g>

<g id="donna_0_Layer2_6_MEMBER_1_MEMBER_0_FILL">
<path fill="#FFFFFF" stroke="none" d="
M 179.9 60.8
Q 174.85 62.8 169.5 61.15 173.35 63.25 177.55 62.15 178.85 61.7 179.9 60.8 Z"/>
</g>

<g id="donna_0_Layer1_0_FILL">
<path fill="#F7B195" stroke="none" d="
M 70.3 31.15
Q 70.3 30.15 69.6 29.45 68.9 28.75 67.9 28.75 66.95 28.75 66.25 29.45 65.55 30.15 65.55 31.15 65.55 32.15 66.25 32.85 66.95 33.55 67.9 33.55 68.9 33.55 69.6 32.85 70.3 32.15 70.3 31.15
M 53.85 33.45
Q 54.65 32.65 54.65 31.5 54.65 30.35 53.85 29.5 53.05 28.7 51.9 28.7 50.75 28.7 49.95 29.5 49.15 30.35 49.15 31.5 49.15 32.65 49.95 33.45 50.75 34.25 51.9 34.25 53.05 34.25 53.85 33.45 Z"/>
</g>

<g id="donna_0_Layer0_0_FILL">
<path fill="#EF9C95" stroke="none" d="
M 69.25 32.45
Q 69.85 31.9 69.85 31.1 69.85 30.3 69.25 29.7 68.7 29.15 67.9 29.15 67.1 29.15 66.5 29.7 65.95 30.3 65.95 31.1 65.95 31.9 66.5 32.45 67.1 33.05 67.9 33.05 68.7 33.05 69.25 32.45
M 52.95 32.45
Q 53.55 31.9 53.55 31.1 53.55 30.3 52.95 29.7 52.4 29.15 51.6 29.15 50.8 29.15 50.2 29.7 49.65 30.3 49.65 31.1 49.65 31.9 50.2 32.45 50.8 33.05 51.6 33.05 52.4 33.05 52.95 32.45 Z"/>
</g>

<g id="pc_0_Layer0_0_MEMBER_0_FILL">
<path fill="#BBBABA" stroke="none" d="
M 207.35 109.9
Q 206.95 109.8 206.6 109.85
L 146.25 109.85
Q 144.85 109.9 143.75 110.8 142.7 111.65 142.4 113.05
L 139.8 150.85
Q 139.55 151.85 140.05 152.8 140.6 153.75 141.65 154
L 142.4 154.1 203.05 154.1
Q 204.5 154.05 205.55 153.15 206.65 152.25 206.95 150.85
L 209.2 113.05
Q 209.45 112.05 208.95 111.1 208.4 110.2 207.35 109.9 Z"/>
</g>

<g id="pc_0_Layer0_0_MEMBER_1_FILL">
<path fill="#A8A8A7" stroke="none" d="
M 207.25 159.55
Q 208.7 159.5 209.9 158.65 211.05 157.75 211.45 156.35
L 211.45 154.1 138.2 154.1 138.2 156.35
Q 137.75 157.75 138.5 158.7 139.25 159.55 140.75 159.55
L 207.25 159.55 Z"/>
</g>

<g id="pc_0_Layer0_0_MEMBER_2_FILL">
<path fill="#DADADA" stroke="none" d="
M 210.9 109.9
L 210.15 109.85 149.8 109.85
Q 148.4 109.9 147.3 110.8 146.25 111.65 145.95 113.05
L 143.65 150.85
Q 143.4 151.85 143.95 152.8 144.5 153.75 145.5 154
L 146.25 154.1 206.95 154.1
Q 208.4 154.05 209.45 153.15 210.5 152.25 210.8 150.85
L 212.75 113.05
Q 213 112.05 212.5 111.1 211.95 110.2 210.9 109.9 Z"/>
</g>

<g id="pc_0_Layer0_0_MEMBER_3_FILL">
<path fill="#BBBABA" stroke="none" d="
M 173.05 131.45
Q 173.05 133.6 174.55 135.1 176.05 136.65 178.2 136.65 180.35 136.6 181.85 135.1 183.4 133.6 183.4 131.45 183.4 129.3 181.85 127.8 180.35 126.3 178.2 126.3 176.1 126.25 174.6 127.75 173.1 129.2 173.05 131.35
L 173.05 131.45 Z"/>
</g>

<g id="piantina_0_Layer0_0_FILL">
<path fill="#FEE385" stroke="none" d="
M 39.45 35.15
Q 39.64609375 33.1052734375 39.7 31.5
L 13.65 31.5 15.25 54
Q 15.2 55.15 15.95 55.95 16.75 56.75 17.85 56.8
L 21.8 56.8
Q 23.8 56.2 25.65 55.05 30.75 51.6 34.3 47.1 38.55 41.8 39.45 35.15
M 43.5 31.5
L 43.3 31.5 41.7 54
Q 41.75 55.15 41 55.95 40.2 56.75 39.1 56.8
L 39.3 56.8
Q 40.4 56.75 41.2 55.95 41.95 55.15 41.9 54
L 43.5 31.5 Z"/>

<path fill="#FBE0B7" stroke="none" d="
M 39.7 31.5
Q 39.64609375 33.1052734375 39.45 35.15 38.55 41.8 34.3 47.1 30.75 51.6 25.65 55.05 23.8 56.2 21.8 56.8
L 39.1 56.8
Q 40.2 56.75 41 55.95 41.75 55.15 41.7 54
L 43.3 31.5 39.7 31.5 Z"/>

<path fill="#439979" stroke="none" d="
M 18.4 24.25
Q 17.297265625 24.3236328125 16.2 24.5 12.7955078125 25.0646484375 9.75 26.95 6.0595703125 29.262109375 3.8 33 3.7205078125 33.4697265625 3.65 33.95 6.9451171875 30.867578125 12.5 29.25 14.7837890625 28.6080078125 17.45 28.2 22 27.55 25.65 27.7 22.7 26.15 21.65 25.45 20.922265625 24.9173828125 20.25 24.3 19.6029296875 24.25 18.9 24.25 18.651953125 24.255078125 18.4 24.25
M 14.1 22.95
Q 14.0833984375 22.9541015625 14.05 22.9 12.9740234375 23.2236328125 11.95 23.65 12.992578125 23.2505859375 14.1 22.95
M 26.05 10.2
Q 24.25 7.15 21.15 5.4 20.2115234375 3.05390625 18.55 1.25 18.38515625 1.2384765625 18.2 1.2 21.25 3.85 22.5 10.15 22.930859375 12.237890625 23.1 14.1 24.2029296875 15.9091796875 24.85 18 25.69375 20.291015625 25.9 22.65 26.55078125 20.9037109375 27.9 17.45
L 27.9 16.8
Q 27.85 13.25 26.05 10.2
M 48.8 13.15
Q 44.4 14.1 40.7 16.3 37.05 18.55 33.75 21.45 32.4953125 22.7251953125 31.4 23.95 31.0123046875 25.7533203125 30.7 27.35
L 33.35 27.35 33.75 27.35
Q 34.9681640625 25.5380859375 36.35 23.9 37.33125 22.7994140625 38.35 21.75 40.8427734375 19.3806640625 43.8 17.45 49.5052734375 13.7720703125 56.15 12.45
L 54.85 12.45
Q 51.95 12.5 48.8 13.15
M 56.65 12.35
Q 56.8083984375 12.325 56.95 12.3 51.05 10.9 44.5 12.05 37.1322265625 13.3767578125 32.95 18.05 32.874609375 18.3412109375 32.8 18.6 37.01953125 13.5740234375 44.65 12.2 50.9603515625 11.0919921875 56.65 12.35 Z"/>

<path fill="#AFC0D1" stroke="none" d="
M 20.05 24.1
L 18.4 24.25
Q 18.651953125 24.255078125 18.9 24.25 19.6029296875 24.25 20.25 24.3 20.1783203125 24.2037109375 20.05 24.1
M 14.1 22.95
Q 12.992578125 23.2505859375 11.95 23.65 9.2779296875 24.7052734375 7.25 26.7 4.1 29.8 3.3 33.95 3.5546875 33.462890625 3.8 33 6.0595703125 29.262109375 9.75 26.95 12.7955078125 25.0646484375 16.2 24.5
L 15.25 24.6
Q 14.753515625 23.8021484375 14.1 22.95
M 21.15 5.4
Q 24.25 7.15 26.05 10.2 27.85 13.25 27.9 16.8
L 27.9 17.45 27.9 17.85 30.65 10.9
Q 30.2025390625 9.928125 29.65 9 28.081640625 6.43515625 25.7 4.5 22.4 1.85 18.35 1.05 18.4607421875 1.1638671875 18.55 1.25 20.2115234375 3.05390625 21.15 5.4
M 40.7 16.3
Q 44.4 14.1 48.8 13.15 51.95 12.5 54.85 12.45
L 56.15 12.45 57.1 12.45
Q 56.8841796875 12.398828125 56.65 12.35 50.9603515625 11.0919921875 44.65 12.2 37.01953125 13.5740234375 32.8 18.6 32.0146484375 21.4607421875 31.4 23.95 32.4953125 22.7251953125 33.75 21.45 37.05 18.55 40.7 16.3 Z"/>

<path fill="#6BB96F" stroke="none" d="
M 16.3 13.25
L 16.25 14.5
Q 16.3859375 16.330078125 16.75 17.9 17.71484375 21.650390625 20.05 24.1 20.1783203125 24.2037109375 20.25 24.3 20.922265625 24.9173828125 21.65 25.45 22.7 26.15 25.65 27.7 25.6650390625 27.625390625 25.65 27.55 25.70234375 27.4505859375 25.7 27.35 25.9203125 26.2125 25.95 24.95 25.9060546875 25.8009765625 25.8 26.65 25.7 22.1 23.05 18.4 20.472265625 14.8494140625 16.3 13.25
M 24 15.9
Q 24.5041015625 16.93828125 24.85 18 24.2029296875 15.9091796875 23.1 14.1 22.1095703125 12.4841796875 20.75 11.1 22.6939453125 13.2095703125 24 15.9
M 52.6 36
Q 51.75 33.75 50.7 32.2 48.9 29.35 46.05 27.35 42.9 25.35 39.45 24.4 37.84140625 23.9767578125 36.35 23.9 34.9681640625 25.5380859375 33.75 27.35
L 33.35 27.35 33.4 27.55 35.65 27.55
Q 38.4 27.75 41 28.4 43.080859375 28.9423828125 44.85 29.75 50.094921875 32.189453125 52.6 37.05 53.35 32.35 51.2 28.2 50.8091796875 27.454296875 50.3 26.8 52.8845703125 30.5 52.6 36 Z"/>

<path fill="#0F5D62" stroke="none" d="
M 8.5 14.9
Q 6.5 14.9 4.7 15.4 2.25 14.45 0.2 14.2 1.5779296875 13.7107421875 2.95 13.3 1.4779296875 13.6875 0 14.2 6.05 15.1 11.25 19.95 12.904296875 21.476953125 14.05 22.9 14.0833984375 22.9541015625 14.1 22.95 14.753515625 23.8021484375 15.25 24.6
L 16.2 24.5
Q 17.297265625 24.3236328125 18.4 24.25
L 20.05 24.1
Q 17.71484375 21.650390625 16.75 17.9 16.4302734375 17.628125 16.05 17.35 12.65 14.95 8.5 14.9
M 40 0.2
Q 39.8107421875 0.283984375 39.6 0.35
L 39.3 1.05
Q 37.1 2.05 35.5 3.8 30.7 9.2 29.25 16.3 28.35 20.65 28 23.85 27.7 26.45 27.9 27.35
L 25.7 27.35
Q 25.70234375 27.4505859375 25.65 27.55
L 30.65 27.55
Q 30.66953125 27.450390625 30.7 27.35 31.0123046875 25.7533203125 31.4 23.95 32.0146484375 21.4607421875 32.8 18.6 32.874609375 18.3412109375 32.95 18.05 33.024609375 17.8162109375 33.1 17.55 36.3 6.35 40 0.2 Z"/>

<path fill="#BDCDD8" stroke="none" d="
M 4.7 15.4
Q 6.5 14.9 8.5 14.9 12.65 14.95 16.05 17.35 16.4302734375 17.628125 16.75 17.9 16.3859375 16.330078125 16.25 14.5
L 16.3 13.25
Q 16.2171875 13.1935546875 16.1 13.15 16.1 12.858984375 16.1 12.55 16.040234375 12.5578125 15.95 12.55
L 11.45 12.25 2.95 13.3
Q 1.5779296875 13.7107421875 0.2 14.2 2.25 14.45 4.7 15.4
M 39.8 0
Q 35.75 1.85 31.9 6.15 30.669140625 7.541796875 29.65 9 30.2025390625 9.928125 30.65 10.9
L 27.9 17.85 27.9 17.45
Q 26.55078125 20.9037109375 25.9 22.65 25.98828125 23.8083984375 25.95 24.95 25.9203125 26.2125 25.7 27.35
L 27.9 27.35
Q 27.7 26.45 28 23.85 28.35 20.65 29.25 16.3 30.7 9.2 35.5 3.8 37.1 2.05 39.3 1.05
L 39.6 0.35 39.8 0 Z"/>

<path fill="#D5DEE5" stroke="none" d="
M 24.85 18
Q 24.5041015625 16.93828125 24 15.9 22.6939453125 13.2095703125 20.75 11.1
L 17.75 8.5
Q 17.2263671875 8.1537109375 16.65 7.8 16.1615234375 10.2421875 16.1 12.55 16.1 12.858984375 16.1 13.15 16.2171875 13.1935546875 16.3 13.25 20.472265625 14.8494140625 23.05 18.4 25.7 22.1 25.8 26.65 25.9060546875 25.8009765625 25.95 24.95 25.98828125 23.8083984375 25.9 22.65 25.69375 20.291015625 24.85 18
M 50.7 32.2
Q 51.75 33.75 52.6 36 52.8845703125 30.5 50.3 26.8 50.1974609375 26.596484375 50.05 26.4 46.4533203125 21.616796875 38.35 21.75 37.33125 22.7994140625 36.35 23.9 37.84140625 23.9767578125 39.45 24.4 42.9 25.35 46.05 27.35 48.9 29.35 50.7 32.2 Z"/>

<path fill="#FBD273" stroke="none" d="
M 43.3 31.5
L 43.5 31.5 44.15 31.5
Q 44.75 31.5 44.85 30.8
L 44.85 29.75
Q 43.080859375 28.9423828125 41 28.4 38.4 27.75 35.65 27.55
L 33.4 27.55 33.35 27.35 30.7 27.35
Q 30.66953125 27.450390625 30.65 27.55
L 25.65 27.55
Q 25.6650390625 27.625390625 25.65 27.7 22 27.55 17.45 28.2 14.7837890625 28.6080078125 12.5 29.25
L 12.5 30.8
Q 12.5 31.5 13.15 31.5
L 13.65 31.5 39.7 31.5 43.3 31.5 Z"/>
</g>

<path id="cesta_0_Layer0_0_1_STROKES" stroke="#D89444" stroke-width="1" stroke-linejoin="miter" stroke-linecap="butt" stroke-miterlimit="10" fill="none" d="
M 68.45 13.025
Q 71.9208984375 17.9373046875 72.9 24.35 74.35 33.95 68.65 42.1
M 44.7 17.35
Q 46.85 23.1 47.2 31.55 47.55 39.55 46.2 46.9
M 61.85 15.3
Q 64.4 20 64.85 28.2 65.35 37.25 62.55 44.2
M 53.95 16.45
Q 58.0857421875 26.2056640625 55.5 45.35
M 12.55 13.25
Q 9.255078125 18.14296875 8.3 24.35 6.85 33.95 12.55 42.1
M 19.35 15.3
Q 16.8 20 16.35 28.2 15.85 37.25 18.65 44.2
M 36.5 17.35
Q 34.4 23.15 34 31.55 33.65 39.6 35 46.9
M 27.2 16.525
Q 23.13046875 26.3255859375 25.7 45.35"/>

<path id="cesta_0_Layer0_0_2_STROKES" stroke="#D89444" stroke-width="2" stroke-linejoin="miter" stroke-linecap="butt" stroke-miterlimit="10" fill="none" d="
M 40.2 17.2
L 52.75 16.6
Q 53.3556640625 16.531640625 53.95 16.45 54.6603515625 16.3611328125 55.35 16.275
M 8.05 41.3
L 11.05 43.4
Q 12.95 44.7 20.25 46.2 29.6 48.1 40.2 48.25
L 52.75 47.65
Q 66.5 46.1 72.3 41.45"/>

<path id="coda_0_Layer0_0_1_STROKES" stroke="#6A6879" stroke-width="3" stroke-linejoin="round" stroke-linecap="round" fill="none" d="
M 37.85 19.55
Q 37.4 16.55 35.25 13.5 31 7.4 22.45 7.15 17.65 7.1 13.85 4.05 8.2 -0.45 10.9 -9.4"/>

<path id="donna_0_Layer2_0_1_STROKES" stroke="#006633" stroke-width="0.35" stroke-linejoin="miter" stroke-linecap="butt" stroke-miterlimit="10" fill="none" d="
M 11.025 165.025
Q 9 164.75 7.15 163.75 3.45 161.75 3.85 157.9 4.25 153.25 7.3 151.9
L 10.2 151.475
M 110.275 164.925
L 113.85 163.75
Q 117.55 161.75 117.15 157.9 116.8 153.25 113.7 151.9
L 111.125 151.525 110.7 151.45"/>
</defs>

<g transform="matrix( 3.046875, 0, 0, 3.046875, 0,0) ">
<g transform="matrix( 1, 0, 0, 1, 0,0) ">
<use xlink:href="#animation1_0_Layer9_0_FILL"/>
</g>

<g transform="matrix( 1, 0, 0, 1, 0,0) ">
<use xlink:href="#animation1_0_Layer8_0_FILL"/>
</g>

<g transform="matrix( 1, 0, 0, 1, 80.85,145.7) ">
<g transform="matrix( 1, 0, 0, 1, 0,0) ">
<use xlink:href="#tappeto_0_Layer0_0_FILL"/>
</g>
</g>

<g transform="matrix( 1, 0, 0, 1, 263.65,110.1) ">
<g transform="matrix( 1, 0, 0, 1, 0,0) ">
<use xlink:href="#cesta_0_Layer0_0_FILL"/>

<use xlink:href="#cesta_0_Layer0_0_1_STROKES"/>

<use xlink:href="#cesta_0_Layer0_0_2_STROKES"/>
</g>
</g>

<g transform="matrix( 1, 0, 0, 1, 274.35,80.5) ">
<g transform="matrix( 1, 0, 0, 1, 0,0) ">
<use xlink:href="#gatto__0_Layer0_0_FILL"/>
</g>
</g>

<g transform="matrix( 0.9499359130859375, 0.31243896484375, -0.31243896484375, 0.9499359130859375, 294.45,52.75) ">
<g transform="matrix( 1, 0, 0, 1, 0,0) ">
<use xlink:href="#coda_0_Layer0_0_1_STROKES"/>
</g>
</g>

<g transform="matrix( 1, 0, 0, 1, 138.6,83.2) ">
<g transform="matrix( 1, 0, 0, 1, 42.5,-4) ">
<g transform="matrix( 1, 0, 0, 1, -146.4,-69.7) ">
<use xlink:href="#sx_0_Layer1_0_FILL"/>
</g>
</g>

<g transform="matrix( 1, 0, 0, 1, -2,-0.6) ">
<g transform="matrix( 1, 0, 0, 1, -127.15,-94.95) ">
<use xlink:href="#dx_0_Layer1_0_FILL"/>
</g>
</g>
</g>

<g transform="matrix( 1, 0, 0, 1, 0,0) ">
<use xlink:href="#animation1_0_Layer3_0_FILL"/>
</g>

<g transform="matrix( 1, 0, 0, 1, 125.3,9.4) ">
<g transform="matrix( 1, 0, 0, 1, 0,0) ">
<use xlink:href="#donna_0_Layer4_0_FILL"/>
</g>

<g transform="matrix( 1, 0, 0, 1, 0,0) ">
<use xlink:href="#donna_0_Layer2_0_FILL"/>

<use xlink:href="#donna_0_Layer2_0_1_STROKES"/>
</g>

<g transform="matrix( 1, 0, 0, 1, -114.95,-25.25) ">
<use xlink:href="#donna_0_Layer2_1_FILL"/>
</g>

<g transform="matrix( 1, 0, 0, 1, -114.95,-25.25) ">
<use xlink:href="#donna_0_Layer2_2_FILL"/>
</g>

<g transform="matrix( 1, 0, 0, 1, -114.95,-25.25) ">
<use xlink:href="#donna_0_Layer2_3_MEMBER_0_MEMBER_0_FILL"/>
</g>

<g transform="matrix( 1, 0, 0, 1, -114.95,-25.25) ">
<use xlink:href="#donna_0_Layer2_3_MEMBER_1_MEMBER_0_FILL"/>
</g>

<g transform="matrix( 1, 0, 0, 1, -114.95,-25.25) ">
<use xlink:href="#donna_0_Layer2_4_MEMBER_0_FILL"/>
</g>

<g transform="matrix( 1, 0, 0, 1, -114.95,-25.25) ">
<use xlink:href="#donna_0_Layer2_5_MEMBER_0_FILL"/>
</g>

<g transform="matrix( 1, 0, 0, 1, -114.95,-25.25) ">
<use xlink:href="#donna_0_Layer2_5_MEMBER_1_FILL"/>
</g>

<g transform="matrix( 1, 0, 0, 1, -114.95,-25.25) ">
<use xlink:href="#donna_0_Layer2_6_MEMBER_0_MEMBER_0_FILL"/>
</g>

<g transform="matrix( 1, 0, 0, 1, -114.95,-25.25) ">
<use xlink:href="#donna_0_Layer2_6_MEMBER_1_MEMBER_0_FILL"/>
</g>

<g transform="matrix( 1, 0, 0, 1, 0,0) ">
<use xlink:href="#donna_0_Layer1_0_FILL"/>
</g>

<g transform="matrix( 1, 0, 0, 1, 0,0) ">
<use xlink:href="#donna_0_Layer0_0_FILL"/>
</g>
</g>

<g transform="matrix( 1, 0, 0, 1, 148.4,94) ">
<g transform="matrix( 1, 0, 0, 1, -138.05,-109.85) ">
<use xlink:href="#pc_0_Layer0_0_MEMBER_0_FILL"/>
</g>

<g transform="matrix( 1, 0, 0, 1, -138.05,-109.85) ">
<use xlink:href="#pc_0_Layer0_0_MEMBER_1_FILL"/>
</g>

<g transform="matrix( 1, 0, 0, 1, -138.05,-109.85) ">
<use xlink:href="#pc_0_Layer0_0_MEMBER_2_FILL"/>
</g>

<g transform="matrix( 1, 0, 0, 1, -138.05,-109.85) ">
<use xlink:href="#pc_0_Layer0_0_MEMBER_3_FILL"/>
</g>
</g>

<g transform="matrix( 1, 0, 0, 1, 58.15,90.35) ">
<g transform="matrix( 1, 0, 0, 1, 0,0) ">
<use xlink:href="#piantina_0_Layer0_0_FILL"/>
</g>
</g>
</g>
</svg>
